SplineFontDB: 3.2
FontName: Glass_TTY_VT220
FullName: VT220
FamilyName: Glass TTY VT220
Weight: Medium
Copyright: Created by svo with FontForge 2.0 (http://fontforge.sf.net)\n\nUse font size 15 on Windows\nUse font size 20 on Mac/Linux 
Version: 001.3
ItalicAngle: 0
UnderlinePosition: -117
UnderlineWidth: 19
Ascent: 800
Descent: 200
InvalidEm: 0
sfntRevision: 0x00014ccc
LayerCount: 2
Layer: 0 1 "Back" 1
Layer: 1 1 "Fore" 0
XUID: [1021 202 137558035 15621]
StyleMap: 0x0040
FSType: 0
OS2Version: 1
OS2_WeightWidthSlopeOnly: 0
OS2_UseTypoMetrics: 0
CreationTime: 1255122996
ModificationTime: 1644598577
PfmFamily: 17
TTFWeight: 500
TTFWidth: 5
LineGap: 90
VLineGap: 0
Panose: 2 0 6 9 0 0 0 0 0 0
OS2TypoAscent: 800
OS2TypoAOffset: 0
OS2TypoDescent: -200
OS2TypoDOffset: 0
OS2TypoLinegap: 90
OS2WinAscent: 800
OS2WinAOffset: 0
OS2WinDescent: 150
OS2WinDOffset: 0
HheadAscent: 800
HheadAOffset: 0
HheadDescent: -150
HheadDOffset: 0
OS2SubXSize: 650
OS2SubYSize: 700
OS2SubXOff: 0
OS2SubYOff: 140
OS2SupXSize: 650
OS2SupYSize: 700
OS2SupXOff: 0
OS2SupYOff: 480
OS2StrikeYSize: 49
OS2StrikeYPos: 258
OS2Vendor: 'PfEd'
OS2CodePages: 00000005.00000000
OS2UnicodeRanges: 00000203.00000000.00000000.00000000
DEI: 91125
ShortTable: cvt  2
  33
  633
EndShort
ShortTable: maxp 16
  1
  0
  323
  176
  20
  0
  0
  2
  0
  1
  1
  0
  64
  46
  0
  0
EndShort
LangName: 1033 "" "" "" "FontForge : VT220 : 14-10-2009"
GaspTable: 2 48 3 65535 2 0
Encoding: UnicodeBmp
UnicodeInterp: none
NameList: AGL For New Fonts
DisplaySize: -48
AntiAlias: 1
FitToEm: 0
WinInfo: 0 38 16
BeginChars: 65537 333

StartChar: .notdef
Encoding: 65536 -1 0
Width: 500
Flags: W
LayerCount: 2
Fore
SplineSet
33 0 m 1,0,-1
 33 666 l 1,1,-1
 298 666 l 1,2,-1
 298 0 l 1,3,-1
 33 0 l 1,0,-1
66 33 m 1,4,-1
 265 33 l 1,5,-1
 265 633 l 1,6,-1
 66 633 l 1,7,-1
 66 33 l 1,4,-1
EndSplineSet
Validated: 1
EndChar

StartChar: uni0000
Encoding: 0 -1 1
AltUni2: 000000.ffffffff.0
Width: 500
Flags: W
LayerCount: 2
Fore
SplineSet
150 75 m 128,-1,1
 150 91 150 91 159.5 95.5 c 128,-1,2
 169 100 169 100 200 100 c 128,-1,3
 231 100 231 100 240.5 95.5 c 128,-1,4
 250 91 250 91 250 75 c 128,-1,5
 250 59 250 59 240.5 54.5 c 128,-1,6
 231 50 231 50 200 50 c 128,-1,7
 169 50 169 50 159.5 54.5 c 128,-1,0
 150 59 150 59 150 75 c 128,-1,1
150 275 m 128,-1,9
 150 291 150 291 159.5 295.5 c 128,-1,10
 169 300 169 300 200 300 c 128,-1,11
 231 300 231 300 240.5 295.5 c 128,-1,12
 250 291 250 291 250 275 c 128,-1,13
 250 259 250 259 240.5 254.5 c 128,-1,14
 231 250 231 250 200 250 c 128,-1,15
 169 250 169 250 159.5 254.5 c 128,-1,8
 150 259 150 259 150 275 c 128,-1,9
150 375 m 128,-1,17
 150 391 150 391 159.5 395.5 c 128,-1,18
 169 400 169 400 200 400 c 128,-1,19
 231 400 231 400 240.5 395.5 c 128,-1,20
 250 391 250 391 250 375 c 128,-1,21
 250 359 250 359 240.5 354.5 c 128,-1,22
 231 350 231 350 200 350 c 128,-1,23
 169 350 169 350 159.5 354.5 c 128,-1,16
 150 359 150 359 150 375 c 128,-1,17
50 475 m 128,-1,25
 50 492 50 492 63 496 c 128,-1,26
 76 500 76 500 125 500 c 128,-1,27
 174 500 174 500 187 496 c 128,-1,28
 200 492 200 492 200 475 c 128,-1,29
 200 458 200 458 187 454 c 128,-1,30
 174 450 174 450 125 450 c 128,-1,31
 76 450 76 450 63 454 c 128,-1,24
 50 458 50 458 50 475 c 128,-1,25
300 575 m 128,-1,33
 300 591 300 591 309.5 595.5 c 128,-1,34
 319 600 319 600 350 600 c 128,-1,35
 381 600 381 600 390.5 595.5 c 128,-1,36
 400 591 400 591 400 575 c 128,-1,37
 400 559 400 559 390.5 554.5 c 128,-1,38
 381 550 381 550 350 550 c 128,-1,39
 319 550 319 550 309.5 554.5 c 128,-1,32
 300 559 300 559 300 575 c 128,-1,33
0 575 m 128,-1,41
 0 591 0 591 9.5 595.5 c 128,-1,42
 19 600 19 600 50 600 c 128,-1,43
 81 600 81 600 90.5 595.5 c 128,-1,44
 100 591 100 591 100 575 c 128,-1,45
 100 559 100 559 90.5 554.5 c 128,-1,46
 81 550 81 550 50 550 c 128,-1,47
 19 550 19 550 9.5 554.5 c 128,-1,40
 0 559 0 559 0 575 c 128,-1,41
50 675 m 0,48,49
 50 691 50 691 65 695 c 0,50,51
 84 700 84 700 200 700 c 0,52,53
 329 700 329 700 343 691 c 0,54,55
 350 687 350 687 350 675 c 0,56,57
 350 659 350 659 335 655 c 0,58,59
 316 650 316 650 200 650 c 0,60,61
 71 650 71 650 57 659 c 0,62,63
 50 663 50 663 50 675 c 0,48,49
EndSplineSet
Validated: 1
EndChar

StartChar: uni000D
Encoding: 13 13 2
Width: 500
Flags: W
LayerCount: 2
Fore
SplineSet
150 -125 m 128,-1,1
 150 -109 150 -109 159.5 -104.5 c 128,-1,2
 169 -100 169 -100 200 -100 c 128,-1,3
 231 -100 231 -100 240.5 -104.5 c 128,-1,4
 250 -109 250 -109 250 -125 c 128,-1,5
 250 -141 250 -141 240.5 -145.5 c 128,-1,6
 231 -150 231 -150 200 -150 c 128,-1,7
 169 -150 169 -150 159.5 -145.5 c 128,-1,0
 150 -141 150 -141 150 -125 c 128,-1,1
150 -25 m 128,-1,9
 150 -9 150 -9 159.5 -4.5 c 128,-1,10
 169 0 169 0 200 0 c 128,-1,11
 231 0 231 0 240.5 -4.5 c 128,-1,12
 250 -9 250 -9 250 -25 c 128,-1,13
 250 -41 250 -41 240.5 -45.5 c 128,-1,14
 231 -50 231 -50 200 -50 c 128,-1,15
 169 -50 169 -50 159.5 -45.5 c 128,-1,8
 150 -41 150 -41 150 -25 c 128,-1,9
150 75 m 128,-1,17
 150 91 150 91 159.5 95.5 c 128,-1,18
 169 100 169 100 200 100 c 128,-1,19
 231 100 231 100 240.5 95.5 c 128,-1,20
 250 91 250 91 250 75 c 128,-1,21
 250 59 250 59 240.5 54.5 c 128,-1,22
 231 50 231 50 200 50 c 128,-1,23
 169 50 169 50 159.5 54.5 c 128,-1,16
 150 59 150 59 150 75 c 128,-1,17
150 175 m 128,-1,25
 150 191 150 191 159.5 195.5 c 128,-1,26
 169 200 169 200 200 200 c 128,-1,27
 231 200 231 200 240.5 195.5 c 128,-1,28
 250 191 250 191 250 175 c 128,-1,29
 250 159 250 159 240.5 154.5 c 128,-1,30
 231 150 231 150 200 150 c 128,-1,31
 169 150 169 150 159.5 154.5 c 128,-1,24
 150 159 150 159 150 175 c 128,-1,25
150 275 m 128,-1,33
 150 291 150 291 159.5 295.5 c 128,-1,34
 169 300 169 300 200 300 c 128,-1,35
 231 300 231 300 240.5 295.5 c 128,-1,36
 250 291 250 291 250 275 c 128,-1,37
 250 259 250 259 240.5 254.5 c 128,-1,38
 231 250 231 250 200 250 c 128,-1,39
 169 250 169 250 159.5 254.5 c 128,-1,32
 150 259 150 259 150 275 c 128,-1,33
150 375 m 128,-1,41
 150 384 150 384 152.5 388.5 c 128,-1,42
 155 393 155 393 169.5 396 c 128,-1,43
 184 399 184 399 206 399.5 c 128,-1,44
 228 400 228 400 275 400 c 128,-1,45
 322 400 322 400 344 399.5 c 128,-1,46
 366 399 366 399 380.5 396 c 128,-1,47
 395 393 395 393 397.5 388.5 c 128,-1,48
 400 384 400 384 400 375 c 128,-1,49
 400 366 400 366 397.5 361.5 c 128,-1,50
 395 357 395 357 380.5 354 c 128,-1,51
 366 351 366 351 344 350.5 c 128,-1,52
 322 350 322 350 275 350 c 128,-1,53
 228 350 228 350 206 350.5 c 128,-1,54
 184 351 184 351 169.5 354 c 128,-1,55
 155 357 155 357 152.5 361.5 c 128,-1,40
 150 366 150 366 150 375 c 128,-1,41
EndSplineSet
Validated: 1
EndChar

StartChar: uni0001
Encoding: 1 1 3
Width: 500
Flags: W
LayerCount: 2
Fore
SplineSet
150 75 m 128,-1,1
 150 91 150 91 159.5 95.5 c 128,-1,2
 169 100 169 100 200 100 c 128,-1,3
 231 100 231 100 240.5 95.5 c 128,-1,4
 250 91 250 91 250 75 c 128,-1,5
 250 59 250 59 240.5 54.5 c 128,-1,6
 231 50 231 50 200 50 c 128,-1,7
 169 50 169 50 159.5 54.5 c 128,-1,0
 150 59 150 59 150 75 c 128,-1,1
100 175 m 128,-1,9
 100 192 100 192 116 196 c 128,-1,10
 132 200 132 200 200 200 c 128,-1,11
 268 200 268 200 284 196 c 128,-1,12
 300 192 300 192 300 175 c 128,-1,13
 300 158 300 158 284 154 c 128,-1,14
 268 150 268 150 200 150 c 128,-1,15
 132 150 132 150 116 154 c 128,-1,8
 100 158 100 158 100 175 c 128,-1,9
50 275 m 0,16,17
 50 291 50 291 65 295 c 0,18,19
 84 300 84 300 200 300 c 0,20,21
 329 300 329 300 343 291 c 0,22,23
 350 287 350 287 350 275 c 0,24,25
 350 259 350 259 335 255 c 0,26,27
 316 250 316 250 200 250 c 0,28,29
 71 250 71 250 57 259 c 0,30,31
 50 263 50 263 50 275 c 0,16,17
0 375 m 0,32,33
 0 390 0 390 15 394 c 0,34,35
 39 400 39 400 200 400 c 0,36,37
 373 400 373 400 391 391 c 0,38,39
 400 387 400 387 400 375 c 0,40,41
 400 360 400 360 385 356 c 0,42,43
 361 350 361 350 200 350 c 0,44,45
 27 350 27 350 9 359 c 0,46,47
 0 363 0 363 0 375 c 0,32,33
50 475 m 0,48,49
 50 491 50 491 65 495 c 0,50,51
 84 500 84 500 200 500 c 0,52,53
 329 500 329 500 343 491 c 0,54,55
 350 487 350 487 350 475 c 0,56,57
 350 459 350 459 335 455 c 0,58,59
 316 450 316 450 200 450 c 0,60,61
 71 450 71 450 57 459 c 0,62,63
 50 463 50 463 50 475 c 0,48,49
100 575 m 128,-1,65
 100 592 100 592 116 596 c 128,-1,66
 132 600 132 600 200 600 c 128,-1,67
 268 600 268 600 284 596 c 128,-1,68
 300 592 300 592 300 575 c 128,-1,69
 300 558 300 558 284 554 c 128,-1,70
 268 550 268 550 200 550 c 128,-1,71
 132 550 132 550 116 554 c 128,-1,64
 100 558 100 558 100 575 c 128,-1,65
150 675 m 128,-1,73
 150 691 150 691 159.5 695.5 c 128,-1,74
 169 700 169 700 200 700 c 128,-1,75
 231 700 231 700 240.5 695.5 c 128,-1,76
 250 691 250 691 250 675 c 128,-1,77
 250 659 250 659 240.5 654.5 c 128,-1,78
 231 650 231 650 200 650 c 128,-1,79
 169 650 169 650 159.5 654.5 c 128,-1,72
 150 659 150 659 150 675 c 128,-1,73
EndSplineSet
Validated: 1
EndChar

StartChar: uni0002
Encoding: 2 2 4
Width: 500
Flags: W
LayerCount: 2
Fore
SplineSet
300 75 m 128,-1,1
 300 91 300 91 309.5 95.5 c 128,-1,2
 319 100 319 100 350 100 c 128,-1,3
 381 100 381 100 390.5 95.5 c 128,-1,4
 400 91 400 91 400 75 c 128,-1,5
 400 59 400 59 390.5 54.5 c 128,-1,6
 381 50 381 50 350 50 c 128,-1,7
 319 50 319 50 309.5 54.5 c 128,-1,0
 300 59 300 59 300 75 c 128,-1,1
150 75 m 128,-1,9
 150 91 150 91 159.5 95.5 c 128,-1,10
 169 100 169 100 200 100 c 128,-1,11
 231 100 231 100 240.5 95.5 c 128,-1,12
 250 91 250 91 250 75 c 128,-1,13
 250 59 250 59 240.5 54.5 c 128,-1,14
 231 50 231 50 200 50 c 128,-1,15
 169 50 169 50 159.5 54.5 c 128,-1,8
 150 59 150 59 150 75 c 128,-1,9
0 75 m 128,-1,17
 0 91 0 91 9.5 95.5 c 128,-1,18
 19 100 19 100 50 100 c 128,-1,19
 81 100 81 100 90.5 95.5 c 128,-1,20
 100 91 100 91 100 75 c 128,-1,21
 100 59 100 59 90.5 54.5 c 128,-1,22
 81 50 81 50 50 50 c 128,-1,23
 19 50 19 50 9.5 54.5 c 128,-1,16
 0 59 0 59 0 75 c 128,-1,17
250 175 m 128,-1,25
 250 191 250 191 259.5 195.5 c 128,-1,26
 269 200 269 200 300 200 c 128,-1,27
 331 200 331 200 340.5 195.5 c 128,-1,28
 350 191 350 191 350 175 c 128,-1,29
 350 159 350 159 340.5 154.5 c 128,-1,30
 331 150 331 150 300 150 c 128,-1,31
 269 150 269 150 259.5 154.5 c 128,-1,24
 250 159 250 159 250 175 c 128,-1,25
50 175 m 128,-1,33
 50 191 50 191 59.5 195.5 c 128,-1,34
 69 200 69 200 100 200 c 128,-1,35
 131 200 131 200 140.5 195.5 c 128,-1,36
 150 191 150 191 150 175 c 128,-1,37
 150 159 150 159 140.5 154.5 c 128,-1,38
 131 150 131 150 100 150 c 128,-1,39
 69 150 69 150 59.5 154.5 c 128,-1,32
 50 159 50 159 50 175 c 128,-1,33
300 275 m 128,-1,41
 300 291 300 291 309.5 295.5 c 128,-1,42
 319 300 319 300 350 300 c 128,-1,43
 381 300 381 300 390.5 295.5 c 128,-1,44
 400 291 400 291 400 275 c 128,-1,45
 400 259 400 259 390.5 254.5 c 128,-1,46
 381 250 381 250 350 250 c 128,-1,47
 319 250 319 250 309.5 254.5 c 128,-1,40
 300 259 300 259 300 275 c 128,-1,41
150 275 m 128,-1,49
 150 291 150 291 159.5 295.5 c 128,-1,50
 169 300 169 300 200 300 c 128,-1,51
 231 300 231 300 240.5 295.5 c 128,-1,52
 250 291 250 291 250 275 c 128,-1,53
 250 259 250 259 240.5 254.5 c 128,-1,54
 231 250 231 250 200 250 c 128,-1,55
 169 250 169 250 159.5 254.5 c 128,-1,48
 150 259 150 259 150 275 c 128,-1,49
0 275 m 128,-1,57
 0 291 0 291 9.5 295.5 c 128,-1,58
 19 300 19 300 50 300 c 128,-1,59
 81 300 81 300 90.5 295.5 c 128,-1,60
 100 291 100 291 100 275 c 128,-1,61
 100 259 100 259 90.5 254.5 c 128,-1,62
 81 250 81 250 50 250 c 128,-1,63
 19 250 19 250 9.5 254.5 c 128,-1,56
 0 259 0 259 0 275 c 128,-1,57
250 375 m 128,-1,65
 250 391 250 391 259.5 395.5 c 128,-1,66
 269 400 269 400 300 400 c 128,-1,67
 331 400 331 400 340.5 395.5 c 128,-1,68
 350 391 350 391 350 375 c 128,-1,69
 350 359 350 359 340.5 354.5 c 128,-1,70
 331 350 331 350 300 350 c 128,-1,71
 269 350 269 350 259.5 354.5 c 128,-1,64
 250 359 250 359 250 375 c 128,-1,65
50 375 m 128,-1,73
 50 391 50 391 59.5 395.5 c 128,-1,74
 69 400 69 400 100 400 c 128,-1,75
 131 400 131 400 140.5 395.5 c 128,-1,76
 150 391 150 391 150 375 c 128,-1,77
 150 359 150 359 140.5 354.5 c 128,-1,78
 131 350 131 350 100 350 c 128,-1,79
 69 350 69 350 59.5 354.5 c 128,-1,72
 50 359 50 359 50 375 c 128,-1,73
300 475 m 128,-1,81
 300 491 300 491 309.5 495.5 c 128,-1,82
 319 500 319 500 350 500 c 128,-1,83
 381 500 381 500 390.5 495.5 c 128,-1,84
 400 491 400 491 400 475 c 128,-1,85
 400 459 400 459 390.5 454.5 c 128,-1,86
 381 450 381 450 350 450 c 128,-1,87
 319 450 319 450 309.5 454.5 c 128,-1,80
 300 459 300 459 300 475 c 128,-1,81
150 475 m 128,-1,89
 150 491 150 491 159.5 495.5 c 128,-1,90
 169 500 169 500 200 500 c 128,-1,91
 231 500 231 500 240.5 495.5 c 128,-1,92
 250 491 250 491 250 475 c 128,-1,93
 250 459 250 459 240.5 454.5 c 128,-1,94
 231 450 231 450 200 450 c 128,-1,95
 169 450 169 450 159.5 454.5 c 128,-1,88
 150 459 150 459 150 475 c 128,-1,89
0 475 m 128,-1,97
 0 491 0 491 9.5 495.5 c 128,-1,98
 19 500 19 500 50 500 c 128,-1,99
 81 500 81 500 90.5 495.5 c 128,-1,100
 100 491 100 491 100 475 c 128,-1,101
 100 459 100 459 90.5 454.5 c 128,-1,102
 81 450 81 450 50 450 c 128,-1,103
 19 450 19 450 9.5 454.5 c 128,-1,96
 0 459 0 459 0 475 c 128,-1,97
250 575 m 128,-1,105
 250 591 250 591 259.5 595.5 c 128,-1,106
 269 600 269 600 300 600 c 128,-1,107
 331 600 331 600 340.5 595.5 c 128,-1,108
 350 591 350 591 350 575 c 128,-1,109
 350 559 350 559 340.5 554.5 c 128,-1,110
 331 550 331 550 300 550 c 128,-1,111
 269 550 269 550 259.5 554.5 c 128,-1,104
 250 559 250 559 250 575 c 128,-1,105
50 575 m 128,-1,113
 50 591 50 591 59.5 595.5 c 128,-1,114
 69 600 69 600 100 600 c 128,-1,115
 131 600 131 600 140.5 595.5 c 128,-1,116
 150 591 150 591 150 575 c 128,-1,117
 150 559 150 559 140.5 554.5 c 128,-1,118
 131 550 131 550 100 550 c 128,-1,119
 69 550 69 550 59.5 554.5 c 128,-1,112
 50 559 50 559 50 575 c 128,-1,113
300 675 m 128,-1,121
 300 691 300 691 309.5 695.5 c 128,-1,122
 319 700 319 700 350 700 c 128,-1,123
 381 700 381 700 390.5 695.5 c 128,-1,124
 400 691 400 691 400 675 c 128,-1,125
 400 659 400 659 390.5 654.5 c 128,-1,126
 381 650 381 650 350 650 c 128,-1,127
 319 650 319 650 309.5 654.5 c 128,-1,120
 300 659 300 659 300 675 c 128,-1,121
150 675 m 128,-1,129
 150 691 150 691 159.5 695.5 c 128,-1,130
 169 700 169 700 200 700 c 128,-1,131
 231 700 231 700 240.5 695.5 c 128,-1,132
 250 691 250 691 250 675 c 128,-1,133
 250 659 250 659 240.5 654.5 c 128,-1,134
 231 650 231 650 200 650 c 128,-1,135
 169 650 169 650 159.5 654.5 c 128,-1,128
 150 659 150 659 150 675 c 128,-1,129
0 675 m 128,-1,137
 0 691 0 691 9.5 695.5 c 128,-1,138
 19 700 19 700 50 700 c 128,-1,139
 81 700 81 700 90.5 695.5 c 128,-1,140
 100 691 100 691 100 675 c 128,-1,141
 100 659 100 659 90.5 654.5 c 128,-1,142
 81 650 81 650 50 650 c 128,-1,143
 19 650 19 650 9.5 654.5 c 128,-1,136
 0 659 0 659 0 675 c 128,-1,137
EndSplineSet
Validated: 1
EndChar

StartChar: uni0003
Encoding: 3 3 5
Width: 500
Flags: W
LayerCount: 2
Fore
SplineSet
200 -125 m 128,-1,1
 200 -109 200 -109 209.5 -104.5 c 128,-1,2
 219 -100 219 -100 250 -100 c 128,-1,3
 281 -100 281 -100 290.5 -104.5 c 128,-1,4
 300 -109 300 -109 300 -125 c 128,-1,5
 300 -141 300 -141 290.5 -145.5 c 128,-1,6
 281 -150 281 -150 250 -150 c 128,-1,7
 219 -150 219 -150 209.5 -145.5 c 128,-1,0
 200 -141 200 -141 200 -125 c 128,-1,1
200 -25 m 128,-1,9
 200 -9 200 -9 209.5 -4.5 c 128,-1,10
 219 0 219 0 250 0 c 128,-1,11
 281 0 281 0 290.5 -4.5 c 128,-1,12
 300 -9 300 -9 300 -25 c 128,-1,13
 300 -41 300 -41 290.5 -45.5 c 128,-1,14
 281 -50 281 -50 250 -50 c 128,-1,15
 219 -50 219 -50 209.5 -45.5 c 128,-1,8
 200 -41 200 -41 200 -25 c 128,-1,9
200 75 m 128,-1,17
 200 91 200 91 209.5 95.5 c 128,-1,18
 219 100 219 100 250 100 c 128,-1,19
 281 100 281 100 290.5 95.5 c 128,-1,20
 300 91 300 91 300 75 c 128,-1,21
 300 59 300 59 290.5 54.5 c 128,-1,22
 281 50 281 50 250 50 c 128,-1,23
 219 50 219 50 209.5 54.5 c 128,-1,16
 200 59 200 59 200 75 c 128,-1,17
200 175 m 128,-1,25
 200 191 200 191 209.5 195.5 c 128,-1,26
 219 200 219 200 250 200 c 128,-1,27
 281 200 281 200 290.5 195.5 c 128,-1,28
 300 191 300 191 300 175 c 128,-1,29
 300 159 300 159 290.5 154.5 c 128,-1,30
 281 150 281 150 250 150 c 128,-1,31
 219 150 219 150 209.5 154.5 c 128,-1,24
 200 159 200 159 200 175 c 128,-1,25
0 275 m 0,32,33
 0 290 0 290 15 294 c 0,34,35
 39 300 39 300 200 300 c 0,36,37
 373 300 373 300 391 291 c 0,38,39
 400 287 400 287 400 275 c 0,40,41
 400 260 400 260 385 256 c 0,42,43
 361 250 361 250 200 250 c 0,44,45
 27 250 27 250 9 259 c 0,46,47
 0 263 0 263 0 275 c 0,32,33
150 375 m 128,-1,49
 150 391 150 391 159.5 395.5 c 128,-1,50
 169 400 169 400 200 400 c 128,-1,51
 231 400 231 400 240.5 395.5 c 128,-1,52
 250 391 250 391 250 375 c 128,-1,53
 250 359 250 359 240.5 354.5 c 128,-1,54
 231 350 231 350 200 350 c 128,-1,55
 169 350 169 350 159.5 354.5 c 128,-1,48
 150 359 150 359 150 375 c 128,-1,49
0 375 m 128,-1,57
 0 391 0 391 9.5 395.5 c 128,-1,58
 19 400 19 400 50 400 c 128,-1,59
 81 400 81 400 90.5 395.5 c 128,-1,60
 100 391 100 391 100 375 c 128,-1,61
 100 359 100 359 90.5 354.5 c 128,-1,62
 81 350 81 350 50 350 c 128,-1,63
 19 350 19 350 9.5 354.5 c 128,-1,56
 0 359 0 359 0 375 c 128,-1,57
0 475 m 128,-1,65
 0 484 0 484 2.5 488.5 c 128,-1,66
 5 493 5 493 19.5 496 c 128,-1,67
 34 499 34 499 56 499.5 c 128,-1,68
 78 500 78 500 125 500 c 128,-1,69
 172 500 172 500 194 499.5 c 128,-1,70
 216 499 216 499 230.5 496 c 128,-1,71
 245 493 245 493 247.5 488.5 c 128,-1,72
 250 484 250 484 250 475 c 128,-1,73
 250 466 250 466 247.5 461.5 c 128,-1,74
 245 457 245 457 230.5 454 c 128,-1,75
 216 451 216 451 194 450.5 c 128,-1,76
 172 450 172 450 125 450 c 128,-1,77
 78 450 78 450 56 450.5 c 128,-1,78
 34 451 34 451 19.5 454 c 128,-1,79
 5 457 5 457 2.5 461.5 c 128,-1,64
 0 466 0 466 0 475 c 128,-1,65
150 575 m 128,-1,81
 150 591 150 591 159.5 595.5 c 128,-1,82
 169 600 169 600 200 600 c 128,-1,83
 231 600 231 600 240.5 595.5 c 128,-1,84
 250 591 250 591 250 575 c 128,-1,85
 250 559 250 559 240.5 554.5 c 128,-1,86
 231 550 231 550 200 550 c 128,-1,87
 169 550 169 550 159.5 554.5 c 128,-1,80
 150 559 150 559 150 575 c 128,-1,81
0 575 m 128,-1,89
 0 591 0 591 9.5 595.5 c 128,-1,90
 19 600 19 600 50 600 c 128,-1,91
 81 600 81 600 90.5 595.5 c 128,-1,92
 100 591 100 591 100 575 c 128,-1,93
 100 559 100 559 90.5 554.5 c 128,-1,94
 81 550 81 550 50 550 c 128,-1,95
 19 550 19 550 9.5 554.5 c 128,-1,88
 0 559 0 559 0 575 c 128,-1,89
150 675 m 128,-1,97
 150 691 150 691 159.5 695.5 c 128,-1,98
 169 700 169 700 200 700 c 128,-1,99
 231 700 231 700 240.5 695.5 c 128,-1,100
 250 691 250 691 250 675 c 128,-1,101
 250 659 250 659 240.5 654.5 c 128,-1,102
 231 650 231 650 200 650 c 128,-1,103
 169 650 169 650 159.5 654.5 c 128,-1,96
 150 659 150 659 150 675 c 128,-1,97
0 675 m 128,-1,105
 0 691 0 691 9.5 695.5 c 128,-1,106
 19 700 19 700 50 700 c 128,-1,107
 81 700 81 700 90.5 695.5 c 128,-1,108
 100 691 100 691 100 675 c 128,-1,109
 100 659 100 659 90.5 654.5 c 128,-1,110
 81 650 81 650 50 650 c 128,-1,111
 19 650 19 650 9.5 654.5 c 128,-1,104
 0 659 0 659 0 675 c 128,-1,105
EndSplineSet
Validated: 1
EndChar

StartChar: uni0004
Encoding: 4 4 6
Width: 500
Flags: W
LayerCount: 2
Fore
SplineSet
150 -125 m 128,-1,1
 150 -109 150 -109 159.5 -104.5 c 128,-1,2
 169 -100 169 -100 200 -100 c 128,-1,3
 231 -100 231 -100 240.5 -104.5 c 128,-1,4
 250 -109 250 -109 250 -125 c 128,-1,5
 250 -141 250 -141 240.5 -145.5 c 128,-1,6
 231 -150 231 -150 200 -150 c 128,-1,7
 169 -150 169 -150 159.5 -145.5 c 128,-1,0
 150 -141 150 -141 150 -125 c 128,-1,1
150 -25 m 128,-1,9
 150 -9 150 -9 159.5 -4.5 c 128,-1,10
 169 0 169 0 200 0 c 128,-1,11
 231 0 231 0 240.5 -4.5 c 128,-1,12
 250 -9 250 -9 250 -25 c 128,-1,13
 250 -41 250 -41 240.5 -45.5 c 128,-1,14
 231 -50 231 -50 200 -50 c 128,-1,15
 169 -50 169 -50 159.5 -45.5 c 128,-1,8
 150 -41 150 -41 150 -25 c 128,-1,9
150 75 m 128,-1,17
 150 92 150 92 166 96 c 128,-1,18
 182 100 182 100 250 100 c 128,-1,19
 318 100 318 100 334 96 c 128,-1,20
 350 92 350 92 350 75 c 128,-1,21
 350 58 350 58 334 54 c 128,-1,22
 318 50 318 50 250 50 c 128,-1,23
 182 50 182 50 166 54 c 128,-1,16
 150 58 150 58 150 75 c 128,-1,17
150 175 m 128,-1,25
 150 191 150 191 159.5 195.5 c 128,-1,26
 169 200 169 200 200 200 c 128,-1,27
 231 200 231 200 240.5 195.5 c 128,-1,28
 250 191 250 191 250 175 c 128,-1,29
 250 159 250 159 240.5 154.5 c 128,-1,30
 231 150 231 150 200 150 c 128,-1,31
 169 150 169 150 159.5 154.5 c 128,-1,24
 150 159 150 159 150 175 c 128,-1,25
150 275 m 128,-1,33
 150 284 150 284 152.5 288.5 c 128,-1,34
 155 293 155 293 169.5 296 c 128,-1,35
 184 299 184 299 206 299.5 c 128,-1,36
 228 300 228 300 275 300 c 128,-1,37
 322 300 322 300 344 299.5 c 128,-1,38
 366 299 366 299 380.5 296 c 128,-1,39
 395 293 395 293 397.5 288.5 c 128,-1,40
 400 284 400 284 400 275 c 128,-1,41
 400 266 400 266 397.5 261.5 c 128,-1,42
 395 257 395 257 380.5 254 c 128,-1,43
 366 251 366 251 344 250.5 c 128,-1,44
 322 250 322 250 275 250 c 128,-1,45
 228 250 228 250 206 250.5 c 128,-1,46
 184 251 184 251 169.5 254 c 128,-1,47
 155 257 155 257 152.5 261.5 c 128,-1,32
 150 266 150 266 150 275 c 128,-1,33
0 275 m 128,-1,49
 0 291 0 291 9.5 295.5 c 128,-1,50
 19 300 19 300 50 300 c 128,-1,51
 81 300 81 300 90.5 295.5 c 128,-1,52
 100 291 100 291 100 275 c 128,-1,53
 100 259 100 259 90.5 254.5 c 128,-1,54
 81 250 81 250 50 250 c 128,-1,55
 19 250 19 250 9.5 254.5 c 128,-1,48
 0 259 0 259 0 275 c 128,-1,49
0 375 m 128,-1,57
 0 391 0 391 9.5 395.5 c 128,-1,58
 19 400 19 400 50 400 c 128,-1,59
 81 400 81 400 90.5 395.5 c 128,-1,60
 100 391 100 391 100 375 c 128,-1,61
 100 359 100 359 90.5 354.5 c 128,-1,62
 81 350 81 350 50 350 c 128,-1,63
 19 350 19 350 9.5 354.5 c 128,-1,56
 0 359 0 359 0 375 c 128,-1,57
0 475 m 128,-1,65
 0 492 0 492 16 496 c 128,-1,66
 32 500 32 500 100 500 c 128,-1,67
 168 500 168 500 184 496 c 128,-1,68
 200 492 200 492 200 475 c 128,-1,69
 200 458 200 458 184 454 c 128,-1,70
 168 450 168 450 100 450 c 128,-1,71
 32 450 32 450 16 454 c 128,-1,64
 0 458 0 458 0 475 c 128,-1,65
0 575 m 128,-1,73
 0 591 0 591 9.5 595.5 c 128,-1,74
 19 600 19 600 50 600 c 128,-1,75
 81 600 81 600 90.5 595.5 c 128,-1,76
 100 591 100 591 100 575 c 128,-1,77
 100 559 100 559 90.5 554.5 c 128,-1,78
 81 550 81 550 50 550 c 128,-1,79
 19 550 19 550 9.5 554.5 c 128,-1,72
 0 559 0 559 0 575 c 128,-1,73
0 675 m 128,-1,81
 0 684 0 684 2.5 688.5 c 128,-1,82
 5 693 5 693 19.5 696 c 128,-1,83
 34 699 34 699 56 699.5 c 128,-1,84
 78 700 78 700 125 700 c 128,-1,85
 172 700 172 700 194 699.5 c 128,-1,86
 216 699 216 699 230.5 696 c 128,-1,87
 245 693 245 693 247.5 688.5 c 128,-1,88
 250 684 250 684 250 675 c 128,-1,89
 250 666 250 666 247.5 661.5 c 128,-1,90
 245 657 245 657 230.5 654 c 128,-1,91
 216 651 216 651 194 650.5 c 128,-1,92
 172 650 172 650 125 650 c 128,-1,93
 78 650 78 650 56 650.5 c 128,-1,94
 34 651 34 651 19.5 654 c 128,-1,95
 5 657 5 657 2.5 661.5 c 128,-1,80
 0 666 0 666 0 675 c 128,-1,81
EndSplineSet
Validated: 1
EndChar

StartChar: uni0005
Encoding: 5 5 7
Width: 500
Flags: W
LayerCount: 2
Fore
SplineSet
300 -125 m 128,-1,1
 300 -109 300 -109 309.5 -104.5 c 128,-1,2
 319 -100 319 -100 350 -100 c 128,-1,3
 381 -100 381 -100 390.5 -104.5 c 128,-1,4
 400 -109 400 -109 400 -125 c 128,-1,5
 400 -141 400 -141 390.5 -145.5 c 128,-1,6
 381 -150 381 -150 350 -150 c 128,-1,7
 319 -150 319 -150 309.5 -145.5 c 128,-1,0
 300 -141 300 -141 300 -125 c 128,-1,1
150 -125 m 128,-1,9
 150 -109 150 -109 159.5 -104.5 c 128,-1,10
 169 -100 169 -100 200 -100 c 128,-1,11
 231 -100 231 -100 240.5 -104.5 c 128,-1,12
 250 -109 250 -109 250 -125 c 128,-1,13
 250 -141 250 -141 240.5 -145.5 c 128,-1,14
 231 -150 231 -150 200 -150 c 128,-1,15
 169 -150 169 -150 159.5 -145.5 c 128,-1,8
 150 -141 150 -141 150 -125 c 128,-1,9
300 -25 m 128,-1,17
 300 -9 300 -9 309.5 -4.5 c 128,-1,18
 319 0 319 0 350 0 c 128,-1,19
 381 0 381 0 390.5 -4.5 c 128,-1,20
 400 -9 400 -9 400 -25 c 128,-1,21
 400 -41 400 -41 390.5 -45.5 c 128,-1,22
 381 -50 381 -50 350 -50 c 128,-1,23
 319 -50 319 -50 309.5 -45.5 c 128,-1,16
 300 -41 300 -41 300 -25 c 128,-1,17
150 -25 m 128,-1,25
 150 -9 150 -9 159.5 -4.5 c 128,-1,26
 169 0 169 0 200 0 c 128,-1,27
 231 0 231 0 240.5 -4.5 c 128,-1,28
 250 -9 250 -9 250 -25 c 128,-1,29
 250 -41 250 -41 240.5 -45.5 c 128,-1,30
 231 -50 231 -50 200 -50 c 128,-1,31
 169 -50 169 -50 159.5 -45.5 c 128,-1,24
 150 -41 150 -41 150 -25 c 128,-1,25
150 75 m 128,-1,33
 150 92 150 92 166 96 c 128,-1,34
 182 100 182 100 250 100 c 128,-1,35
 318 100 318 100 334 96 c 128,-1,36
 350 92 350 92 350 75 c 128,-1,37
 350 58 350 58 334 54 c 128,-1,38
 318 50 318 50 250 50 c 128,-1,39
 182 50 182 50 166 54 c 128,-1,32
 150 58 150 58 150 75 c 128,-1,33
300 175 m 128,-1,41
 300 191 300 191 309.5 195.5 c 128,-1,42
 319 200 319 200 350 200 c 128,-1,43
 381 200 381 200 390.5 195.5 c 128,-1,44
 400 191 400 191 400 175 c 128,-1,45
 400 159 400 159 390.5 154.5 c 128,-1,46
 381 150 381 150 350 150 c 128,-1,47
 319 150 319 150 309.5 154.5 c 128,-1,40
 300 159 300 159 300 175 c 128,-1,41
150 175 m 128,-1,49
 150 191 150 191 159.5 195.5 c 128,-1,50
 169 200 169 200 200 200 c 128,-1,51
 231 200 231 200 240.5 195.5 c 128,-1,52
 250 191 250 191 250 175 c 128,-1,53
 250 159 250 159 240.5 154.5 c 128,-1,54
 231 150 231 150 200 150 c 128,-1,55
 169 150 169 150 159.5 154.5 c 128,-1,48
 150 159 150 159 150 175 c 128,-1,49
50 275 m 0,56,57
 50 291 50 291 65 295 c 0,58,59
 84 300 84 300 200 300 c 0,60,61
 329 300 329 300 343 291 c 0,62,63
 350 287 350 287 350 275 c 0,64,65
 350 259 350 259 335 255 c 0,66,67
 316 250 316 250 200 250 c 0,68,69
 71 250 71 250 57 259 c 0,70,71
 50 263 50 263 50 275 c 0,56,57
0 375 m 128,-1,73
 0 391 0 391 9.5 395.5 c 128,-1,74
 19 400 19 400 50 400 c 128,-1,75
 81 400 81 400 90.5 395.5 c 128,-1,76
 100 391 100 391 100 375 c 128,-1,77
 100 359 100 359 90.5 354.5 c 128,-1,78
 81 350 81 350 50 350 c 128,-1,79
 19 350 19 350 9.5 354.5 c 128,-1,72
 0 359 0 359 0 375 c 128,-1,73
0 475 m 128,-1,81
 0 491 0 491 9.5 495.5 c 128,-1,82
 19 500 19 500 50 500 c 128,-1,83
 81 500 81 500 90.5 495.5 c 128,-1,84
 100 491 100 491 100 475 c 128,-1,85
 100 459 100 459 90.5 454.5 c 128,-1,86
 81 450 81 450 50 450 c 128,-1,87
 19 450 19 450 9.5 454.5 c 128,-1,80
 0 459 0 459 0 475 c 128,-1,81
0 575 m 128,-1,89
 0 591 0 591 9.5 595.5 c 128,-1,90
 19 600 19 600 50 600 c 128,-1,91
 81 600 81 600 90.5 595.5 c 128,-1,92
 100 591 100 591 100 575 c 128,-1,93
 100 559 100 559 90.5 554.5 c 128,-1,94
 81 550 81 550 50 550 c 128,-1,95
 19 550 19 550 9.5 554.5 c 128,-1,88
 0 559 0 559 0 575 c 128,-1,89
50 675 m 128,-1,97
 50 692 50 692 66 696 c 128,-1,98
 82 700 82 700 150 700 c 128,-1,99
 218 700 218 700 234 696 c 128,-1,100
 250 692 250 692 250 675 c 128,-1,101
 250 658 250 658 234 654 c 128,-1,102
 218 650 218 650 150 650 c 128,-1,103
 82 650 82 650 66 654 c 128,-1,96
 50 658 50 658 50 675 c 128,-1,97
EndSplineSet
Validated: 1
EndChar

StartChar: uni0006
Encoding: 6 6 8
Width: 500
Flags: W
LayerCount: 2
Fore
SplineSet
150 -125 m 128,-1,1
 150 -109 150 -109 159.5 -104.5 c 128,-1,2
 169 -100 169 -100 200 -100 c 128,-1,3
 231 -100 231 -100 240.5 -104.5 c 128,-1,4
 250 -109 250 -109 250 -125 c 128,-1,5
 250 -141 250 -141 240.5 -145.5 c 128,-1,6
 231 -150 231 -150 200 -150 c 128,-1,7
 169 -150 169 -150 159.5 -145.5 c 128,-1,0
 150 -141 150 -141 150 -125 c 128,-1,1
150 -25 m 128,-1,9
 150 -9 150 -9 159.5 -4.5 c 128,-1,10
 169 0 169 0 200 0 c 128,-1,11
 231 0 231 0 240.5 -4.5 c 128,-1,12
 250 -9 250 -9 250 -25 c 128,-1,13
 250 -41 250 -41 240.5 -45.5 c 128,-1,14
 231 -50 231 -50 200 -50 c 128,-1,15
 169 -50 169 -50 159.5 -45.5 c 128,-1,8
 150 -41 150 -41 150 -25 c 128,-1,9
150 75 m 128,-1,17
 150 92 150 92 166 96 c 128,-1,18
 182 100 182 100 250 100 c 128,-1,19
 318 100 318 100 334 96 c 128,-1,20
 350 92 350 92 350 75 c 128,-1,21
 350 58 350 58 334 54 c 128,-1,22
 318 50 318 50 250 50 c 128,-1,23
 182 50 182 50 166 54 c 128,-1,16
 150 58 150 58 150 75 c 128,-1,17
150 175 m 128,-1,25
 150 191 150 191 159.5 195.5 c 128,-1,26
 169 200 169 200 200 200 c 128,-1,27
 231 200 231 200 240.5 195.5 c 128,-1,28
 250 191 250 191 250 175 c 128,-1,29
 250 159 250 159 240.5 154.5 c 128,-1,30
 231 150 231 150 200 150 c 128,-1,31
 169 150 169 150 159.5 154.5 c 128,-1,24
 150 159 150 159 150 175 c 128,-1,25
0 275 m 0,32,33
 0 290 0 290 15 294 c 0,34,35
 39 300 39 300 200 300 c 0,36,37
 373 300 373 300 391 291 c 0,38,39
 400 287 400 287 400 275 c 0,40,41
 400 260 400 260 385 256 c 0,42,43
 361 250 361 250 200 250 c 0,44,45
 27 250 27 250 9 259 c 0,46,47
 0 263 0 263 0 275 c 0,32,33
0 375 m 128,-1,49
 0 391 0 391 9.5 395.5 c 128,-1,50
 19 400 19 400 50 400 c 128,-1,51
 81 400 81 400 90.5 395.5 c 128,-1,52
 100 391 100 391 100 375 c 128,-1,53
 100 359 100 359 90.5 354.5 c 128,-1,54
 81 350 81 350 50 350 c 128,-1,55
 19 350 19 350 9.5 354.5 c 128,-1,48
 0 359 0 359 0 375 c 128,-1,49
0 475 m 128,-1,57
 0 491 0 491 9.5 495.5 c 128,-1,58
 19 500 19 500 50 500 c 128,-1,59
 81 500 81 500 90.5 495.5 c 128,-1,60
 100 491 100 491 100 475 c 128,-1,61
 100 459 100 459 90.5 454.5 c 128,-1,62
 81 450 81 450 50 450 c 128,-1,63
 19 450 19 450 9.5 454.5 c 128,-1,56
 0 459 0 459 0 475 c 128,-1,57
0 575 m 128,-1,65
 0 591 0 591 9.5 595.5 c 128,-1,66
 19 600 19 600 50 600 c 128,-1,67
 81 600 81 600 90.5 595.5 c 128,-1,68
 100 591 100 591 100 575 c 128,-1,69
 100 559 100 559 90.5 554.5 c 128,-1,70
 81 550 81 550 50 550 c 128,-1,71
 19 550 19 550 9.5 554.5 c 128,-1,64
 0 559 0 559 0 575 c 128,-1,65
0 675 m 128,-1,73
 0 691 0 691 9.5 695.5 c 128,-1,74
 19 700 19 700 50 700 c 128,-1,75
 81 700 81 700 90.5 695.5 c 128,-1,76
 100 691 100 691 100 675 c 128,-1,77
 100 659 100 659 90.5 654.5 c 128,-1,78
 81 650 81 650 50 650 c 128,-1,79
 19 650 19 650 9.5 654.5 c 128,-1,72
 0 659 0 659 0 675 c 128,-1,73
EndSplineSet
Validated: 1
EndChar

StartChar: uni0007
Encoding: 7 7 9
Width: 500
Flags: W
LayerCount: 2
Fore
SplineSet
100 475 m 128,-1,1
 100 492 100 492 116 496 c 128,-1,2
 132 500 132 500 200 500 c 128,-1,3
 268 500 268 500 284 496 c 128,-1,4
 300 492 300 492 300 475 c 128,-1,5
 300 458 300 458 284 454 c 128,-1,6
 268 450 268 450 200 450 c 128,-1,7
 132 450 132 450 116 454 c 128,-1,0
 100 458 100 458 100 475 c 128,-1,1
250 575 m 128,-1,9
 250 591 250 591 259.5 595.5 c 128,-1,10
 269 600 269 600 300 600 c 128,-1,11
 331 600 331 600 340.5 595.5 c 128,-1,12
 350 591 350 591 350 575 c 128,-1,13
 350 559 350 559 340.5 554.5 c 128,-1,14
 331 550 331 550 300 550 c 128,-1,15
 269 550 269 550 259.5 554.5 c 128,-1,8
 250 559 250 559 250 575 c 128,-1,9
50 575 m 128,-1,17
 50 591 50 591 59.5 595.5 c 128,-1,18
 69 600 69 600 100 600 c 128,-1,19
 131 600 131 600 140.5 595.5 c 128,-1,20
 150 591 150 591 150 575 c 128,-1,21
 150 559 150 559 140.5 554.5 c 128,-1,22
 131 550 131 550 100 550 c 128,-1,23
 69 550 69 550 59.5 554.5 c 128,-1,16
 50 559 50 559 50 575 c 128,-1,17
100 675 m 128,-1,25
 100 692 100 692 116 696 c 128,-1,26
 132 700 132 700 200 700 c 128,-1,27
 268 700 268 700 284 696 c 128,-1,28
 300 692 300 692 300 675 c 128,-1,29
 300 658 300 658 284 654 c 128,-1,30
 268 650 268 650 200 650 c 128,-1,31
 132 650 132 650 116 654 c 128,-1,24
 100 658 100 658 100 675 c 128,-1,25
EndSplineSet
Validated: 1
EndChar

StartChar: uni0008
Encoding: 8 8 10
Width: 500
Flags: W
LayerCount: 2
Fore
SplineSet
0 75 m 0,0,1
 0 90 0 90 15 94 c 0,2,3
 39 100 39 100 200 100 c 0,4,5
 373 100 373 100 391 91 c 0,6,7
 400 87 400 87 400 75 c 0,8,9
 400 60 400 60 385 56 c 0,10,11
 361 50 361 50 200 50 c 0,12,13
 27 50 27 50 9 59 c 0,14,15
 0 63 0 63 0 75 c 0,0,1
150 175 m 128,-1,17
 150 191 150 191 159.5 195.5 c 128,-1,18
 169 200 169 200 200 200 c 128,-1,19
 231 200 231 200 240.5 195.5 c 128,-1,20
 250 191 250 191 250 175 c 128,-1,21
 250 159 250 159 240.5 154.5 c 128,-1,22
 231 150 231 150 200 150 c 128,-1,23
 169 150 169 150 159.5 154.5 c 128,-1,16
 150 159 150 159 150 175 c 128,-1,17
150 275 m 128,-1,25
 150 291 150 291 159.5 295.5 c 128,-1,26
 169 300 169 300 200 300 c 128,-1,27
 231 300 231 300 240.5 295.5 c 128,-1,28
 250 291 250 291 250 275 c 128,-1,29
 250 259 250 259 240.5 254.5 c 128,-1,30
 231 250 231 250 200 250 c 128,-1,31
 169 250 169 250 159.5 254.5 c 128,-1,24
 150 259 150 259 150 275 c 128,-1,25
0 375 m 0,32,33
 0 390 0 390 15 394 c 0,34,35
 39 400 39 400 200 400 c 0,36,37
 373 400 373 400 391 391 c 0,38,39
 400 387 400 387 400 375 c 0,40,41
 400 360 400 360 385 356 c 0,42,43
 361 350 361 350 200 350 c 0,44,45
 27 350 27 350 9 359 c 0,46,47
 0 363 0 363 0 375 c 0,32,33
150 475 m 128,-1,49
 150 491 150 491 159.5 495.5 c 128,-1,50
 169 500 169 500 200 500 c 128,-1,51
 231 500 231 500 240.5 495.5 c 128,-1,52
 250 491 250 491 250 475 c 128,-1,53
 250 459 250 459 240.5 454.5 c 128,-1,54
 231 450 231 450 200 450 c 128,-1,55
 169 450 169 450 159.5 454.5 c 128,-1,48
 150 459 150 459 150 475 c 128,-1,49
150 575 m 128,-1,57
 150 591 150 591 159.5 595.5 c 128,-1,58
 169 600 169 600 200 600 c 128,-1,59
 231 600 231 600 240.5 595.5 c 128,-1,60
 250 591 250 591 250 575 c 128,-1,61
 250 559 250 559 240.5 554.5 c 128,-1,62
 231 550 231 550 200 550 c 128,-1,63
 169 550 169 550 159.5 554.5 c 128,-1,56
 150 559 150 559 150 575 c 128,-1,57
EndSplineSet
Validated: 1
EndChar

StartChar: uni0009
Encoding: 9 9 11
Width: 500
Flags: W
LayerCount: 2
Fore
SplineSet
150 -125 m 128,-1,1
 150 -116 150 -116 152.5 -111.5 c 128,-1,2
 155 -107 155 -107 169.5 -104 c 128,-1,3
 184 -101 184 -101 206 -100.5 c 128,-1,4
 228 -100 228 -100 275 -100 c 128,-1,5
 322 -100 322 -100 344 -100.5 c 128,-1,6
 366 -101 366 -101 380.5 -104 c 128,-1,7
 395 -107 395 -107 397.5 -111.5 c 128,-1,8
 400 -116 400 -116 400 -125 c 128,-1,9
 400 -134 400 -134 397.5 -138.5 c 128,-1,10
 395 -143 395 -143 380.5 -146 c 128,-1,11
 366 -149 366 -149 344 -149.5 c 128,-1,12
 322 -150 322 -150 275 -150 c 128,-1,13
 228 -150 228 -150 206 -149.5 c 128,-1,14
 184 -149 184 -149 169.5 -146 c 128,-1,15
 155 -143 155 -143 152.5 -138.5 c 128,-1,0
 150 -134 150 -134 150 -125 c 128,-1,1
150 -25 m 128,-1,17
 150 -9 150 -9 159.5 -4.5 c 128,-1,18
 169 0 169 0 200 0 c 128,-1,19
 231 0 231 0 240.5 -4.5 c 128,-1,20
 250 -9 250 -9 250 -25 c 128,-1,21
 250 -41 250 -41 240.5 -45.5 c 128,-1,22
 231 -50 231 -50 200 -50 c 128,-1,23
 169 -50 169 -50 159.5 -45.5 c 128,-1,16
 150 -41 150 -41 150 -25 c 128,-1,17
150 75 m 128,-1,25
 150 91 150 91 159.5 95.5 c 128,-1,26
 169 100 169 100 200 100 c 128,-1,27
 231 100 231 100 240.5 95.5 c 128,-1,28
 250 91 250 91 250 75 c 128,-1,29
 250 59 250 59 240.5 54.5 c 128,-1,30
 231 50 231 50 200 50 c 128,-1,31
 169 50 169 50 159.5 54.5 c 128,-1,24
 150 59 150 59 150 75 c 128,-1,25
150 175 m 128,-1,33
 150 191 150 191 159.5 195.5 c 128,-1,34
 169 200 169 200 200 200 c 128,-1,35
 231 200 231 200 240.5 195.5 c 128,-1,36
 250 191 250 191 250 175 c 128,-1,37
 250 159 250 159 240.5 154.5 c 128,-1,38
 231 150 231 150 200 150 c 128,-1,39
 169 150 169 150 159.5 154.5 c 128,-1,32
 150 159 150 159 150 175 c 128,-1,33
150 275 m 128,-1,41
 150 292 150 292 163 296 c 128,-1,42
 176 300 176 300 225 300 c 128,-1,43
 274 300 274 300 287 296 c 128,-1,44
 300 292 300 292 300 275 c 128,-1,45
 300 258 300 258 287 254 c 128,-1,46
 274 250 274 250 225 250 c 128,-1,47
 176 250 176 250 163 254 c 128,-1,40
 150 258 150 258 150 275 c 128,-1,41
0 275 m 128,-1,49
 0 291 0 291 9.5 295.5 c 128,-1,50
 19 300 19 300 50 300 c 128,-1,51
 81 300 81 300 90.5 295.5 c 128,-1,52
 100 291 100 291 100 275 c 128,-1,53
 100 259 100 259 90.5 254.5 c 128,-1,54
 81 250 81 250 50 250 c 128,-1,55
 19 250 19 250 9.5 254.5 c 128,-1,48
 0 259 0 259 0 275 c 128,-1,49
150 375 m 128,-1,57
 150 392 150 392 163 396 c 128,-1,58
 176 400 176 400 225 400 c 128,-1,59
 274 400 274 400 287 396 c 128,-1,60
 300 392 300 392 300 375 c 128,-1,61
 300 358 300 358 287 354 c 128,-1,62
 274 350 274 350 225 350 c 128,-1,63
 176 350 176 350 163 354 c 128,-1,56
 150 358 150 358 150 375 c 128,-1,57
0 375 m 128,-1,65
 0 391 0 391 9.5 395.5 c 128,-1,66
 19 400 19 400 50 400 c 128,-1,67
 81 400 81 400 90.5 395.5 c 128,-1,68
 100 391 100 391 100 375 c 128,-1,69
 100 359 100 359 90.5 354.5 c 128,-1,70
 81 350 81 350 50 350 c 128,-1,71
 19 350 19 350 9.5 354.5 c 128,-1,64
 0 359 0 359 0 375 c 128,-1,65
0 475 m 0,72,73
 0 491 0 491 15 495 c 0,74,75
 34 500 34 500 150 500 c 0,76,77
 279 500 279 500 293 491 c 0,78,79
 300 487 300 487 300 475 c 0,80,81
 300 459 300 459 285 455 c 0,82,83
 266 450 266 450 150 450 c 0,84,85
 21 450 21 450 7 459 c 0,86,87
 0 463 0 463 0 475 c 0,72,73
200 575 m 128,-1,89
 200 591 200 591 209.5 595.5 c 128,-1,90
 219 600 219 600 250 600 c 128,-1,91
 281 600 281 600 290.5 595.5 c 128,-1,92
 300 591 300 591 300 575 c 128,-1,93
 300 559 300 559 290.5 554.5 c 128,-1,94
 281 550 281 550 250 550 c 128,-1,95
 219 550 219 550 209.5 554.5 c 128,-1,88
 200 559 200 559 200 575 c 128,-1,89
0 575 m 128,-1,97
 0 592 0 592 13 596 c 128,-1,98
 26 600 26 600 75 600 c 128,-1,99
 124 600 124 600 137 596 c 128,-1,100
 150 592 150 592 150 575 c 128,-1,101
 150 558 150 558 137 554 c 128,-1,102
 124 550 124 550 75 550 c 128,-1,103
 26 550 26 550 13 554 c 128,-1,96
 0 558 0 558 0 575 c 128,-1,97
200 675 m 128,-1,105
 200 691 200 691 209.5 695.5 c 128,-1,106
 219 700 219 700 250 700 c 128,-1,107
 281 700 281 700 290.5 695.5 c 128,-1,108
 300 691 300 691 300 675 c 128,-1,109
 300 659 300 659 290.5 654.5 c 128,-1,110
 281 650 281 650 250 650 c 128,-1,111
 219 650 219 650 209.5 654.5 c 128,-1,104
 200 659 200 659 200 675 c 128,-1,105
0 675 m 128,-1,113
 0 691 0 691 9.5 695.5 c 128,-1,114
 19 700 19 700 50 700 c 128,-1,115
 81 700 81 700 90.5 695.5 c 128,-1,116
 100 691 100 691 100 675 c 128,-1,117
 100 659 100 659 90.5 654.5 c 128,-1,118
 81 650 81 650 50 650 c 128,-1,119
 19 650 19 650 9.5 654.5 c 128,-1,112
 0 659 0 659 0 675 c 128,-1,113
EndSplineSet
Validated: 1
EndChar

StartChar: uni000A
Encoding: 10 10 12
Width: 500
Flags: W
LayerCount: 2
Fore
SplineSet
200 -125 m 128,-1,1
 200 -109 200 -109 209.5 -104.5 c 128,-1,2
 219 -100 219 -100 250 -100 c 128,-1,3
 281 -100 281 -100 290.5 -104.5 c 128,-1,4
 300 -109 300 -109 300 -125 c 128,-1,5
 300 -141 300 -141 290.5 -145.5 c 128,-1,6
 281 -150 281 -150 250 -150 c 128,-1,7
 219 -150 219 -150 209.5 -145.5 c 128,-1,0
 200 -141 200 -141 200 -125 c 128,-1,1
200 -25 m 128,-1,9
 200 -9 200 -9 209.5 -4.5 c 128,-1,10
 219 0 219 0 250 0 c 128,-1,11
 281 0 281 0 290.5 -4.5 c 128,-1,12
 300 -9 300 -9 300 -25 c 128,-1,13
 300 -41 300 -41 290.5 -45.5 c 128,-1,14
 281 -50 281 -50 250 -50 c 128,-1,15
 219 -50 219 -50 209.5 -45.5 c 128,-1,8
 200 -41 200 -41 200 -25 c 128,-1,9
200 75 m 128,-1,17
 200 91 200 91 209.5 95.5 c 128,-1,18
 219 100 219 100 250 100 c 128,-1,19
 281 100 281 100 290.5 95.5 c 128,-1,20
 300 91 300 91 300 75 c 128,-1,21
 300 59 300 59 290.5 54.5 c 128,-1,22
 281 50 281 50 250 50 c 128,-1,23
 219 50 219 50 209.5 54.5 c 128,-1,16
 200 59 200 59 200 75 c 128,-1,17
200 175 m 128,-1,25
 200 191 200 191 209.5 195.5 c 128,-1,26
 219 200 219 200 250 200 c 128,-1,27
 281 200 281 200 290.5 195.5 c 128,-1,28
 300 191 300 191 300 175 c 128,-1,29
 300 159 300 159 290.5 154.5 c 128,-1,30
 281 150 281 150 250 150 c 128,-1,31
 219 150 219 150 209.5 154.5 c 128,-1,24
 200 159 200 159 200 175 c 128,-1,25
100 275 m 0,32,33
 100 291 100 291 115 295 c 0,34,35
 134 300 134 300 250 300 c 0,36,37
 379 300 379 300 393 291 c 0,38,39
 400 287 400 287 400 275 c 0,40,41
 400 259 400 259 385 255 c 0,42,43
 366 250 366 250 250 250 c 0,44,45
 121 250 121 250 107 259 c 0,46,47
 100 263 100 263 100 275 c 0,32,33
50 375 m 128,-1,49
 50 392 50 392 66 396 c 128,-1,50
 82 400 82 400 150 400 c 128,-1,51
 218 400 218 400 234 396 c 128,-1,52
 250 392 250 392 250 375 c 128,-1,53
 250 358 250 358 234 354 c 128,-1,54
 218 350 218 350 150 350 c 128,-1,55
 82 350 82 350 66 354 c 128,-1,48
 50 358 50 358 50 375 c 128,-1,49
50 475 m 128,-1,57
 50 492 50 492 66 496 c 128,-1,58
 82 500 82 500 150 500 c 128,-1,59
 218 500 218 500 234 496 c 128,-1,60
 250 492 250 492 250 475 c 128,-1,61
 250 458 250 458 234 454 c 128,-1,62
 218 450 218 450 150 450 c 128,-1,63
 82 450 82 450 66 454 c 128,-1,56
 50 458 50 458 50 475 c 128,-1,57
200 575 m 128,-1,65
 200 591 200 591 209.5 595.5 c 128,-1,66
 219 600 219 600 250 600 c 128,-1,67
 281 600 281 600 290.5 595.5 c 128,-1,68
 300 591 300 591 300 575 c 128,-1,69
 300 559 300 559 290.5 554.5 c 128,-1,70
 281 550 281 550 250 550 c 128,-1,71
 219 550 219 550 209.5 554.5 c 128,-1,64
 200 559 200 559 200 575 c 128,-1,65
0 575 m 128,-1,73
 0 591 0 591 9.5 595.5 c 128,-1,74
 19 600 19 600 50 600 c 128,-1,75
 81 600 81 600 90.5 595.5 c 128,-1,76
 100 591 100 591 100 575 c 128,-1,77
 100 559 100 559 90.5 554.5 c 128,-1,78
 81 550 81 550 50 550 c 128,-1,79
 19 550 19 550 9.5 554.5 c 128,-1,72
 0 559 0 559 0 575 c 128,-1,73
200 675 m 128,-1,81
 200 691 200 691 209.5 695.5 c 128,-1,82
 219 700 219 700 250 700 c 128,-1,83
 281 700 281 700 290.5 695.5 c 128,-1,84
 300 691 300 691 300 675 c 128,-1,85
 300 659 300 659 290.5 654.5 c 128,-1,86
 281 650 281 650 250 650 c 128,-1,87
 219 650 219 650 209.5 654.5 c 128,-1,80
 200 659 200 659 200 675 c 128,-1,81
0 675 m 128,-1,89
 0 691 0 691 9.5 695.5 c 128,-1,90
 19 700 19 700 50 700 c 128,-1,91
 81 700 81 700 90.5 695.5 c 128,-1,92
 100 691 100 691 100 675 c 128,-1,93
 100 659 100 659 90.5 654.5 c 128,-1,94
 81 650 81 650 50 650 c 128,-1,95
 19 650 19 650 9.5 654.5 c 128,-1,88
 0 659 0 659 0 675 c 128,-1,89
EndSplineSet
Validated: 1
EndChar

StartChar: uni000B
Encoding: 11 11 13
Width: 500
Flags: W
LayerCount: 2
Fore
SplineSet
0 375 m 128,-1,1
 0 384 0 384 2.5 388.5 c 128,-1,2
 5 393 5 393 19.5 396 c 128,-1,3
 34 399 34 399 56 399.5 c 128,-1,4
 78 400 78 400 125 400 c 128,-1,5
 172 400 172 400 194 399.5 c 128,-1,6
 216 399 216 399 230.5 396 c 128,-1,7
 245 393 245 393 247.5 388.5 c 128,-1,8
 250 384 250 384 250 375 c 128,-1,9
 250 366 250 366 247.5 361.5 c 128,-1,10
 245 357 245 357 230.5 354 c 128,-1,11
 216 351 216 351 194 350.5 c 128,-1,12
 172 350 172 350 125 350 c 128,-1,13
 78 350 78 350 56 350.5 c 128,-1,14
 34 351 34 351 19.5 354 c 128,-1,15
 5 357 5 357 2.5 361.5 c 128,-1,0
 0 366 0 366 0 375 c 128,-1,1
150 475 m 128,-1,17
 150 491 150 491 159.5 495.5 c 128,-1,18
 169 500 169 500 200 500 c 128,-1,19
 231 500 231 500 240.5 495.5 c 128,-1,20
 250 491 250 491 250 475 c 128,-1,21
 250 459 250 459 240.5 454.5 c 128,-1,22
 231 450 231 450 200 450 c 128,-1,23
 169 450 169 450 159.5 454.5 c 128,-1,16
 150 459 150 459 150 475 c 128,-1,17
150 575 m 128,-1,25
 150 591 150 591 159.5 595.5 c 128,-1,26
 169 600 169 600 200 600 c 128,-1,27
 231 600 231 600 240.5 595.5 c 128,-1,28
 250 591 250 591 250 575 c 128,-1,29
 250 559 250 559 240.5 554.5 c 128,-1,30
 231 550 231 550 200 550 c 128,-1,31
 169 550 169 550 159.5 554.5 c 128,-1,24
 150 559 150 559 150 575 c 128,-1,25
150 675 m 128,-1,33
 150 691 150 691 159.5 695.5 c 128,-1,34
 169 700 169 700 200 700 c 128,-1,35
 231 700 231 700 240.5 695.5 c 128,-1,36
 250 691 250 691 250 675 c 128,-1,37
 250 659 250 659 240.5 654.5 c 128,-1,38
 231 650 231 650 200 650 c 128,-1,39
 169 650 169 650 159.5 654.5 c 128,-1,32
 150 659 150 659 150 675 c 128,-1,33
150 775 m 128,-1,41
 150 791 150 791 159.5 795.5 c 128,-1,42
 169 800 169 800 200 800 c 128,-1,43
 231 800 231 800 240.5 795.5 c 128,-1,44
 250 791 250 791 250 775 c 128,-1,45
 250 759 250 759 240.5 754.5 c 128,-1,46
 231 750 231 750 200 750 c 128,-1,47
 169 750 169 750 159.5 754.5 c 128,-1,40
 150 759 150 759 150 775 c 128,-1,41
EndSplineSet
Validated: 1
EndChar

StartChar: uni000C
Encoding: 12 12 14
Width: 500
Flags: W
LayerCount: 2
Fore
SplineSet
150 -125 m 128,-1,1
 150 -109 150 -109 159.5 -104.5 c 128,-1,2
 169 -100 169 -100 200 -100 c 128,-1,3
 231 -100 231 -100 240.5 -104.5 c 128,-1,4
 250 -109 250 -109 250 -125 c 128,-1,5
 250 -141 250 -141 240.5 -145.5 c 128,-1,6
 231 -150 231 -150 200 -150 c 128,-1,7
 169 -150 169 -150 159.5 -145.5 c 128,-1,0
 150 -141 150 -141 150 -125 c 128,-1,1
150 -25 m 128,-1,9
 150 -9 150 -9 159.5 -4.5 c 128,-1,10
 169 0 169 0 200 0 c 128,-1,11
 231 0 231 0 240.5 -4.5 c 128,-1,12
 250 -9 250 -9 250 -25 c 128,-1,13
 250 -41 250 -41 240.5 -45.5 c 128,-1,14
 231 -50 231 -50 200 -50 c 128,-1,15
 169 -50 169 -50 159.5 -45.5 c 128,-1,8
 150 -41 150 -41 150 -25 c 128,-1,9
150 75 m 128,-1,17
 150 91 150 91 159.5 95.5 c 128,-1,18
 169 100 169 100 200 100 c 128,-1,19
 231 100 231 100 240.5 95.5 c 128,-1,20
 250 91 250 91 250 75 c 128,-1,21
 250 59 250 59 240.5 54.5 c 128,-1,22
 231 50 231 50 200 50 c 128,-1,23
 169 50 169 50 159.5 54.5 c 128,-1,16
 150 59 150 59 150 75 c 128,-1,17
150 175 m 128,-1,25
 150 191 150 191 159.5 195.5 c 128,-1,26
 169 200 169 200 200 200 c 128,-1,27
 231 200 231 200 240.5 195.5 c 128,-1,28
 250 191 250 191 250 175 c 128,-1,29
 250 159 250 159 240.5 154.5 c 128,-1,30
 231 150 231 150 200 150 c 128,-1,31
 169 150 169 150 159.5 154.5 c 128,-1,24
 150 159 150 159 150 175 c 128,-1,25
150 275 m 128,-1,33
 150 291 150 291 159.5 295.5 c 128,-1,34
 169 300 169 300 200 300 c 128,-1,35
 231 300 231 300 240.5 295.5 c 128,-1,36
 250 291 250 291 250 275 c 128,-1,37
 250 259 250 259 240.5 254.5 c 128,-1,38
 231 250 231 250 200 250 c 128,-1,39
 169 250 169 250 159.5 254.5 c 128,-1,32
 150 259 150 259 150 275 c 128,-1,33
0 375 m 128,-1,41
 0 384 0 384 2.5 388.5 c 128,-1,42
 5 393 5 393 19.5 396 c 128,-1,43
 34 399 34 399 56 399.5 c 128,-1,44
 78 400 78 400 125 400 c 128,-1,45
 172 400 172 400 194 399.5 c 128,-1,46
 216 399 216 399 230.5 396 c 128,-1,47
 245 393 245 393 247.5 388.5 c 128,-1,48
 250 384 250 384 250 375 c 128,-1,49
 250 366 250 366 247.5 361.5 c 128,-1,50
 245 357 245 357 230.5 354 c 128,-1,51
 216 351 216 351 194 350.5 c 128,-1,52
 172 350 172 350 125 350 c 128,-1,53
 78 350 78 350 56 350.5 c 128,-1,54
 34 351 34 351 19.5 354 c 128,-1,55
 5 357 5 357 2.5 361.5 c 128,-1,40
 0 366 0 366 0 375 c 128,-1,41
EndSplineSet
Validated: 1
EndChar

StartChar: uni000E
Encoding: 14 14 15
Width: 500
Flags: W
LayerCount: 2
Fore
SplineSet
150 375 m 128,-1,1
 150 384 150 384 152.5 388.5 c 128,-1,2
 155 393 155 393 169.5 396 c 128,-1,3
 184 399 184 399 206 399.5 c 128,-1,4
 228 400 228 400 275 400 c 128,-1,5
 322 400 322 400 344 399.5 c 128,-1,6
 366 399 366 399 380.5 396 c 128,-1,7
 395 393 395 393 397.5 388.5 c 128,-1,8
 400 384 400 384 400 375 c 128,-1,9
 400 366 400 366 397.5 361.5 c 128,-1,10
 395 357 395 357 380.5 354 c 128,-1,11
 366 351 366 351 344 350.5 c 128,-1,12
 322 350 322 350 275 350 c 128,-1,13
 228 350 228 350 206 350.5 c 128,-1,14
 184 351 184 351 169.5 354 c 128,-1,15
 155 357 155 357 152.5 361.5 c 128,-1,0
 150 366 150 366 150 375 c 128,-1,1
150 475 m 128,-1,17
 150 491 150 491 159.5 495.5 c 128,-1,18
 169 500 169 500 200 500 c 128,-1,19
 231 500 231 500 240.5 495.5 c 128,-1,20
 250 491 250 491 250 475 c 128,-1,21
 250 459 250 459 240.5 454.5 c 128,-1,22
 231 450 231 450 200 450 c 128,-1,23
 169 450 169 450 159.5 454.5 c 128,-1,16
 150 459 150 459 150 475 c 128,-1,17
150 575 m 128,-1,25
 150 591 150 591 159.5 595.5 c 128,-1,26
 169 600 169 600 200 600 c 128,-1,27
 231 600 231 600 240.5 595.5 c 128,-1,28
 250 591 250 591 250 575 c 128,-1,29
 250 559 250 559 240.5 554.5 c 128,-1,30
 231 550 231 550 200 550 c 128,-1,31
 169 550 169 550 159.5 554.5 c 128,-1,24
 150 559 150 559 150 575 c 128,-1,25
150 675 m 128,-1,33
 150 691 150 691 159.5 695.5 c 128,-1,34
 169 700 169 700 200 700 c 128,-1,35
 231 700 231 700 240.5 695.5 c 128,-1,36
 250 691 250 691 250 675 c 128,-1,37
 250 659 250 659 240.5 654.5 c 128,-1,38
 231 650 231 650 200 650 c 128,-1,39
 169 650 169 650 159.5 654.5 c 128,-1,32
 150 659 150 659 150 675 c 128,-1,33
150 775 m 128,-1,41
 150 791 150 791 159.5 795.5 c 128,-1,42
 169 800 169 800 200 800 c 128,-1,43
 231 800 231 800 240.5 795.5 c 128,-1,44
 250 791 250 791 250 775 c 128,-1,45
 250 759 250 759 240.5 754.5 c 128,-1,46
 231 750 231 750 200 750 c 128,-1,47
 169 750 169 750 159.5 754.5 c 128,-1,40
 150 759 150 759 150 775 c 128,-1,41
EndSplineSet
Validated: 1
EndChar

StartChar: uni000F
Encoding: 15 15 16
Width: 500
Flags: W
LayerCount: 2
Fore
SplineSet
150 -125 m 128,-1,1
 150 -109 150 -109 159.5 -104.5 c 128,-1,2
 169 -100 169 -100 200 -100 c 128,-1,3
 231 -100 231 -100 240.5 -104.5 c 128,-1,4
 250 -109 250 -109 250 -125 c 128,-1,5
 250 -141 250 -141 240.5 -145.5 c 128,-1,6
 231 -150 231 -150 200 -150 c 128,-1,7
 169 -150 169 -150 159.5 -145.5 c 128,-1,0
 150 -141 150 -141 150 -125 c 128,-1,1
150 -25 m 128,-1,9
 150 -9 150 -9 159.5 -4.5 c 128,-1,10
 169 0 169 0 200 0 c 128,-1,11
 231 0 231 0 240.5 -4.5 c 128,-1,12
 250 -9 250 -9 250 -25 c 128,-1,13
 250 -41 250 -41 240.5 -45.5 c 128,-1,14
 231 -50 231 -50 200 -50 c 128,-1,15
 169 -50 169 -50 159.5 -45.5 c 128,-1,8
 150 -41 150 -41 150 -25 c 128,-1,9
150 75 m 128,-1,17
 150 91 150 91 159.5 95.5 c 128,-1,18
 169 100 169 100 200 100 c 128,-1,19
 231 100 231 100 240.5 95.5 c 128,-1,20
 250 91 250 91 250 75 c 128,-1,21
 250 59 250 59 240.5 54.5 c 128,-1,22
 231 50 231 50 200 50 c 128,-1,23
 169 50 169 50 159.5 54.5 c 128,-1,16
 150 59 150 59 150 75 c 128,-1,17
150 175 m 128,-1,25
 150 191 150 191 159.5 195.5 c 128,-1,26
 169 200 169 200 200 200 c 128,-1,27
 231 200 231 200 240.5 195.5 c 128,-1,28
 250 191 250 191 250 175 c 128,-1,29
 250 159 250 159 240.5 154.5 c 128,-1,30
 231 150 231 150 200 150 c 128,-1,31
 169 150 169 150 159.5 154.5 c 128,-1,24
 150 159 150 159 150 175 c 128,-1,25
150 275 m 128,-1,33
 150 291 150 291 159.5 295.5 c 128,-1,34
 169 300 169 300 200 300 c 128,-1,35
 231 300 231 300 240.5 295.5 c 128,-1,36
 250 291 250 291 250 275 c 128,-1,37
 250 259 250 259 240.5 254.5 c 128,-1,38
 231 250 231 250 200 250 c 128,-1,39
 169 250 169 250 159.5 254.5 c 128,-1,32
 150 259 150 259 150 275 c 128,-1,33
0 375 m 0,40,41
 0 390 0 390 15 394 c 0,42,43
 39 400 39 400 200 400 c 0,44,45
 373 400 373 400 391 391 c 0,46,47
 400 387 400 387 400 375 c 0,48,49
 400 360 400 360 385 356 c 0,50,51
 361 350 361 350 200 350 c 0,52,53
 27 350 27 350 9 359 c 0,54,55
 0 363 0 363 0 375 c 0,40,41
150 475 m 128,-1,57
 150 491 150 491 159.5 495.5 c 128,-1,58
 169 500 169 500 200 500 c 128,-1,59
 231 500 231 500 240.5 495.5 c 128,-1,60
 250 491 250 491 250 475 c 128,-1,61
 250 459 250 459 240.5 454.5 c 128,-1,62
 231 450 231 450 200 450 c 128,-1,63
 169 450 169 450 159.5 454.5 c 128,-1,56
 150 459 150 459 150 475 c 128,-1,57
150 575 m 128,-1,65
 150 591 150 591 159.5 595.5 c 128,-1,66
 169 600 169 600 200 600 c 128,-1,67
 231 600 231 600 240.5 595.5 c 128,-1,68
 250 591 250 591 250 575 c 128,-1,69
 250 559 250 559 240.5 554.5 c 128,-1,70
 231 550 231 550 200 550 c 128,-1,71
 169 550 169 550 159.5 554.5 c 128,-1,64
 150 559 150 559 150 575 c 128,-1,65
150 675 m 128,-1,73
 150 691 150 691 159.5 695.5 c 128,-1,74
 169 700 169 700 200 700 c 128,-1,75
 231 700 231 700 240.5 695.5 c 128,-1,76
 250 691 250 691 250 675 c 128,-1,77
 250 659 250 659 240.5 654.5 c 128,-1,78
 231 650 231 650 200 650 c 128,-1,79
 169 650 169 650 159.5 654.5 c 128,-1,72
 150 659 150 659 150 675 c 128,-1,73
150 775 m 128,-1,81
 150 791 150 791 159.5 795.5 c 128,-1,82
 169 800 169 800 200 800 c 128,-1,83
 231 800 231 800 240.5 795.5 c 128,-1,84
 250 791 250 791 250 775 c 128,-1,85
 250 759 250 759 240.5 754.5 c 128,-1,86
 231 750 231 750 200 750 c 128,-1,87
 169 750 169 750 159.5 754.5 c 128,-1,80
 150 759 150 759 150 775 c 128,-1,81
EndSplineSet
Validated: 1
EndChar

StartChar: uni0010
Encoding: 16 16 17
Width: 500
Flags: W
LayerCount: 2
Fore
SplineSet
0 775 m 0,0,1
 0 790 0 790 15 794 c 0,2,3
 39 800 39 800 200 800 c 0,4,5
 373 800 373 800 391 791 c 0,6,7
 400 787 400 787 400 775 c 0,8,9
 400 760 400 760 385 756 c 0,10,11
 361 750 361 750 200 750 c 0,12,13
 27 750 27 750 9 759 c 0,14,15
 0 763 0 763 0 775 c 0,0,1
EndSplineSet
Validated: 1
EndChar

StartChar: uni0011
Encoding: 17 17 18
Width: 500
Flags: W
LayerCount: 2
Fore
SplineSet
0 575 m 0,0,1
 0 590 0 590 15 594 c 0,2,3
 39 600 39 600 200 600 c 0,4,5
 373 600 373 600 391 591 c 0,6,7
 400 587 400 587 400 575 c 0,8,9
 400 560 400 560 385 556 c 0,10,11
 361 550 361 550 200 550 c 0,12,13
 27 550 27 550 9 559 c 0,14,15
 0 563 0 563 0 575 c 0,0,1
EndSplineSet
Validated: 1
EndChar

StartChar: uni0012
Encoding: 18 18 19
Width: 500
Flags: W
LayerCount: 2
Fore
SplineSet
0 375 m 0,0,1
 0 390 0 390 15 394 c 0,2,3
 39 400 39 400 200 400 c 0,4,5
 373 400 373 400 391 391 c 0,6,7
 400 387 400 387 400 375 c 0,8,9
 400 360 400 360 385 356 c 0,10,11
 361 350 361 350 200 350 c 0,12,13
 27 350 27 350 9 359 c 0,14,15
 0 363 0 363 0 375 c 0,0,1
EndSplineSet
Validated: 1
EndChar

StartChar: uni0013
Encoding: 19 19 20
Width: 500
Flags: W
LayerCount: 2
Fore
SplineSet
0 175 m 0,0,1
 0 190 0 190 15 194 c 0,2,3
 39 200 39 200 200 200 c 0,4,5
 373 200 373 200 391 191 c 0,6,7
 400 187 400 187 400 175 c 0,8,9
 400 160 400 160 385 156 c 0,10,11
 361 150 361 150 200 150 c 0,12,13
 27 150 27 150 9 159 c 0,14,15
 0 163 0 163 0 175 c 0,0,1
EndSplineSet
Validated: 1
EndChar

StartChar: uni0014
Encoding: 20 20 21
Width: 500
Flags: W
LayerCount: 2
Fore
SplineSet
0 -25 m 0,0,1
 0 -10 0 -10 15 -6 c 0,2,3
 39 0 39 0 200 0 c 0,4,5
 373 0 373 0 391 -9 c 0,6,7
 400 -13 400 -13 400 -25 c 0,8,9
 400 -40 400 -40 385 -44 c 0,10,11
 361 -50 361 -50 200 -50 c 0,12,13
 27 -50 27 -50 9 -41 c 0,14,15
 0 -37 0 -37 0 -25 c 0,0,1
EndSplineSet
Validated: 1
EndChar

StartChar: uni0015
Encoding: 21 21 22
Width: 500
Flags: W
LayerCount: 2
Fore
SplineSet
150 -125 m 128,-1,1
 150 -109 150 -109 159.5 -104.5 c 128,-1,2
 169 -100 169 -100 200 -100 c 128,-1,3
 231 -100 231 -100 240.5 -104.5 c 128,-1,4
 250 -109 250 -109 250 -125 c 128,-1,5
 250 -141 250 -141 240.5 -145.5 c 128,-1,6
 231 -150 231 -150 200 -150 c 128,-1,7
 169 -150 169 -150 159.5 -145.5 c 128,-1,0
 150 -141 150 -141 150 -125 c 128,-1,1
150 -25 m 128,-1,9
 150 -9 150 -9 159.5 -4.5 c 128,-1,10
 169 0 169 0 200 0 c 128,-1,11
 231 0 231 0 240.5 -4.5 c 128,-1,12
 250 -9 250 -9 250 -25 c 128,-1,13
 250 -41 250 -41 240.5 -45.5 c 128,-1,14
 231 -50 231 -50 200 -50 c 128,-1,15
 169 -50 169 -50 159.5 -45.5 c 128,-1,8
 150 -41 150 -41 150 -25 c 128,-1,9
150 75 m 128,-1,17
 150 91 150 91 159.5 95.5 c 128,-1,18
 169 100 169 100 200 100 c 128,-1,19
 231 100 231 100 240.5 95.5 c 128,-1,20
 250 91 250 91 250 75 c 128,-1,21
 250 59 250 59 240.5 54.5 c 128,-1,22
 231 50 231 50 200 50 c 128,-1,23
 169 50 169 50 159.5 54.5 c 128,-1,16
 150 59 150 59 150 75 c 128,-1,17
150 175 m 128,-1,25
 150 191 150 191 159.5 195.5 c 128,-1,26
 169 200 169 200 200 200 c 128,-1,27
 231 200 231 200 240.5 195.5 c 128,-1,28
 250 191 250 191 250 175 c 128,-1,29
 250 159 250 159 240.5 154.5 c 128,-1,30
 231 150 231 150 200 150 c 128,-1,31
 169 150 169 150 159.5 154.5 c 128,-1,24
 150 159 150 159 150 175 c 128,-1,25
150 275 m 128,-1,33
 150 291 150 291 159.5 295.5 c 128,-1,34
 169 300 169 300 200 300 c 128,-1,35
 231 300 231 300 240.5 295.5 c 128,-1,36
 250 291 250 291 250 275 c 128,-1,37
 250 259 250 259 240.5 254.5 c 128,-1,38
 231 250 231 250 200 250 c 128,-1,39
 169 250 169 250 159.5 254.5 c 128,-1,32
 150 259 150 259 150 275 c 128,-1,33
150 375 m 128,-1,41
 150 384 150 384 152.5 388.5 c 128,-1,42
 155 393 155 393 169.5 396 c 128,-1,43
 184 399 184 399 206 399.5 c 128,-1,44
 228 400 228 400 275 400 c 128,-1,45
 322 400 322 400 344 399.5 c 128,-1,46
 366 399 366 399 380.5 396 c 128,-1,47
 395 393 395 393 397.5 388.5 c 128,-1,48
 400 384 400 384 400 375 c 128,-1,49
 400 366 400 366 397.5 361.5 c 128,-1,50
 395 357 395 357 380.5 354 c 128,-1,51
 366 351 366 351 344 350.5 c 128,-1,52
 322 350 322 350 275 350 c 128,-1,53
 228 350 228 350 206 350.5 c 128,-1,54
 184 351 184 351 169.5 354 c 128,-1,55
 155 357 155 357 152.5 361.5 c 128,-1,40
 150 366 150 366 150 375 c 128,-1,41
150 475 m 128,-1,57
 150 491 150 491 159.5 495.5 c 128,-1,58
 169 500 169 500 200 500 c 128,-1,59
 231 500 231 500 240.5 495.5 c 128,-1,60
 250 491 250 491 250 475 c 128,-1,61
 250 459 250 459 240.5 454.5 c 128,-1,62
 231 450 231 450 200 450 c 128,-1,63
 169 450 169 450 159.5 454.5 c 128,-1,56
 150 459 150 459 150 475 c 128,-1,57
150 575 m 128,-1,65
 150 591 150 591 159.5 595.5 c 128,-1,66
 169 600 169 600 200 600 c 128,-1,67
 231 600 231 600 240.5 595.5 c 128,-1,68
 250 591 250 591 250 575 c 128,-1,69
 250 559 250 559 240.5 554.5 c 128,-1,70
 231 550 231 550 200 550 c 128,-1,71
 169 550 169 550 159.5 554.5 c 128,-1,64
 150 559 150 559 150 575 c 128,-1,65
150 675 m 132,-1,73
 150 691 150 691 159.5 695.5 c 132,-1,74
 169 700 169 700 200 700 c 132,-1,75
 231 700 231 700 240.5 695.5 c 132,-1,76
 250 691 250 691 250 675 c 132,-1,77
 250 659 250 659 240.5 654.5 c 132,-1,78
 231 650 231 650 200 650 c 132,-1,79
 169 650 169 650 159.5 654.5 c 132,-1,72
 150 659 150 659 150 675 c 132,-1,73
150 775 m 128,-1,81
 150 791 150 791 159.5 795.5 c 128,-1,82
 169 800 169 800 200 800 c 128,-1,83
 231 800 231 800 240.5 795.5 c 128,-1,84
 250 791 250 791 250 775 c 128,-1,85
 250 759 250 759 240.5 754.5 c 128,-1,86
 231 750 231 750 200 750 c 128,-1,87
 169 750 169 750 159.5 754.5 c 128,-1,80
 150 759 150 759 150 775 c 128,-1,81
EndSplineSet
Validated: 1
EndChar

StartChar: uni0016
Encoding: 22 22 23
Width: 500
Flags: W
LayerCount: 2
Fore
SplineSet
150 -125 m 128,-1,1
 150 -109 150 -109 159.5 -104.5 c 128,-1,2
 169 -100 169 -100 200 -100 c 128,-1,3
 231 -100 231 -100 240.5 -104.5 c 128,-1,4
 250 -109 250 -109 250 -125 c 128,-1,5
 250 -141 250 -141 240.5 -145.5 c 128,-1,6
 231 -150 231 -150 200 -150 c 128,-1,7
 169 -150 169 -150 159.5 -145.5 c 128,-1,0
 150 -141 150 -141 150 -125 c 128,-1,1
150 -25 m 128,-1,9
 150 -9 150 -9 159.5 -4.5 c 128,-1,10
 169 0 169 0 200 0 c 128,-1,11
 231 0 231 0 240.5 -4.5 c 128,-1,12
 250 -9 250 -9 250 -25 c 128,-1,13
 250 -41 250 -41 240.5 -45.5 c 128,-1,14
 231 -50 231 -50 200 -50 c 128,-1,15
 169 -50 169 -50 159.5 -45.5 c 128,-1,8
 150 -41 150 -41 150 -25 c 128,-1,9
150 75 m 128,-1,17
 150 91 150 91 159.5 95.5 c 128,-1,18
 169 100 169 100 200 100 c 128,-1,19
 231 100 231 100 240.5 95.5 c 128,-1,20
 250 91 250 91 250 75 c 128,-1,21
 250 59 250 59 240.5 54.5 c 128,-1,22
 231 50 231 50 200 50 c 128,-1,23
 169 50 169 50 159.5 54.5 c 128,-1,16
 150 59 150 59 150 75 c 128,-1,17
150 175 m 128,-1,25
 150 191 150 191 159.5 195.5 c 128,-1,26
 169 200 169 200 200 200 c 128,-1,27
 231 200 231 200 240.5 195.5 c 128,-1,28
 250 191 250 191 250 175 c 128,-1,29
 250 159 250 159 240.5 154.5 c 128,-1,30
 231 150 231 150 200 150 c 128,-1,31
 169 150 169 150 159.5 154.5 c 128,-1,24
 150 159 150 159 150 175 c 128,-1,25
150 275 m 128,-1,33
 150 291 150 291 159.5 295.5 c 128,-1,34
 169 300 169 300 200 300 c 128,-1,35
 231 300 231 300 240.5 295.5 c 128,-1,36
 250 291 250 291 250 275 c 128,-1,37
 250 259 250 259 240.5 254.5 c 128,-1,38
 231 250 231 250 200 250 c 128,-1,39
 169 250 169 250 159.5 254.5 c 128,-1,32
 150 259 150 259 150 275 c 128,-1,33
0 375 m 128,-1,41
 0 384 0 384 2.5 388.5 c 128,-1,42
 5 393 5 393 19.5 396 c 128,-1,43
 34 399 34 399 56 399.5 c 128,-1,44
 78 400 78 400 125 400 c 128,-1,45
 172 400 172 400 194 399.5 c 128,-1,46
 216 399 216 399 230.5 396 c 128,-1,47
 245 393 245 393 247.5 388.5 c 128,-1,48
 250 384 250 384 250 375 c 128,-1,49
 250 366 250 366 247.5 361.5 c 128,-1,50
 245 357 245 357 230.5 354 c 128,-1,51
 216 351 216 351 194 350.5 c 128,-1,52
 172 350 172 350 125 350 c 128,-1,53
 78 350 78 350 56 350.5 c 128,-1,54
 34 351 34 351 19.5 354 c 128,-1,55
 5 357 5 357 2.5 361.5 c 128,-1,40
 0 366 0 366 0 375 c 128,-1,41
150 475 m 128,-1,57
 150 491 150 491 159.5 495.5 c 128,-1,58
 169 500 169 500 200 500 c 128,-1,59
 231 500 231 500 240.5 495.5 c 128,-1,60
 250 491 250 491 250 475 c 128,-1,61
 250 459 250 459 240.5 454.5 c 128,-1,62
 231 450 231 450 200 450 c 128,-1,63
 169 450 169 450 159.5 454.5 c 128,-1,56
 150 459 150 459 150 475 c 128,-1,57
150 575 m 128,-1,65
 150 591 150 591 159.5 595.5 c 128,-1,66
 169 600 169 600 200 600 c 128,-1,67
 231 600 231 600 240.5 595.5 c 128,-1,68
 250 591 250 591 250 575 c 128,-1,69
 250 559 250 559 240.5 554.5 c 128,-1,70
 231 550 231 550 200 550 c 128,-1,71
 169 550 169 550 159.5 554.5 c 128,-1,64
 150 559 150 559 150 575 c 128,-1,65
150 675 m 128,-1,73
 150 691 150 691 159.5 695.5 c 128,-1,74
 169 700 169 700 200 700 c 128,-1,75
 231 700 231 700 240.5 695.5 c 128,-1,76
 250 691 250 691 250 675 c 128,-1,77
 250 659 250 659 240.5 654.5 c 128,-1,78
 231 650 231 650 200 650 c 128,-1,79
 169 650 169 650 159.5 654.5 c 128,-1,72
 150 659 150 659 150 675 c 128,-1,73
150 775 m 128,-1,81
 150 791 150 791 159.5 795.5 c 128,-1,82
 169 800 169 800 200 800 c 128,-1,83
 231 800 231 800 240.5 795.5 c 128,-1,84
 250 791 250 791 250 775 c 128,-1,85
 250 759 250 759 240.5 754.5 c 128,-1,86
 231 750 231 750 200 750 c 128,-1,87
 169 750 169 750 159.5 754.5 c 128,-1,80
 150 759 150 759 150 775 c 128,-1,81
EndSplineSet
Validated: 1
EndChar

StartChar: uni0017
Encoding: 23 23 24
Width: 500
Flags: W
LayerCount: 2
Fore
SplineSet
0 375 m 0,0,1
 0 390 0 390 15 394 c 0,2,3
 39 400 39 400 200 400 c 0,4,5
 373 400 373 400 391 391 c 0,6,7
 400 387 400 387 400 375 c 0,8,9
 400 360 400 360 385 356 c 0,10,11
 361 350 361 350 200 350 c 0,12,13
 27 350 27 350 9 359 c 0,14,15
 0 363 0 363 0 375 c 0,0,1
150 475 m 128,-1,17
 150 491 150 491 159.5 495.5 c 128,-1,18
 169 500 169 500 200 500 c 128,-1,19
 231 500 231 500 240.5 495.5 c 128,-1,20
 250 491 250 491 250 475 c 128,-1,21
 250 459 250 459 240.5 454.5 c 128,-1,22
 231 450 231 450 200 450 c 128,-1,23
 169 450 169 450 159.5 454.5 c 128,-1,16
 150 459 150 459 150 475 c 128,-1,17
150 575 m 128,-1,25
 150 591 150 591 159.5 595.5 c 128,-1,26
 169 600 169 600 200 600 c 128,-1,27
 231 600 231 600 240.5 595.5 c 128,-1,28
 250 591 250 591 250 575 c 128,-1,29
 250 559 250 559 240.5 554.5 c 128,-1,30
 231 550 231 550 200 550 c 128,-1,31
 169 550 169 550 159.5 554.5 c 128,-1,24
 150 559 150 559 150 575 c 128,-1,25
150 675 m 128,-1,33
 150 691 150 691 159.5 695.5 c 128,-1,34
 169 700 169 700 200 700 c 128,-1,35
 231 700 231 700 240.5 695.5 c 128,-1,36
 250 691 250 691 250 675 c 128,-1,37
 250 659 250 659 240.5 654.5 c 128,-1,38
 231 650 231 650 200 650 c 128,-1,39
 169 650 169 650 159.5 654.5 c 128,-1,32
 150 659 150 659 150 675 c 128,-1,33
150 775 m 128,-1,41
 150 791 150 791 159.5 795.5 c 128,-1,42
 169 800 169 800 200 800 c 128,-1,43
 231 800 231 800 240.5 795.5 c 128,-1,44
 250 791 250 791 250 775 c 128,-1,45
 250 759 250 759 240.5 754.5 c 128,-1,46
 231 750 231 750 200 750 c 128,-1,47
 169 750 169 750 159.5 754.5 c 128,-1,40
 150 759 150 759 150 775 c 128,-1,41
EndSplineSet
Validated: 1
EndChar

StartChar: uni0018
Encoding: 24 24 25
Width: 500
Flags: W
LayerCount: 2
Fore
SplineSet
150 -125 m 128,-1,1
 150 -109 150 -109 159.5 -104.5 c 128,-1,2
 169 -100 169 -100 200 -100 c 128,-1,3
 231 -100 231 -100 240.5 -104.5 c 128,-1,4
 250 -109 250 -109 250 -125 c 128,-1,5
 250 -141 250 -141 240.5 -145.5 c 128,-1,6
 231 -150 231 -150 200 -150 c 128,-1,7
 169 -150 169 -150 159.5 -145.5 c 128,-1,0
 150 -141 150 -141 150 -125 c 128,-1,1
150 -25 m 128,-1,9
 150 -9 150 -9 159.5 -4.5 c 128,-1,10
 169 0 169 0 200 0 c 128,-1,11
 231 0 231 0 240.5 -4.5 c 128,-1,12
 250 -9 250 -9 250 -25 c 128,-1,13
 250 -41 250 -41 240.5 -45.5 c 128,-1,14
 231 -50 231 -50 200 -50 c 128,-1,15
 169 -50 169 -50 159.5 -45.5 c 128,-1,8
 150 -41 150 -41 150 -25 c 128,-1,9
150 75 m 128,-1,17
 150 91 150 91 159.5 95.5 c 128,-1,18
 169 100 169 100 200 100 c 128,-1,19
 231 100 231 100 240.5 95.5 c 128,-1,20
 250 91 250 91 250 75 c 128,-1,21
 250 59 250 59 240.5 54.5 c 128,-1,22
 231 50 231 50 200 50 c 128,-1,23
 169 50 169 50 159.5 54.5 c 128,-1,16
 150 59 150 59 150 75 c 128,-1,17
150 175 m 128,-1,25
 150 191 150 191 159.5 195.5 c 128,-1,26
 169 200 169 200 200 200 c 128,-1,27
 231 200 231 200 240.5 195.5 c 128,-1,28
 250 191 250 191 250 175 c 128,-1,29
 250 159 250 159 240.5 154.5 c 128,-1,30
 231 150 231 150 200 150 c 128,-1,31
 169 150 169 150 159.5 154.5 c 128,-1,24
 150 159 150 159 150 175 c 128,-1,25
150 275 m 128,-1,33
 150 291 150 291 159.5 295.5 c 128,-1,34
 169 300 169 300 200 300 c 128,-1,35
 231 300 231 300 240.5 295.5 c 128,-1,36
 250 291 250 291 250 275 c 128,-1,37
 250 259 250 259 240.5 254.5 c 128,-1,38
 231 250 231 250 200 250 c 128,-1,39
 169 250 169 250 159.5 254.5 c 128,-1,32
 150 259 150 259 150 275 c 128,-1,33
0 375 m 0,40,41
 0 390 0 390 15 394 c 0,42,43
 39 400 39 400 200 400 c 0,44,45
 373 400 373 400 391 391 c 0,46,47
 400 387 400 387 400 375 c 0,48,49
 400 360 400 360 385 356 c 0,50,51
 361 350 361 350 200 350 c 0,52,53
 27 350 27 350 9 359 c 0,54,55
 0 363 0 363 0 375 c 0,40,41
EndSplineSet
Validated: 1
EndChar

StartChar: uni0019
Encoding: 25 25 26
Width: 500
Flags: W
LayerCount: 2
Fore
SplineSet
150 -125 m 128,-1,1
 150 -109 150 -109 159.5 -104.5 c 128,-1,2
 169 -100 169 -100 200 -100 c 128,-1,3
 231 -100 231 -100 240.5 -104.5 c 128,-1,4
 250 -109 250 -109 250 -125 c 128,-1,5
 250 -141 250 -141 240.5 -145.5 c 128,-1,6
 231 -150 231 -150 200 -150 c 128,-1,7
 169 -150 169 -150 159.5 -145.5 c 128,-1,0
 150 -141 150 -141 150 -125 c 128,-1,1
150 -25 m 128,-1,9
 150 -9 150 -9 159.5 -4.5 c 128,-1,10
 169 0 169 0 200 0 c 128,-1,11
 231 0 231 0 240.5 -4.5 c 128,-1,12
 250 -9 250 -9 250 -25 c 128,-1,13
 250 -41 250 -41 240.5 -45.5 c 128,-1,14
 231 -50 231 -50 200 -50 c 128,-1,15
 169 -50 169 -50 159.5 -45.5 c 128,-1,8
 150 -41 150 -41 150 -25 c 128,-1,9
150 75 m 128,-1,17
 150 91 150 91 159.5 95.5 c 128,-1,18
 169 100 169 100 200 100 c 128,-1,19
 231 100 231 100 240.5 95.5 c 128,-1,20
 250 91 250 91 250 75 c 128,-1,21
 250 59 250 59 240.5 54.5 c 128,-1,22
 231 50 231 50 200 50 c 128,-1,23
 169 50 169 50 159.5 54.5 c 128,-1,16
 150 59 150 59 150 75 c 128,-1,17
150 175 m 128,-1,25
 150 191 150 191 159.5 195.5 c 128,-1,26
 169 200 169 200 200 200 c 128,-1,27
 231 200 231 200 240.5 195.5 c 128,-1,28
 250 191 250 191 250 175 c 128,-1,29
 250 159 250 159 240.5 154.5 c 128,-1,30
 231 150 231 150 200 150 c 128,-1,31
 169 150 169 150 159.5 154.5 c 128,-1,24
 150 159 150 159 150 175 c 128,-1,25
150 275 m 128,-1,33
 150 291 150 291 159.5 295.5 c 128,-1,34
 169 300 169 300 200 300 c 128,-1,35
 231 300 231 300 240.5 295.5 c 128,-1,36
 250 291 250 291 250 275 c 128,-1,37
 250 259 250 259 240.5 254.5 c 128,-1,38
 231 250 231 250 200 250 c 128,-1,39
 169 250 169 250 159.5 254.5 c 128,-1,32
 150 259 150 259 150 275 c 128,-1,33
150 375 m 128,-1,41
 150 391 150 391 159.5 395.5 c 128,-1,42
 169 400 169 400 200 400 c 128,-1,43
 231 400 231 400 240.5 395.5 c 128,-1,44
 250 391 250 391 250 375 c 128,-1,45
 250 359 250 359 240.5 354.5 c 128,-1,46
 231 350 231 350 200 350 c 128,-1,47
 169 350 169 350 159.5 354.5 c 128,-1,40
 150 359 150 359 150 375 c 128,-1,41
150 475 m 128,-1,49
 150 491 150 491 159.5 495.5 c 128,-1,50
 169 500 169 500 200 500 c 128,-1,51
 231 500 231 500 240.5 495.5 c 128,-1,52
 250 491 250 491 250 475 c 128,-1,53
 250 459 250 459 240.5 454.5 c 128,-1,54
 231 450 231 450 200 450 c 128,-1,55
 169 450 169 450 159.5 454.5 c 128,-1,48
 150 459 150 459 150 475 c 128,-1,49
150 575 m 128,-1,57
 150 591 150 591 159.5 595.5 c 128,-1,58
 169 600 169 600 200 600 c 128,-1,59
 231 600 231 600 240.5 595.5 c 128,-1,60
 250 591 250 591 250 575 c 128,-1,61
 250 559 250 559 240.5 554.5 c 128,-1,62
 231 550 231 550 200 550 c 128,-1,63
 169 550 169 550 159.5 554.5 c 128,-1,56
 150 559 150 559 150 575 c 128,-1,57
150 675 m 128,-1,65
 150 691 150 691 159.5 695.5 c 128,-1,66
 169 700 169 700 200 700 c 128,-1,67
 231 700 231 700 240.5 695.5 c 128,-1,68
 250 691 250 691 250 675 c 128,-1,69
 250 659 250 659 240.5 654.5 c 128,-1,70
 231 650 231 650 200 650 c 128,-1,71
 169 650 169 650 159.5 654.5 c 128,-1,64
 150 659 150 659 150 675 c 128,-1,65
150 775 m 132,-1,73
 150 791 150 791 159.5 795.5 c 132,-1,74
 169 800 169 800 200 800 c 132,-1,75
 231 800 231 800 240.5 795.5 c 132,-1,76
 250 791 250 791 250 775 c 132,-1,77
 250 759 250 759 240.5 754.5 c 132,-1,78
 231 750 231 750 200 750 c 132,-1,79
 169 750 169 750 159.5 754.5 c 132,-1,72
 150 759 150 759 150 775 c 132,-1,73
EndSplineSet
Validated: 1
EndChar

StartChar: uni001A
Encoding: 26 26 27
Width: 500
Flags: W
LayerCount: 2
Fore
SplineSet
0 -25 m 0,0,1
 0 -10 0 -10 15 -6 c 0,2,3
 39 0 39 0 200 0 c 0,4,5
 373 0 373 0 391 -9 c 0,6,7
 400 -13 400 -13 400 -25 c 0,8,9
 400 -40 400 -40 385 -44 c 0,10,11
 361 -50 361 -50 200 -50 c 0,12,13
 27 -50 27 -50 9 -41 c 0,14,15
 0 -37 0 -37 0 -25 c 0,0,1
300 75 m 128,-1,17
 300 91 300 91 309.5 95.5 c 128,-1,18
 319 100 319 100 350 100 c 128,-1,19
 381 100 381 100 390.5 95.5 c 128,-1,20
 400 91 400 91 400 75 c 128,-1,21
 400 59 400 59 390.5 54.5 c 128,-1,22
 381 50 381 50 350 50 c 128,-1,23
 319 50 319 50 309.5 54.5 c 128,-1,16
 300 59 300 59 300 75 c 128,-1,17
200 175 m 128,-1,25
 200 191 200 191 209.5 195.5 c 128,-1,26
 219 200 219 200 250 200 c 128,-1,27
 281 200 281 200 290.5 195.5 c 128,-1,28
 300 191 300 191 300 175 c 128,-1,29
 300 159 300 159 290.5 154.5 c 128,-1,30
 281 150 281 150 250 150 c 128,-1,31
 219 150 219 150 209.5 154.5 c 128,-1,24
 200 159 200 159 200 175 c 128,-1,25
100 275 m 128,-1,33
 100 291 100 291 109.5 295.5 c 128,-1,34
 119 300 119 300 150 300 c 128,-1,35
 181 300 181 300 190.5 295.5 c 128,-1,36
 200 291 200 291 200 275 c 128,-1,37
 200 259 200 259 190.5 254.5 c 128,-1,38
 181 250 181 250 150 250 c 128,-1,39
 119 250 119 250 109.5 254.5 c 128,-1,32
 100 259 100 259 100 275 c 128,-1,33
0 375 m 128,-1,41
 0 391 0 391 9.5 395.5 c 128,-1,42
 19 400 19 400 50 400 c 128,-1,43
 81 400 81 400 90.5 395.5 c 128,-1,44
 100 391 100 391 100 375 c 128,-1,45
 100 359 100 359 90.5 354.5 c 128,-1,46
 81 350 81 350 50 350 c 128,-1,47
 19 350 19 350 9.5 354.5 c 128,-1,40
 0 359 0 359 0 375 c 128,-1,41
100 475 m 128,-1,49
 100 491 100 491 109.5 495.5 c 128,-1,50
 119 500 119 500 150 500 c 128,-1,51
 181 500 181 500 190.5 495.5 c 128,-1,52
 200 491 200 491 200 475 c 128,-1,53
 200 459 200 459 190.5 454.5 c 128,-1,54
 181 450 181 450 150 450 c 128,-1,55
 119 450 119 450 109.5 454.5 c 128,-1,48
 100 459 100 459 100 475 c 128,-1,49
200 575 m 128,-1,57
 200 591 200 591 209.5 595.5 c 128,-1,58
 219 600 219 600 250 600 c 128,-1,59
 281 600 281 600 290.5 595.5 c 128,-1,60
 300 591 300 591 300 575 c 128,-1,61
 300 559 300 559 290.5 554.5 c 128,-1,62
 281 550 281 550 250 550 c 128,-1,63
 219 550 219 550 209.5 554.5 c 128,-1,56
 200 559 200 559 200 575 c 128,-1,57
300 675 m 128,-1,65
 300 691 300 691 309.5 695.5 c 128,-1,66
 319 700 319 700 350 700 c 128,-1,67
 381 700 381 700 390.5 695.5 c 128,-1,68
 400 691 400 691 400 675 c 128,-1,69
 400 659 400 659 390.5 654.5 c 128,-1,70
 381 650 381 650 350 650 c 128,-1,71
 319 650 319 650 309.5 654.5 c 128,-1,64
 300 659 300 659 300 675 c 128,-1,65
EndSplineSet
Validated: 1
EndChar

StartChar: uni001B
Encoding: 27 27 28
Width: 500
Flags: W
LayerCount: 2
Fore
SplineSet
0 -25 m 0,0,1
 0 -10 0 -10 15 -6 c 0,2,3
 39 0 39 0 200 0 c 0,4,5
 373 0 373 0 391 -9 c 0,6,7
 400 -13 400 -13 400 -25 c 0,8,9
 400 -40 400 -40 385 -44 c 0,10,11
 361 -50 361 -50 200 -50 c 0,12,13
 27 -50 27 -50 9 -41 c 0,14,15
 0 -37 0 -37 0 -25 c 0,0,1
0 75 m 128,-1,17
 0 91 0 91 9.5 95.5 c 128,-1,18
 19 100 19 100 50 100 c 128,-1,19
 81 100 81 100 90.5 95.5 c 128,-1,20
 100 91 100 91 100 75 c 128,-1,21
 100 59 100 59 90.5 54.5 c 128,-1,22
 81 50 81 50 50 50 c 128,-1,23
 19 50 19 50 9.5 54.5 c 128,-1,16
 0 59 0 59 0 75 c 128,-1,17
100 175 m 128,-1,25
 100 191 100 191 109.5 195.5 c 128,-1,26
 119 200 119 200 150 200 c 128,-1,27
 181 200 181 200 190.5 195.5 c 128,-1,28
 200 191 200 191 200 175 c 128,-1,29
 200 159 200 159 190.5 154.5 c 128,-1,30
 181 150 181 150 150 150 c 128,-1,31
 119 150 119 150 109.5 154.5 c 128,-1,24
 100 159 100 159 100 175 c 128,-1,25
200 275 m 128,-1,33
 200 291 200 291 209.5 295.5 c 128,-1,34
 219 300 219 300 250 300 c 128,-1,35
 281 300 281 300 290.5 295.5 c 128,-1,36
 300 291 300 291 300 275 c 128,-1,37
 300 259 300 259 290.5 254.5 c 128,-1,38
 281 250 281 250 250 250 c 128,-1,39
 219 250 219 250 209.5 254.5 c 128,-1,32
 200 259 200 259 200 275 c 128,-1,33
300 375 m 128,-1,41
 300 391 300 391 309.5 395.5 c 128,-1,42
 319 400 319 400 350 400 c 128,-1,43
 381 400 381 400 390.5 395.5 c 128,-1,44
 400 391 400 391 400 375 c 128,-1,45
 400 359 400 359 390.5 354.5 c 128,-1,46
 381 350 381 350 350 350 c 128,-1,47
 319 350 319 350 309.5 354.5 c 128,-1,40
 300 359 300 359 300 375 c 128,-1,41
200 475 m 128,-1,49
 200 491 200 491 209.5 495.5 c 128,-1,50
 219 500 219 500 250 500 c 128,-1,51
 281 500 281 500 290.5 495.5 c 128,-1,52
 300 491 300 491 300 475 c 128,-1,53
 300 459 300 459 290.5 454.5 c 128,-1,54
 281 450 281 450 250 450 c 128,-1,55
 219 450 219 450 209.5 454.5 c 128,-1,48
 200 459 200 459 200 475 c 128,-1,49
100 575 m 128,-1,57
 100 591 100 591 109.5 595.5 c 128,-1,58
 119 600 119 600 150 600 c 128,-1,59
 181 600 181 600 190.5 595.5 c 128,-1,60
 200 591 200 591 200 575 c 128,-1,61
 200 559 200 559 190.5 554.5 c 128,-1,62
 181 550 181 550 150 550 c 128,-1,63
 119 550 119 550 109.5 554.5 c 128,-1,56
 100 559 100 559 100 575 c 128,-1,57
0 675 m 128,-1,65
 0 691 0 691 9.5 695.5 c 128,-1,66
 19 700 19 700 50 700 c 128,-1,67
 81 700 81 700 90.5 695.5 c 128,-1,68
 100 691 100 691 100 675 c 128,-1,69
 100 659 100 659 90.5 654.5 c 128,-1,70
 81 650 81 650 50 650 c 128,-1,71
 19 650 19 650 9.5 654.5 c 128,-1,64
 0 659 0 659 0 675 c 128,-1,65
EndSplineSet
Validated: 1
EndChar

StartChar: uni001C
Encoding: 28 28 29
Width: 500
Flags: W
LayerCount: 2
Fore
SplineSet
250 75 m 128,-1,1
 250 91 250 91 259.5 95.5 c 128,-1,2
 269 100 269 100 300 100 c 128,-1,3
 331 100 331 100 340.5 95.5 c 128,-1,4
 350 91 350 91 350 75 c 128,-1,5
 350 59 350 59 340.5 54.5 c 128,-1,6
 331 50 331 50 300 50 c 128,-1,7
 269 50 269 50 259.5 54.5 c 128,-1,0
 250 59 250 59 250 75 c 128,-1,1
50 75 m 128,-1,9
 50 91 50 91 59.5 95.5 c 128,-1,10
 69 100 69 100 100 100 c 128,-1,11
 131 100 131 100 140.5 95.5 c 128,-1,12
 150 91 150 91 150 75 c 128,-1,13
 150 59 150 59 140.5 54.5 c 128,-1,14
 131 50 131 50 100 50 c 128,-1,15
 69 50 69 50 59.5 54.5 c 128,-1,8
 50 59 50 59 50 75 c 128,-1,9
250 175 m 128,-1,17
 250 191 250 191 259.5 195.5 c 128,-1,18
 269 200 269 200 300 200 c 128,-1,19
 331 200 331 200 340.5 195.5 c 128,-1,20
 350 191 350 191 350 175 c 128,-1,21
 350 159 350 159 340.5 154.5 c 128,-1,22
 331 150 331 150 300 150 c 128,-1,23
 269 150 269 150 259.5 154.5 c 128,-1,16
 250 159 250 159 250 175 c 128,-1,17
100 175 m 128,-1,25
 100 191 100 191 109.5 195.5 c 128,-1,26
 119 200 119 200 150 200 c 128,-1,27
 181 200 181 200 190.5 195.5 c 128,-1,28
 200 191 200 191 200 175 c 128,-1,29
 200 159 200 159 190.5 154.5 c 128,-1,30
 181 150 181 150 150 150 c 128,-1,31
 119 150 119 150 109.5 154.5 c 128,-1,24
 100 159 100 159 100 175 c 128,-1,25
250 275 m 128,-1,33
 250 291 250 291 259.5 295.5 c 128,-1,34
 269 300 269 300 300 300 c 128,-1,35
 331 300 331 300 340.5 295.5 c 128,-1,36
 350 291 350 291 350 275 c 128,-1,37
 350 259 350 259 340.5 254.5 c 128,-1,38
 331 250 331 250 300 250 c 128,-1,39
 269 250 269 250 259.5 254.5 c 128,-1,32
 250 259 250 259 250 275 c 128,-1,33
100 275 m 128,-1,41
 100 291 100 291 109.5 295.5 c 128,-1,42
 119 300 119 300 150 300 c 128,-1,43
 181 300 181 300 190.5 295.5 c 128,-1,44
 200 291 200 291 200 275 c 128,-1,45
 200 259 200 259 190.5 254.5 c 128,-1,46
 181 250 181 250 150 250 c 128,-1,47
 119 250 119 250 109.5 254.5 c 128,-1,40
 100 259 100 259 100 275 c 128,-1,41
250 375 m 128,-1,49
 250 391 250 391 259.5 395.5 c 128,-1,50
 269 400 269 400 300 400 c 128,-1,51
 331 400 331 400 340.5 395.5 c 128,-1,52
 350 391 350 391 350 375 c 128,-1,53
 350 359 350 359 340.5 354.5 c 128,-1,54
 331 350 331 350 300 350 c 128,-1,55
 269 350 269 350 259.5 354.5 c 128,-1,48
 250 359 250 359 250 375 c 128,-1,49
100 375 m 128,-1,57
 100 391 100 391 109.5 395.5 c 128,-1,58
 119 400 119 400 150 400 c 128,-1,59
 181 400 181 400 190.5 395.5 c 128,-1,60
 200 391 200 391 200 375 c 128,-1,61
 200 359 200 359 190.5 354.5 c 128,-1,62
 181 350 181 350 150 350 c 128,-1,63
 119 350 119 350 109.5 354.5 c 128,-1,56
 100 359 100 359 100 375 c 128,-1,57
0 475 m 0,64,65
 0 490 0 490 15 494 c 0,66,67
 39 500 39 500 200 500 c 0,68,69
 373 500 373 500 391 491 c 0,70,71
 400 487 400 487 400 475 c 0,72,73
 400 460 400 460 385 456 c 0,74,75
 361 450 361 450 200 450 c 0,76,77
 27 450 27 450 9 459 c 0,78,79
 0 463 0 463 0 475 c 0,64,65
EndSplineSet
Validated: 1
EndChar

StartChar: uni001D
Encoding: 29 29 30
Width: 500
Flags: W
LayerCount: 2
Fore
SplineSet
0 75 m 128,-1,1
 0 91 0 91 9.5 95.5 c 128,-1,2
 19 100 19 100 50 100 c 128,-1,3
 81 100 81 100 90.5 95.5 c 128,-1,4
 100 91 100 91 100 75 c 128,-1,5
 100 59 100 59 90.5 54.5 c 128,-1,6
 81 50 81 50 50 50 c 128,-1,7
 19 50 19 50 9.5 54.5 c 128,-1,0
 0 59 0 59 0 75 c 128,-1,1
50 175 m 128,-1,9
 50 191 50 191 59.5 195.5 c 128,-1,10
 69 200 69 200 100 200 c 128,-1,11
 131 200 131 200 140.5 195.5 c 128,-1,12
 150 191 150 191 150 175 c 128,-1,13
 150 159 150 159 140.5 154.5 c 128,-1,14
 131 150 131 150 100 150 c 128,-1,15
 69 150 69 150 59.5 154.5 c 128,-1,8
 50 159 50 159 50 175 c 128,-1,9
0 275 m 0,16,17
 0 290 0 290 15 294 c 0,18,19
 39 300 39 300 200 300 c 0,20,21
 373 300 373 300 391 291 c 0,22,23
 400 287 400 287 400 275 c 0,24,25
 400 260 400 260 385 256 c 0,26,27
 361 250 361 250 200 250 c 0,28,29
 27 250 27 250 9 259 c 0,30,31
 0 263 0 263 0 275 c 0,16,17
150 375 m 128,-1,33
 150 391 150 391 159.5 395.5 c 128,-1,34
 169 400 169 400 200 400 c 128,-1,35
 231 400 231 400 240.5 395.5 c 128,-1,36
 250 391 250 391 250 375 c 128,-1,37
 250 359 250 359 240.5 354.5 c 128,-1,38
 231 350 231 350 200 350 c 128,-1,39
 169 350 169 350 159.5 354.5 c 128,-1,32
 150 359 150 359 150 375 c 128,-1,33
0 475 m 0,40,41
 0 490 0 490 15 494 c 0,42,43
 39 500 39 500 200 500 c 0,44,45
 373 500 373 500 391 491 c 0,46,47
 400 487 400 487 400 475 c 0,48,49
 400 460 400 460 385 456 c 0,50,51
 361 450 361 450 200 450 c 0,52,53
 27 450 27 450 9 459 c 0,54,55
 0 463 0 463 0 475 c 0,40,41
250 575 m 128,-1,57
 250 591 250 591 259.5 595.5 c 128,-1,58
 269 600 269 600 300 600 c 128,-1,59
 331 600 331 600 340.5 595.5 c 128,-1,60
 350 591 350 591 350 575 c 128,-1,61
 350 559 350 559 340.5 554.5 c 128,-1,62
 331 550 331 550 300 550 c 128,-1,63
 269 550 269 550 259.5 554.5 c 128,-1,56
 250 559 250 559 250 575 c 128,-1,57
300 675 m 128,-1,65
 300 691 300 691 309.5 695.5 c 128,-1,66
 319 700 319 700 350 700 c 128,-1,67
 381 700 381 700 390.5 695.5 c 128,-1,68
 400 691 400 691 400 675 c 128,-1,69
 400 659 400 659 390.5 654.5 c 128,-1,70
 381 650 381 650 350 650 c 128,-1,71
 319 650 319 650 309.5 654.5 c 128,-1,64
 300 659 300 659 300 675 c 128,-1,65
EndSplineSet
Validated: 1
EndChar

StartChar: uni001E
Encoding: 30 30 31
Width: 500
Flags: W
LayerCount: 2
Fore
SplineSet
50 -25 m 128,-1,1
 50 -9 50 -9 59.5 -4.5 c 128,-1,2
 69 0 69 0 100 0 c 128,-1,3
 131 0 131 0 140.5 -4.5 c 128,-1,4
 150 -9 150 -9 150 -25 c 128,-1,5
 150 -41 150 -41 140.5 -45.5 c 128,-1,6
 131 -50 131 -50 100 -50 c 128,-1,7
 69 -50 69 -50 59.5 -45.5 c 128,-1,0
 50 -41 50 -41 50 -25 c 128,-1,1
250 75 m 128,-1,9
 250 92 250 92 263 96 c 128,-1,10
 276 100 276 100 325 100 c 0,11,12
 375 100 375 100 387.5 96 c 128,-1,13
 400 92 400 92 400 75 c 128,-1,14
 400 58 400 58 387.5 54 c 128,-1,15
 375 50 375 50 325 50 c 0,16,17
 276 50 276 50 263 54 c 128,-1,8
 250 58 250 58 250 75 c 128,-1,9
0 75 m 128,-1,19
 0 92 0 92 16 96 c 128,-1,20
 32 100 32 100 100 100 c 128,-1,21
 168 100 168 100 184 96 c 128,-1,22
 200 92 200 92 200 75 c 128,-1,23
 200 58 200 58 184 54 c 128,-1,24
 168 50 168 50 100 50 c 128,-1,25
 32 50 32 50 16 54 c 128,-1,18
 0 58 0 58 0 75 c 128,-1,19
50 175 m 128,-1,27
 50 184 50 184 52.5 188.5 c 128,-1,28
 55 193 55 193 69.5 196 c 128,-1,29
 84 199 84 199 106 199.5 c 128,-1,30
 128 200 128 200 175 200 c 128,-1,31
 222 200 222 200 244 199.5 c 128,-1,32
 266 199 266 199 280.5 196 c 128,-1,33
 295 193 295 193 297.5 188.5 c 128,-1,34
 300 184 300 184 300 175 c 128,-1,35
 300 166 300 166 297.5 161.5 c 128,-1,36
 295 157 295 157 280.5 154 c 128,-1,37
 266 151 266 151 244 150.5 c 128,-1,38
 222 150 222 150 175 150 c 128,-1,39
 128 150 128 150 106 150.5 c 128,-1,40
 84 151 84 151 69.5 154 c 128,-1,41
 55 157 55 157 52.5 161.5 c 128,-1,26
 50 166 50 166 50 175 c 128,-1,27
100 275 m 128,-1,43
 100 291 100 291 109.5 295.5 c 128,-1,44
 119 300 119 300 150 300 c 128,-1,45
 181 300 181 300 190.5 295.5 c 128,-1,46
 200 291 200 291 200 275 c 128,-1,47
 200 259 200 259 190.5 254.5 c 128,-1,48
 181 250 181 250 150 250 c 128,-1,49
 119 250 119 250 109.5 254.5 c 128,-1,42
 100 259 100 259 100 275 c 128,-1,43
0 375 m 0,50,51
 0 391 0 391 15 395 c 0,52,53
 34 400 34 400 150 400 c 0,54,55
 279 400 279 400 293 391 c 0,56,57
 300 387 300 387 300 375 c 0,58,59
 300 359 300 359 285 355 c 0,60,61
 266 350 266 350 150 350 c 0,62,63
 21 350 21 350 7 359 c 0,64,65
 0 363 0 363 0 375 c 0,50,51
100 475 m 128,-1,67
 100 491 100 491 109.5 495.5 c 128,-1,68
 119 500 119 500 150 500 c 128,-1,69
 181 500 181 500 190.5 495.5 c 128,-1,70
 200 491 200 491 200 475 c 128,-1,71
 200 459 200 459 190.5 454.5 c 128,-1,72
 181 450 181 450 150 450 c 128,-1,73
 119 450 119 450 109.5 454.5 c 128,-1,66
 100 459 100 459 100 475 c 128,-1,67
300 575 m 128,-1,75
 300 591 300 591 309.5 595.5 c 128,-1,76
 319 600 319 600 350 600 c 128,-1,77
 381 600 381 600 390.5 595.5 c 128,-1,78
 400 591 400 591 400 575 c 128,-1,79
 400 559 400 559 390.5 554.5 c 128,-1,80
 381 550 381 550 350 550 c 128,-1,81
 319 550 319 550 309.5 554.5 c 128,-1,74
 300 559 300 559 300 575 c 128,-1,75
100 575 m 128,-1,83
 100 591 100 591 109.5 595.5 c 128,-1,84
 119 600 119 600 150 600 c 128,-1,85
 181 600 181 600 190.5 595.5 c 128,-1,86
 200 591 200 591 200 575 c 128,-1,87
 200 559 200 559 190.5 554.5 c 128,-1,88
 181 550 181 550 150 550 c 128,-1,89
 119 550 119 550 109.5 554.5 c 128,-1,82
 100 559 100 559 100 575 c 128,-1,83
150 675 m 132,-1,91
 150 692 150 692 166 696 c 132,-1,92
 182 700 182 700 250 700 c 132,-1,93
 318 700 318 700 334 696 c 132,-1,94
 350 692 350 692 350 675 c 132,-1,95
 350 658 350 658 334 654 c 132,-1,96
 318 650 318 650 250 650 c 132,-1,97
 182 650 182 650 166 654 c 132,-1,90
 150 658 150 658 150 675 c 132,-1,91
EndSplineSet
Validated: 1
EndChar

StartChar: uni001F
Encoding: 31 31 32
Width: 500
Flags: W
LayerCount: 2
Fore
SplineSet
150 375 m 128,-1,1
 150 391 150 391 159.5 395.5 c 128,-1,2
 169 400 169 400 200 400 c 128,-1,3
 231 400 231 400 240.5 395.5 c 128,-1,4
 250 391 250 391 250 375 c 128,-1,5
 250 359 250 359 240.5 354.5 c 128,-1,6
 231 350 231 350 200 350 c 128,-1,7
 169 350 169 350 159.5 354.5 c 128,-1,0
 150 359 150 359 150 375 c 128,-1,1
EndSplineSet
Validated: 1
EndChar

StartChar: exclam
Encoding: 33 33 34
Width: 500
Flags: W
LayerCount: 2
Fore
SplineSet
150 75 m 128,-1,1
 150 91 150 91 159.5 95.5 c 128,-1,2
 169 100 169 100 200 100 c 128,-1,3
 231 100 231 100 240.5 95.5 c 128,-1,4
 250 91 250 91 250 75 c 128,-1,5
 250 59 250 59 240.5 54.5 c 128,-1,6
 231 50 231 50 200 50 c 128,-1,7
 169 50 169 50 159.5 54.5 c 128,-1,0
 150 59 150 59 150 75 c 128,-1,1
150 275 m 128,-1,9
 150 291 150 291 159.5 295.5 c 128,-1,10
 169 300 169 300 200 300 c 128,-1,11
 231 300 231 300 240.5 295.5 c 128,-1,12
 250 291 250 291 250 275 c 128,-1,13
 250 259 250 259 240.5 254.5 c 128,-1,14
 231 250 231 250 200 250 c 128,-1,15
 169 250 169 250 159.5 254.5 c 128,-1,8
 150 259 150 259 150 275 c 128,-1,9
150 375 m 128,-1,17
 150 391 150 391 159.5 395.5 c 128,-1,18
 169 400 169 400 200 400 c 128,-1,19
 231 400 231 400 240.5 395.5 c 128,-1,20
 250 391 250 391 250 375 c 128,-1,21
 250 359 250 359 240.5 354.5 c 128,-1,22
 231 350 231 350 200 350 c 128,-1,23
 169 350 169 350 159.5 354.5 c 128,-1,16
 150 359 150 359 150 375 c 128,-1,17
150 475 m 128,-1,25
 150 491 150 491 159.5 495.5 c 128,-1,26
 169 500 169 500 200 500 c 128,-1,27
 231 500 231 500 240.5 495.5 c 128,-1,28
 250 491 250 491 250 475 c 128,-1,29
 250 459 250 459 240.5 454.5 c 128,-1,30
 231 450 231 450 200 450 c 128,-1,31
 169 450 169 450 159.5 454.5 c 128,-1,24
 150 459 150 459 150 475 c 128,-1,25
150 575 m 128,-1,33
 150 591 150 591 159.5 595.5 c 128,-1,34
 169 600 169 600 200 600 c 128,-1,35
 231 600 231 600 240.5 595.5 c 128,-1,36
 250 591 250 591 250 575 c 128,-1,37
 250 559 250 559 240.5 554.5 c 128,-1,38
 231 550 231 550 200 550 c 128,-1,39
 169 550 169 550 159.5 554.5 c 128,-1,32
 150 559 150 559 150 575 c 128,-1,33
150 675 m 128,-1,41
 150 691 150 691 159.5 695.5 c 128,-1,42
 169 700 169 700 200 700 c 128,-1,43
 231 700 231 700 240.5 695.5 c 128,-1,44
 250 691 250 691 250 675 c 128,-1,45
 250 659 250 659 240.5 654.5 c 128,-1,46
 231 650 231 650 200 650 c 128,-1,47
 169 650 169 650 159.5 654.5 c 128,-1,40
 150 659 150 659 150 675 c 128,-1,41
EndSplineSet
Validated: 1
EndChar

StartChar: quotedbl
Encoding: 34 34 35
Width: 500
Flags: W
LayerCount: 2
Fore
SplineSet
200 475 m 128,-1,1
 200 491 200 491 209.5 495.5 c 128,-1,2
 219 500 219 500 250 500 c 128,-1,3
 281 500 281 500 290.5 495.5 c 128,-1,4
 300 491 300 491 300 475 c 128,-1,5
 300 459 300 459 290.5 454.5 c 128,-1,6
 281 450 281 450 250 450 c 128,-1,7
 219 450 219 450 209.5 454.5 c 128,-1,0
 200 459 200 459 200 475 c 128,-1,1
50 475 m 128,-1,9
 50 491 50 491 59.5 495.5 c 128,-1,10
 69 500 69 500 100 500 c 128,-1,11
 131 500 131 500 140.5 495.5 c 128,-1,12
 150 491 150 491 150 475 c 128,-1,13
 150 459 150 459 140.5 454.5 c 128,-1,14
 131 450 131 450 100 450 c 128,-1,15
 69 450 69 450 59.5 454.5 c 128,-1,8
 50 459 50 459 50 475 c 128,-1,9
200 575 m 128,-1,17
 200 591 200 591 209.5 595.5 c 128,-1,18
 219 600 219 600 250 600 c 128,-1,19
 281 600 281 600 290.5 595.5 c 128,-1,20
 300 591 300 591 300 575 c 128,-1,21
 300 559 300 559 290.5 554.5 c 128,-1,22
 281 550 281 550 250 550 c 128,-1,23
 219 550 219 550 209.5 554.5 c 128,-1,16
 200 559 200 559 200 575 c 128,-1,17
50 575 m 128,-1,25
 50 591 50 591 59.5 595.5 c 128,-1,26
 69 600 69 600 100 600 c 128,-1,27
 131 600 131 600 140.5 595.5 c 128,-1,28
 150 591 150 591 150 575 c 128,-1,29
 150 559 150 559 140.5 554.5 c 128,-1,30
 131 550 131 550 100 550 c 128,-1,31
 69 550 69 550 59.5 554.5 c 128,-1,24
 50 559 50 559 50 575 c 128,-1,25
200 675 m 128,-1,33
 200 691 200 691 209.5 695.5 c 128,-1,34
 219 700 219 700 250 700 c 128,-1,35
 281 700 281 700 290.5 695.5 c 128,-1,36
 300 691 300 691 300 675 c 128,-1,37
 300 659 300 659 290.5 654.5 c 128,-1,38
 281 650 281 650 250 650 c 128,-1,39
 219 650 219 650 209.5 654.5 c 128,-1,32
 200 659 200 659 200 675 c 128,-1,33
50 675 m 128,-1,41
 50 691 50 691 59.5 695.5 c 128,-1,42
 69 700 69 700 100 700 c 128,-1,43
 131 700 131 700 140.5 695.5 c 128,-1,44
 150 691 150 691 150 675 c 128,-1,45
 150 659 150 659 140.5 654.5 c 128,-1,46
 131 650 131 650 100 650 c 128,-1,47
 69 650 69 650 59.5 654.5 c 128,-1,40
 50 659 50 659 50 675 c 128,-1,41
EndSplineSet
Validated: 1
EndChar

StartChar: numbersign
Encoding: 35 35 36
Width: 500
Flags: W
LayerCount: 2
Fore
SplineSet
200 75 m 128,-1,1
 200 91 200 91 209.5 95.5 c 128,-1,2
 219 100 219 100 250 100 c 128,-1,3
 281 100 281 100 290.5 95.5 c 128,-1,4
 300 91 300 91 300 75 c 128,-1,5
 300 59 300 59 290.5 54.5 c 128,-1,6
 281 50 281 50 250 50 c 128,-1,7
 219 50 219 50 209.5 54.5 c 128,-1,0
 200 59 200 59 200 75 c 128,-1,1
50 75 m 128,-1,9
 50 91 50 91 59.5 95.5 c 128,-1,10
 69 100 69 100 100 100 c 128,-1,11
 131 100 131 100 140.5 95.5 c 128,-1,12
 150 91 150 91 150 75 c 128,-1,13
 150 59 150 59 140.5 54.5 c 128,-1,14
 131 50 131 50 100 50 c 128,-1,15
 69 50 69 50 59.5 54.5 c 128,-1,8
 50 59 50 59 50 75 c 128,-1,9
200 175 m 128,-1,17
 200 191 200 191 209.5 195.5 c 128,-1,18
 219 200 219 200 250 200 c 128,-1,19
 281 200 281 200 290.5 195.5 c 128,-1,20
 300 191 300 191 300 175 c 128,-1,21
 300 159 300 159 290.5 154.5 c 128,-1,22
 281 150 281 150 250 150 c 128,-1,23
 219 150 219 150 209.5 154.5 c 128,-1,16
 200 159 200 159 200 175 c 128,-1,17
50 175 m 128,-1,25
 50 191 50 191 59.5 195.5 c 128,-1,26
 69 200 69 200 100 200 c 128,-1,27
 131 200 131 200 140.5 195.5 c 128,-1,28
 150 191 150 191 150 175 c 128,-1,29
 150 159 150 159 140.5 154.5 c 128,-1,30
 131 150 131 150 100 150 c 128,-1,31
 69 150 69 150 59.5 154.5 c 128,-1,24
 50 159 50 159 50 175 c 128,-1,25
0 275 m 0,32,33
 0 290 0 290 15 294 c 0,34,35
 37 300 37 300 175 300 c 0,36,37
 326 300 326 300 342 291 c 0,38,39
 350 287 350 287 350 275 c 0,40,41
 350 260 350 260 335 256 c 0,42,43
 313 250 313 250 175 250 c 0,44,45
 24 250 24 250 8 259 c 0,46,47
 0 263 0 263 0 275 c 0,32,33
200 375 m 128,-1,49
 200 391 200 391 209.5 395.5 c 128,-1,50
 219 400 219 400 250 400 c 128,-1,51
 281 400 281 400 290.5 395.5 c 128,-1,52
 300 391 300 391 300 375 c 128,-1,53
 300 359 300 359 290.5 354.5 c 128,-1,54
 281 350 281 350 250 350 c 128,-1,55
 219 350 219 350 209.5 354.5 c 128,-1,48
 200 359 200 359 200 375 c 128,-1,49
50 375 m 128,-1,57
 50 391 50 391 59.5 395.5 c 128,-1,58
 69 400 69 400 100 400 c 128,-1,59
 131 400 131 400 140.5 395.5 c 128,-1,60
 150 391 150 391 150 375 c 128,-1,61
 150 359 150 359 140.5 354.5 c 128,-1,62
 131 350 131 350 100 350 c 128,-1,63
 69 350 69 350 59.5 354.5 c 128,-1,56
 50 359 50 359 50 375 c 128,-1,57
0 475 m 0,64,65
 0 490 0 490 15 494 c 0,66,67
 37 500 37 500 175 500 c 0,68,69
 326 500 326 500 342 491 c 0,70,71
 350 487 350 487 350 475 c 0,72,73
 350 460 350 460 335 456 c 0,74,75
 313 450 313 450 175 450 c 0,76,77
 24 450 24 450 8 459 c 0,78,79
 0 463 0 463 0 475 c 0,64,65
200 575 m 128,-1,81
 200 591 200 591 209.5 595.5 c 128,-1,82
 219 600 219 600 250 600 c 128,-1,83
 281 600 281 600 290.5 595.5 c 128,-1,84
 300 591 300 591 300 575 c 128,-1,85
 300 559 300 559 290.5 554.5 c 128,-1,86
 281 550 281 550 250 550 c 128,-1,87
 219 550 219 550 209.5 554.5 c 128,-1,80
 200 559 200 559 200 575 c 128,-1,81
50 575 m 128,-1,89
 50 591 50 591 59.5 595.5 c 128,-1,90
 69 600 69 600 100 600 c 128,-1,91
 131 600 131 600 140.5 595.5 c 128,-1,92
 150 591 150 591 150 575 c 128,-1,93
 150 559 150 559 140.5 554.5 c 128,-1,94
 131 550 131 550 100 550 c 128,-1,95
 69 550 69 550 59.5 554.5 c 128,-1,88
 50 559 50 559 50 575 c 128,-1,89
200 675 m 128,-1,97
 200 691 200 691 209.5 695.5 c 128,-1,98
 219 700 219 700 250 700 c 128,-1,99
 281 700 281 700 290.5 695.5 c 128,-1,100
 300 691 300 691 300 675 c 128,-1,101
 300 659 300 659 290.5 654.5 c 128,-1,102
 281 650 281 650 250 650 c 128,-1,103
 219 650 219 650 209.5 654.5 c 128,-1,96
 200 659 200 659 200 675 c 128,-1,97
50 675 m 128,-1,105
 50 691 50 691 59.5 695.5 c 128,-1,106
 69 700 69 700 100 700 c 128,-1,107
 131 700 131 700 140.5 695.5 c 128,-1,108
 150 691 150 691 150 675 c 128,-1,109
 150 659 150 659 140.5 654.5 c 128,-1,110
 131 650 131 650 100 650 c 128,-1,111
 69 650 69 650 59.5 654.5 c 128,-1,104
 50 659 50 659 50 675 c 128,-1,105
EndSplineSet
Validated: 1
EndChar

StartChar: dollar
Encoding: 36 36 37
Width: 500
Flags: W
LayerCount: 2
Fore
SplineSet
150 75 m 128,-1,1
 150 91 150 91 159.5 95.5 c 128,-1,2
 169 100 169 100 200 100 c 128,-1,3
 231 100 231 100 240.5 95.5 c 128,-1,4
 250 91 250 91 250 75 c 128,-1,5
 250 59 250 59 240.5 54.5 c 128,-1,6
 231 50 231 50 200 50 c 128,-1,7
 169 50 169 50 159.5 54.5 c 128,-1,0
 150 59 150 59 150 75 c 128,-1,1
50 175 m 0,8,9
 50 191 50 191 65 195 c 0,10,11
 84 200 84 200 200 200 c 0,12,13
 329 200 329 200 343 191 c 0,14,15
 350 187 350 187 350 175 c 0,16,17
 350 159 350 159 335 155 c 0,18,19
 316 150 316 150 200 150 c 0,20,21
 71 150 71 150 57 159 c 0,22,23
 50 163 50 163 50 175 c 0,8,9
300 275 m 128,-1,25
 300 291 300 291 309.5 295.5 c 128,-1,26
 319 300 319 300 350 300 c 128,-1,27
 381 300 381 300 390.5 295.5 c 128,-1,28
 400 291 400 291 400 275 c 128,-1,29
 400 259 400 259 390.5 254.5 c 128,-1,30
 381 250 381 250 350 250 c 128,-1,31
 319 250 319 250 309.5 254.5 c 128,-1,24
 300 259 300 259 300 275 c 128,-1,25
150 275 m 128,-1,33
 150 291 150 291 159.5 295.5 c 128,-1,34
 169 300 169 300 200 300 c 128,-1,35
 231 300 231 300 240.5 295.5 c 128,-1,36
 250 291 250 291 250 275 c 128,-1,37
 250 259 250 259 240.5 254.5 c 128,-1,38
 231 250 231 250 200 250 c 128,-1,39
 169 250 169 250 159.5 254.5 c 128,-1,32
 150 259 150 259 150 275 c 128,-1,33
50 375 m 0,40,41
 50 391 50 391 65 395 c 0,42,43
 84 400 84 400 200 400 c 0,44,45
 329 400 329 400 343 391 c 0,46,47
 350 387 350 387 350 375 c 0,48,49
 350 359 350 359 335 355 c 0,50,51
 316 350 316 350 200 350 c 0,52,53
 71 350 71 350 57 359 c 0,54,55
 50 363 50 363 50 375 c 0,40,41
150 475 m 128,-1,57
 150 491 150 491 159.5 495.5 c 128,-1,58
 169 500 169 500 200 500 c 128,-1,59
 231 500 231 500 240.5 495.5 c 128,-1,60
 250 491 250 491 250 475 c 128,-1,61
 250 459 250 459 240.5 454.5 c 128,-1,62
 231 450 231 450 200 450 c 128,-1,63
 169 450 169 450 159.5 454.5 c 128,-1,56
 150 459 150 459 150 475 c 128,-1,57
0 475 m 128,-1,65
 0 491 0 491 9.5 495.5 c 128,-1,66
 19 500 19 500 50 500 c 128,-1,67
 81 500 81 500 90.5 495.5 c 128,-1,68
 100 491 100 491 100 475 c 128,-1,69
 100 459 100 459 90.5 454.5 c 128,-1,70
 81 450 81 450 50 450 c 128,-1,71
 19 450 19 450 9.5 454.5 c 128,-1,64
 0 459 0 459 0 475 c 128,-1,65
50 575 m 0,72,73
 50 591 50 591 65 595 c 0,74,75
 84 600 84 600 200 600 c 0,76,77
 329 600 329 600 343 591 c 0,78,79
 350 587 350 587 350 575 c 0,80,81
 350 559 350 559 335 555 c 0,82,83
 316 550 316 550 200 550 c 0,84,85
 71 550 71 550 57 559 c 0,86,87
 50 563 50 563 50 575 c 0,72,73
150 675 m 128,-1,89
 150 691 150 691 159.5 695.5 c 128,-1,90
 169 700 169 700 200 700 c 128,-1,91
 231 700 231 700 240.5 695.5 c 128,-1,92
 250 691 250 691 250 675 c 128,-1,93
 250 659 250 659 240.5 654.5 c 128,-1,94
 231 650 231 650 200 650 c 128,-1,95
 169 650 169 650 159.5 654.5 c 128,-1,88
 150 659 150 659 150 675 c 128,-1,89
EndSplineSet
Validated: 1
EndChar

StartChar: percent
Encoding: 37 37 38
Width: 500
Flags: W
LayerCount: 2
Fore
SplineSet
250 75 m 128,-1,1
 250 91 250 91 259.5 95.5 c 128,-1,2
 269 100 269 100 300 100 c 128,-1,3
 331 100 331 100 340.5 95.5 c 128,-1,4
 350 91 350 91 350 75 c 128,-1,5
 350 59 350 59 340.5 54.5 c 128,-1,6
 331 50 331 50 300 50 c 128,-1,7
 269 50 269 50 259.5 54.5 c 128,-1,0
 250 59 250 59 250 75 c 128,-1,1
0 75 m 128,-1,9
 0 91 0 91 9.5 95.5 c 128,-1,10
 19 100 19 100 50 100 c 128,-1,11
 81 100 81 100 90.5 95.5 c 128,-1,12
 100 91 100 91 100 75 c 128,-1,13
 100 59 100 59 90.5 54.5 c 128,-1,14
 81 50 81 50 50 50 c 128,-1,15
 19 50 19 50 9.5 54.5 c 128,-1,8
 0 59 0 59 0 75 c 128,-1,9
200 175 m 128,-1,17
 200 192 200 192 216 196 c 128,-1,18
 232 200 232 200 300 200 c 128,-1,19
 368 200 368 200 384 196 c 128,-1,20
 400 192 400 192 400 175 c 128,-1,21
 400 158 400 158 384 154 c 128,-1,22
 368 150 368 150 300 150 c 128,-1,23
 232 150 232 150 216 154 c 128,-1,16
 200 158 200 158 200 175 c 128,-1,17
50 175 m 128,-1,25
 50 191 50 191 59.5 195.5 c 128,-1,26
 69 200 69 200 100 200 c 128,-1,27
 131 200 131 200 140.5 195.5 c 128,-1,28
 150 191 150 191 150 175 c 128,-1,29
 150 159 150 159 140.5 154.5 c 128,-1,30
 131 150 131 150 100 150 c 128,-1,31
 69 150 69 150 59.5 154.5 c 128,-1,24
 50 159 50 159 50 175 c 128,-1,25
250 275 m 128,-1,33
 250 291 250 291 259.5 295.5 c 128,-1,34
 269 300 269 300 300 300 c 128,-1,35
 331 300 331 300 340.5 295.5 c 128,-1,36
 350 291 350 291 350 275 c 128,-1,37
 350 259 350 259 340.5 254.5 c 128,-1,38
 331 250 331 250 300 250 c 128,-1,39
 269 250 269 250 259.5 254.5 c 128,-1,32
 250 259 250 259 250 275 c 128,-1,33
100 275 m 128,-1,41
 100 291 100 291 109.5 295.5 c 128,-1,42
 119 300 119 300 150 300 c 128,-1,43
 181 300 181 300 190.5 295.5 c 128,-1,44
 200 291 200 291 200 275 c 128,-1,45
 200 259 200 259 190.5 254.5 c 128,-1,46
 181 250 181 250 150 250 c 128,-1,47
 119 250 119 250 109.5 254.5 c 128,-1,40
 100 259 100 259 100 275 c 128,-1,41
150 375 m 128,-1,49
 150 391 150 391 159.5 395.5 c 128,-1,50
 169 400 169 400 200 400 c 128,-1,51
 231 400 231 400 240.5 395.5 c 128,-1,52
 250 391 250 391 250 375 c 128,-1,53
 250 359 250 359 240.5 354.5 c 128,-1,54
 231 350 231 350 200 350 c 128,-1,55
 169 350 169 350 159.5 354.5 c 128,-1,48
 150 359 150 359 150 375 c 128,-1,49
200 475 m 128,-1,57
 200 491 200 491 209.5 495.5 c 128,-1,58
 219 500 219 500 250 500 c 128,-1,59
 281 500 281 500 290.5 495.5 c 128,-1,60
 300 491 300 491 300 475 c 128,-1,61
 300 459 300 459 290.5 454.5 c 128,-1,62
 281 450 281 450 250 450 c 128,-1,63
 219 450 219 450 209.5 454.5 c 128,-1,56
 200 459 200 459 200 475 c 128,-1,57
50 475 m 128,-1,65
 50 491 50 491 59.5 495.5 c 128,-1,66
 69 500 69 500 100 500 c 128,-1,67
 131 500 131 500 140.5 495.5 c 128,-1,68
 150 491 150 491 150 475 c 128,-1,69
 150 459 150 459 140.5 454.5 c 128,-1,70
 131 450 131 450 100 450 c 128,-1,71
 69 450 69 450 59.5 454.5 c 128,-1,64
 50 459 50 459 50 475 c 128,-1,65
250 575 m 128,-1,73
 250 591 250 591 259.5 595.5 c 128,-1,74
 269 600 269 600 300 600 c 128,-1,75
 331 600 331 600 340.5 595.5 c 128,-1,76
 350 591 350 591 350 575 c 128,-1,77
 350 559 350 559 340.5 554.5 c 128,-1,78
 331 550 331 550 300 550 c 128,-1,79
 269 550 269 550 259.5 554.5 c 128,-1,72
 250 559 250 559 250 575 c 128,-1,73
0 575 m 128,-1,81
 0 592 0 592 16 596 c 128,-1,82
 32 600 32 600 100 600 c 128,-1,83
 168 600 168 600 184 596 c 128,-1,84
 200 592 200 592 200 575 c 128,-1,85
 200 558 200 558 184 554 c 128,-1,86
 168 550 168 550 100 550 c 128,-1,87
 32 550 32 550 16 554 c 128,-1,80
 0 558 0 558 0 575 c 128,-1,81
300 675 m 128,-1,89
 300 691 300 691 309.5 695.5 c 128,-1,90
 319 700 319 700 350 700 c 128,-1,91
 381 700 381 700 390.5 695.5 c 128,-1,92
 400 691 400 691 400 675 c 128,-1,93
 400 659 400 659 390.5 654.5 c 128,-1,94
 381 650 381 650 350 650 c 128,-1,95
 319 650 319 650 309.5 654.5 c 128,-1,88
 300 659 300 659 300 675 c 128,-1,89
50 675 m 128,-1,97
 50 691 50 691 59.5 695.5 c 128,-1,98
 69 700 69 700 100 700 c 128,-1,99
 131 700 131 700 140.5 695.5 c 128,-1,100
 150 691 150 691 150 675 c 128,-1,101
 150 659 150 659 140.5 654.5 c 128,-1,102
 131 650 131 650 100 650 c 128,-1,103
 69 650 69 650 59.5 654.5 c 128,-1,96
 50 659 50 659 50 675 c 128,-1,97
EndSplineSet
Validated: 1
EndChar

StartChar: ampersand
Encoding: 38 38 39
Width: 500
Flags: W
LayerCount: 2
Fore
SplineSet
50 75 m 0,0,1
 50 90 50 90 65 94 c 0,2,3
 87 100 87 100 225 100 c 0,4,5
 376 100 376 100 392 91 c 0,6,7
 400 87 400 87 400 75 c 0,8,9
 400 60 400 60 385 56 c 0,10,11
 363 50 363 50 225 50 c 0,12,13
 74 50 74 50 58 59 c 0,14,15
 50 63 50 63 50 75 c 0,0,1
250 175 m 128,-1,17
 250 191 250 191 259.5 195.5 c 128,-1,18
 269 200 269 200 300 200 c 128,-1,19
 331 200 331 200 340.5 195.5 c 128,-1,20
 350 191 350 191 350 175 c 128,-1,21
 350 159 350 159 340.5 154.5 c 128,-1,22
 331 150 331 150 300 150 c 128,-1,23
 269 150 269 150 259.5 154.5 c 128,-1,16
 250 159 250 159 250 175 c 128,-1,17
0 175 m 128,-1,25
 0 191 0 191 9.5 195.5 c 128,-1,26
 19 200 19 200 50 200 c 128,-1,27
 81 200 81 200 90.5 195.5 c 128,-1,28
 100 191 100 191 100 175 c 128,-1,29
 100 159 100 159 90.5 154.5 c 128,-1,30
 81 150 81 150 50 150 c 128,-1,31
 19 150 19 150 9.5 154.5 c 128,-1,24
 0 159 0 159 0 175 c 128,-1,25
200 275 m 128,-1,33
 200 292 200 292 216 296 c 128,-1,34
 232 300 232 300 300 300 c 128,-1,35
 368 300 368 300 384 296 c 128,-1,36
 400 292 400 292 400 275 c 128,-1,37
 400 258 400 258 384 254 c 128,-1,38
 368 250 368 250 300 250 c 128,-1,39
 232 250 232 250 216 254 c 128,-1,32
 200 258 200 258 200 275 c 128,-1,33
0 275 m 128,-1,41
 0 291 0 291 9.5 295.5 c 128,-1,42
 19 300 19 300 50 300 c 128,-1,43
 81 300 81 300 90.5 295.5 c 128,-1,44
 100 291 100 291 100 275 c 128,-1,45
 100 259 100 259 90.5 254.5 c 128,-1,46
 81 250 81 250 50 250 c 128,-1,47
 19 250 19 250 9.5 254.5 c 128,-1,40
 0 259 0 259 0 275 c 128,-1,41
50 375 m 128,-1,49
 50 392 50 392 66 396 c 128,-1,50
 82 400 82 400 150 400 c 128,-1,51
 218 400 218 400 234 396 c 128,-1,52
 250 392 250 392 250 375 c 128,-1,53
 250 358 250 358 234 354 c 128,-1,54
 218 350 218 350 150 350 c 128,-1,55
 82 350 82 350 66 354 c 128,-1,48
 50 358 50 358 50 375 c 128,-1,49
200 475 m 128,-1,57
 200 491 200 491 209.5 495.5 c 128,-1,58
 219 500 219 500 250 500 c 128,-1,59
 281 500 281 500 290.5 495.5 c 128,-1,60
 300 491 300 491 300 475 c 128,-1,61
 300 459 300 459 290.5 454.5 c 128,-1,62
 281 450 281 450 250 450 c 128,-1,63
 219 450 219 450 209.5 454.5 c 128,-1,56
 200 459 200 459 200 475 c 128,-1,57
0 475 m 128,-1,65
 0 491 0 491 9.5 495.5 c 128,-1,66
 19 500 19 500 50 500 c 128,-1,67
 81 500 81 500 90.5 495.5 c 128,-1,68
 100 491 100 491 100 475 c 128,-1,69
 100 459 100 459 90.5 454.5 c 128,-1,70
 81 450 81 450 50 450 c 128,-1,71
 19 450 19 450 9.5 454.5 c 128,-1,64
 0 459 0 459 0 475 c 128,-1,65
200 575 m 128,-1,73
 200 591 200 591 209.5 595.5 c 128,-1,74
 219 600 219 600 250 600 c 128,-1,75
 281 600 281 600 290.5 595.5 c 128,-1,76
 300 591 300 591 300 575 c 128,-1,77
 300 559 300 559 290.5 554.5 c 128,-1,78
 281 550 281 550 250 550 c 128,-1,79
 219 550 219 550 209.5 554.5 c 128,-1,72
 200 559 200 559 200 575 c 128,-1,73
0 575 m 128,-1,81
 0 591 0 591 9.5 595.5 c 128,-1,82
 19 600 19 600 50 600 c 128,-1,83
 81 600 81 600 90.5 595.5 c 128,-1,84
 100 591 100 591 100 575 c 128,-1,85
 100 559 100 559 90.5 554.5 c 128,-1,86
 81 550 81 550 50 550 c 128,-1,87
 19 550 19 550 9.5 554.5 c 128,-1,80
 0 559 0 559 0 575 c 128,-1,81
50 675 m 128,-1,89
 50 692 50 692 66 696 c 128,-1,90
 82 700 82 700 150 700 c 128,-1,91
 218 700 218 700 234 696 c 128,-1,92
 250 692 250 692 250 675 c 128,-1,93
 250 658 250 658 234 654 c 128,-1,94
 218 650 218 650 150 650 c 128,-1,95
 82 650 82 650 66 654 c 128,-1,88
 50 658 50 658 50 675 c 128,-1,89
EndSplineSet
Validated: 1
EndChar

StartChar: quotesingle
Encoding: 39 39 40
Width: 500
Flags: W
LayerCount: 2
Fore
SplineSet
100 475 m 128,-1,1
 100 491 100 491 109.5 495.5 c 128,-1,2
 119 500 119 500 150 500 c 128,-1,3
 181 500 181 500 190.5 495.5 c 128,-1,4
 200 491 200 491 200 475 c 128,-1,5
 200 459 200 459 190.5 454.5 c 128,-1,6
 181 450 181 450 150 450 c 128,-1,7
 119 450 119 450 109.5 454.5 c 128,-1,0
 100 459 100 459 100 475 c 128,-1,1
150 575 m 128,-1,9
 150 591 150 591 159.5 595.5 c 128,-1,10
 169 600 169 600 200 600 c 128,-1,11
 231 600 231 600 240.5 595.5 c 128,-1,12
 250 591 250 591 250 575 c 128,-1,13
 250 559 250 559 240.5 554.5 c 128,-1,14
 231 550 231 550 200 550 c 128,-1,15
 169 550 169 550 159.5 554.5 c 128,-1,8
 150 559 150 559 150 575 c 128,-1,9
150 675 m 132,-1,17
 150 692 150 692 163 696 c 132,-1,18
 176 700 176 700 225 700 c 132,-1,19
 274 700 274 700 287 696 c 132,-1,20
 300 692 300 692 300 675 c 132,-1,21
 300 658 300 658 287 654 c 132,-1,22
 274 650 274 650 225 650 c 132,-1,23
 176 650 176 650 163 654 c 132,-1,16
 150 658 150 658 150 675 c 132,-1,17
EndSplineSet
Validated: 1
EndChar

StartChar: parenleft
Encoding: 40 40 41
Width: 500
Flags: W
LayerCount: 2
Fore
SplineSet
200 75 m 128,-1,1
 200 91 200 91 209.5 95.5 c 128,-1,2
 219 100 219 100 250 100 c 128,-1,3
 281 100 281 100 290.5 95.5 c 128,-1,4
 300 91 300 91 300 75 c 128,-1,5
 300 59 300 59 290.5 54.5 c 128,-1,6
 281 50 281 50 250 50 c 128,-1,7
 219 50 219 50 209.5 54.5 c 128,-1,0
 200 59 200 59 200 75 c 128,-1,1
150 175 m 128,-1,9
 150 191 150 191 159.5 195.5 c 128,-1,10
 169 200 169 200 200 200 c 128,-1,11
 231 200 231 200 240.5 195.5 c 128,-1,12
 250 191 250 191 250 175 c 128,-1,13
 250 159 250 159 240.5 154.5 c 128,-1,14
 231 150 231 150 200 150 c 128,-1,15
 169 150 169 150 159.5 154.5 c 128,-1,8
 150 159 150 159 150 175 c 128,-1,9
100 275 m 128,-1,17
 100 291 100 291 109.5 295.5 c 128,-1,18
 119 300 119 300 150 300 c 128,-1,19
 181 300 181 300 190.5 295.5 c 128,-1,20
 200 291 200 291 200 275 c 128,-1,21
 200 259 200 259 190.5 254.5 c 128,-1,22
 181 250 181 250 150 250 c 128,-1,23
 119 250 119 250 109.5 254.5 c 128,-1,16
 100 259 100 259 100 275 c 128,-1,17
100 375 m 128,-1,25
 100 391 100 391 109.5 395.5 c 128,-1,26
 119 400 119 400 150 400 c 128,-1,27
 181 400 181 400 190.5 395.5 c 128,-1,28
 200 391 200 391 200 375 c 128,-1,29
 200 359 200 359 190.5 354.5 c 128,-1,30
 181 350 181 350 150 350 c 128,-1,31
 119 350 119 350 109.5 354.5 c 128,-1,24
 100 359 100 359 100 375 c 128,-1,25
100 475 m 128,-1,33
 100 491 100 491 109.5 495.5 c 128,-1,34
 119 500 119 500 150 500 c 128,-1,35
 181 500 181 500 190.5 495.5 c 128,-1,36
 200 491 200 491 200 475 c 128,-1,37
 200 459 200 459 190.5 454.5 c 128,-1,38
 181 450 181 450 150 450 c 128,-1,39
 119 450 119 450 109.5 454.5 c 128,-1,32
 100 459 100 459 100 475 c 128,-1,33
150 575 m 128,-1,41
 150 591 150 591 159.5 595.5 c 128,-1,42
 169 600 169 600 200 600 c 128,-1,43
 231 600 231 600 240.5 595.5 c 128,-1,44
 250 591 250 591 250 575 c 128,-1,45
 250 559 250 559 240.5 554.5 c 128,-1,46
 231 550 231 550 200 550 c 128,-1,47
 169 550 169 550 159.5 554.5 c 128,-1,40
 150 559 150 559 150 575 c 128,-1,41
200 675 m 128,-1,49
 200 691 200 691 209.5 695.5 c 128,-1,50
 219 700 219 700 250 700 c 128,-1,51
 281 700 281 700 290.5 695.5 c 128,-1,52
 300 691 300 691 300 675 c 128,-1,53
 300 659 300 659 290.5 654.5 c 128,-1,54
 281 650 281 650 250 650 c 128,-1,55
 219 650 219 650 209.5 654.5 c 128,-1,48
 200 659 200 659 200 675 c 128,-1,49
EndSplineSet
Validated: 1
EndChar

StartChar: parenright
Encoding: 41 41 42
Width: 500
Flags: W
LayerCount: 2
Fore
SplineSet
100 75 m 128,-1,1
 100 91 100 91 109.5 95.5 c 128,-1,2
 119 100 119 100 150 100 c 128,-1,3
 181 100 181 100 190.5 95.5 c 128,-1,4
 200 91 200 91 200 75 c 128,-1,5
 200 59 200 59 190.5 54.5 c 128,-1,6
 181 50 181 50 150 50 c 128,-1,7
 119 50 119 50 109.5 54.5 c 128,-1,0
 100 59 100 59 100 75 c 128,-1,1
150 175 m 128,-1,9
 150 191 150 191 159.5 195.5 c 128,-1,10
 169 200 169 200 200 200 c 128,-1,11
 231 200 231 200 240.5 195.5 c 128,-1,12
 250 191 250 191 250 175 c 128,-1,13
 250 159 250 159 240.5 154.5 c 128,-1,14
 231 150 231 150 200 150 c 128,-1,15
 169 150 169 150 159.5 154.5 c 128,-1,8
 150 159 150 159 150 175 c 128,-1,9
200 275 m 128,-1,17
 200 291 200 291 209.5 295.5 c 128,-1,18
 219 300 219 300 250 300 c 128,-1,19
 281 300 281 300 290.5 295.5 c 128,-1,20
 300 291 300 291 300 275 c 128,-1,21
 300 259 300 259 290.5 254.5 c 128,-1,22
 281 250 281 250 250 250 c 128,-1,23
 219 250 219 250 209.5 254.5 c 128,-1,16
 200 259 200 259 200 275 c 128,-1,17
200 375 m 128,-1,25
 200 391 200 391 209.5 395.5 c 128,-1,26
 219 400 219 400 250 400 c 128,-1,27
 281 400 281 400 290.5 395.5 c 128,-1,28
 300 391 300 391 300 375 c 128,-1,29
 300 359 300 359 290.5 354.5 c 128,-1,30
 281 350 281 350 250 350 c 128,-1,31
 219 350 219 350 209.5 354.5 c 128,-1,24
 200 359 200 359 200 375 c 128,-1,25
200 475 m 128,-1,33
 200 491 200 491 209.5 495.5 c 128,-1,34
 219 500 219 500 250 500 c 128,-1,35
 281 500 281 500 290.5 495.5 c 128,-1,36
 300 491 300 491 300 475 c 128,-1,37
 300 459 300 459 290.5 454.5 c 128,-1,38
 281 450 281 450 250 450 c 128,-1,39
 219 450 219 450 209.5 454.5 c 128,-1,32
 200 459 200 459 200 475 c 128,-1,33
150 575 m 128,-1,41
 150 591 150 591 159.5 595.5 c 128,-1,42
 169 600 169 600 200 600 c 128,-1,43
 231 600 231 600 240.5 595.5 c 128,-1,44
 250 591 250 591 250 575 c 128,-1,45
 250 559 250 559 240.5 554.5 c 128,-1,46
 231 550 231 550 200 550 c 128,-1,47
 169 550 169 550 159.5 554.5 c 128,-1,40
 150 559 150 559 150 575 c 128,-1,41
100 675 m 128,-1,49
 100 691 100 691 109.5 695.5 c 128,-1,50
 119 700 119 700 150 700 c 128,-1,51
 181 700 181 700 190.5 695.5 c 128,-1,52
 200 691 200 691 200 675 c 128,-1,53
 200 659 200 659 190.5 654.5 c 128,-1,54
 181 650 181 650 150 650 c 128,-1,55
 119 650 119 650 109.5 654.5 c 128,-1,48
 100 659 100 659 100 675 c 128,-1,49
EndSplineSet
Validated: 1
EndChar

StartChar: asterisk
Encoding: 42 42 43
Width: 500
Flags: W
LayerCount: 2
Fore
SplineSet
250 175 m 128,-1,1
 250 191 250 191 259.5 195.5 c 128,-1,2
 269 200 269 200 300 200 c 128,-1,3
 331 200 331 200 340.5 195.5 c 128,-1,4
 350 191 350 191 350 175 c 128,-1,5
 350 159 350 159 340.5 154.5 c 128,-1,6
 331 150 331 150 300 150 c 128,-1,7
 269 150 269 150 259.5 154.5 c 128,-1,0
 250 159 250 159 250 175 c 128,-1,1
50 175 m 128,-1,9
 50 191 50 191 59.5 195.5 c 128,-1,10
 69 200 69 200 100 200 c 128,-1,11
 131 200 131 200 140.5 195.5 c 128,-1,12
 150 191 150 191 150 175 c 128,-1,13
 150 159 150 159 140.5 154.5 c 128,-1,14
 131 150 131 150 100 150 c 128,-1,15
 69 150 69 150 59.5 154.5 c 128,-1,8
 50 159 50 159 50 175 c 128,-1,9
100 275 m 128,-1,17
 100 292 100 292 116 296 c 128,-1,18
 132 300 132 300 200 300 c 128,-1,19
 268 300 268 300 284 296 c 128,-1,20
 300 292 300 292 300 275 c 128,-1,21
 300 258 300 258 284 254 c 128,-1,22
 268 250 268 250 200 250 c 128,-1,23
 132 250 132 250 116 254 c 128,-1,16
 100 258 100 258 100 275 c 128,-1,17
0 375 m 0,24,25
 0 390 0 390 15 394 c 0,26,27
 39 400 39 400 200 400 c 0,28,29
 373 400 373 400 391 391 c 0,30,31
 400 387 400 387 400 375 c 0,32,33
 400 360 400 360 385 356 c 0,34,35
 361 350 361 350 200 350 c 0,36,37
 27 350 27 350 9 359 c 0,38,39
 0 363 0 363 0 375 c 0,24,25
100 475 m 128,-1,41
 100 492 100 492 116 496 c 128,-1,42
 132 500 132 500 200 500 c 128,-1,43
 268 500 268 500 284 496 c 128,-1,44
 300 492 300 492 300 475 c 128,-1,45
 300 458 300 458 284 454 c 128,-1,46
 268 450 268 450 200 450 c 128,-1,47
 132 450 132 450 116 454 c 128,-1,40
 100 458 100 458 100 475 c 128,-1,41
250 575 m 128,-1,49
 250 591 250 591 259.5 595.5 c 128,-1,50
 269 600 269 600 300 600 c 128,-1,51
 331 600 331 600 340.5 595.5 c 128,-1,52
 350 591 350 591 350 575 c 128,-1,53
 350 559 350 559 340.5 554.5 c 128,-1,54
 331 550 331 550 300 550 c 128,-1,55
 269 550 269 550 259.5 554.5 c 128,-1,48
 250 559 250 559 250 575 c 128,-1,49
50 575 m 128,-1,57
 50 591 50 591 59.5 595.5 c 128,-1,58
 69 600 69 600 100 600 c 128,-1,59
 131 600 131 600 140.5 595.5 c 128,-1,60
 150 591 150 591 150 575 c 128,-1,61
 150 559 150 559 140.5 554.5 c 128,-1,62
 131 550 131 550 100 550 c 128,-1,63
 69 550 69 550 59.5 554.5 c 128,-1,56
 50 559 50 559 50 575 c 128,-1,57
EndSplineSet
Validated: 1
EndChar

StartChar: plus
Encoding: 43 43 44
Width: 500
Flags: W
LayerCount: 2
Fore
SplineSet
150 175 m 128,-1,1
 150 191 150 191 159.5 195.5 c 128,-1,2
 169 200 169 200 200 200 c 128,-1,3
 231 200 231 200 240.5 195.5 c 128,-1,4
 250 191 250 191 250 175 c 128,-1,5
 250 159 250 159 240.5 154.5 c 128,-1,6
 231 150 231 150 200 150 c 128,-1,7
 169 150 169 150 159.5 154.5 c 128,-1,0
 150 159 150 159 150 175 c 128,-1,1
150 275 m 128,-1,9
 150 291 150 291 159.5 295.5 c 128,-1,10
 169 300 169 300 200 300 c 128,-1,11
 231 300 231 300 240.5 295.5 c 128,-1,12
 250 291 250 291 250 275 c 128,-1,13
 250 259 250 259 240.5 254.5 c 128,-1,14
 231 250 231 250 200 250 c 128,-1,15
 169 250 169 250 159.5 254.5 c 128,-1,8
 150 259 150 259 150 275 c 128,-1,9
0 375 m 0,16,17
 0 390 0 390 15 394 c 0,18,19
 39 400 39 400 200 400 c 0,20,21
 373 400 373 400 391 391 c 0,22,23
 400 387 400 387 400 375 c 0,24,25
 400 360 400 360 385 356 c 0,26,27
 361 350 361 350 200 350 c 0,28,29
 27 350 27 350 9 359 c 0,30,31
 0 363 0 363 0 375 c 0,16,17
150 475 m 128,-1,33
 150 491 150 491 159.5 495.5 c 128,-1,34
 169 500 169 500 200 500 c 128,-1,35
 231 500 231 500 240.5 495.5 c 128,-1,36
 250 491 250 491 250 475 c 128,-1,37
 250 459 250 459 240.5 454.5 c 128,-1,38
 231 450 231 450 200 450 c 128,-1,39
 169 450 169 450 159.5 454.5 c 128,-1,32
 150 459 150 459 150 475 c 128,-1,33
150 575 m 128,-1,41
 150 591 150 591 159.5 595.5 c 128,-1,42
 169 600 169 600 200 600 c 128,-1,43
 231 600 231 600 240.5 595.5 c 128,-1,44
 250 591 250 591 250 575 c 128,-1,45
 250 559 250 559 240.5 554.5 c 128,-1,46
 231 550 231 550 200 550 c 128,-1,47
 169 550 169 550 159.5 554.5 c 128,-1,40
 150 559 150 559 150 575 c 128,-1,41
EndSplineSet
Validated: 1
EndChar

StartChar: comma
Encoding: 44 44 45
Width: 500
Flags: W
LayerCount: 2
Fore
SplineSet
50 -25 m 128,-1,1
 50 -9 50 -9 59.5 -4.5 c 128,-1,2
 69 0 69 0 100 0 c 128,-1,3
 131 0 131 0 140.5 -4.5 c 128,-1,4
 150 -9 150 -9 150 -25 c 128,-1,5
 150 -41 150 -41 140.5 -45.5 c 128,-1,6
 131 -50 131 -50 100 -50 c 128,-1,7
 69 -50 69 -50 59.5 -45.5 c 128,-1,0
 50 -41 50 -41 50 -25 c 128,-1,1
100 75 m 128,-1,9
 100 91 100 91 109.5 95.5 c 128,-1,10
 119 100 119 100 150 100 c 128,-1,11
 181 100 181 100 190.5 95.5 c 128,-1,12
 200 91 200 91 200 75 c 128,-1,13
 200 59 200 59 190.5 54.5 c 128,-1,14
 181 50 181 50 150 50 c 128,-1,15
 119 50 119 50 109.5 54.5 c 128,-1,8
 100 59 100 59 100 75 c 128,-1,9
100 175 m 128,-1,17
 100 192 100 192 113 196 c 128,-1,18
 126 200 126 200 175 200 c 128,-1,19
 224 200 224 200 237 196 c 128,-1,20
 250 192 250 192 250 175 c 128,-1,21
 250 158 250 158 237 154 c 128,-1,22
 224 150 224 150 175 150 c 128,-1,23
 126 150 126 150 113 154 c 128,-1,16
 100 158 100 158 100 175 c 128,-1,17
EndSplineSet
Validated: 1
EndChar

StartChar: hyphen
Encoding: 45 45 46
Width: 500
Flags: W
LayerCount: 2
Fore
SplineSet
0 375 m 0,0,1
 0 390 0 390 15 394 c 0,2,3
 39 400 39 400 200 400 c 0,4,5
 373 400 373 400 391 391 c 0,6,7
 400 387 400 387 400 375 c 0,8,9
 400 360 400 360 385 356 c 0,10,11
 361 350 361 350 200 350 c 0,12,13
 27 350 27 350 9 359 c 0,14,15
 0 363 0 363 0 375 c 0,0,1
EndSplineSet
Validated: 1
EndChar

StartChar: period
Encoding: 46 46 47
Width: 500
Flags: W
LayerCount: 2
Fore
SplineSet
100 75 m 128,-1,1
 100 92 100 92 113 96 c 128,-1,2
 126 100 126 100 175 100 c 128,-1,3
 224 100 224 100 237 96 c 128,-1,4
 250 92 250 92 250 75 c 128,-1,5
 250 58 250 58 237 54 c 128,-1,6
 224 50 224 50 175 50 c 128,-1,7
 126 50 126 50 113 54 c 128,-1,0
 100 58 100 58 100 75 c 128,-1,1
100 175 m 128,-1,9
 100 192 100 192 113 196 c 128,-1,10
 126 200 126 200 175 200 c 128,-1,11
 224 200 224 200 237 196 c 128,-1,12
 250 192 250 192 250 175 c 128,-1,13
 250 158 250 158 237 154 c 128,-1,14
 224 150 224 150 175 150 c 128,-1,15
 126 150 126 150 113 154 c 128,-1,8
 100 158 100 158 100 175 c 128,-1,9
EndSplineSet
Validated: 1
EndChar

StartChar: slash
Encoding: 47 47 48
Width: 500
Flags: W
LayerCount: 2
Fore
SplineSet
0 75 m 128,-1,1
 0 91 0 91 9.5 95.5 c 128,-1,2
 19 100 19 100 50 100 c 128,-1,3
 81 100 81 100 90.5 95.5 c 128,-1,4
 100 91 100 91 100 75 c 128,-1,5
 100 59 100 59 90.5 54.5 c 128,-1,6
 81 50 81 50 50 50 c 128,-1,7
 19 50 19 50 9.5 54.5 c 128,-1,0
 0 59 0 59 0 75 c 128,-1,1
50 175 m 128,-1,9
 50 191 50 191 59.5 195.5 c 128,-1,10
 69 200 69 200 100 200 c 128,-1,11
 131 200 131 200 140.5 195.5 c 128,-1,12
 150 191 150 191 150 175 c 128,-1,13
 150 159 150 159 140.5 154.5 c 128,-1,14
 131 150 131 150 100 150 c 128,-1,15
 69 150 69 150 59.5 154.5 c 128,-1,8
 50 159 50 159 50 175 c 128,-1,9
100 275 m 128,-1,17
 100 291 100 291 109.5 295.5 c 128,-1,18
 119 300 119 300 150 300 c 128,-1,19
 181 300 181 300 190.5 295.5 c 128,-1,20
 200 291 200 291 200 275 c 128,-1,21
 200 259 200 259 190.5 254.5 c 128,-1,22
 181 250 181 250 150 250 c 128,-1,23
 119 250 119 250 109.5 254.5 c 128,-1,16
 100 259 100 259 100 275 c 128,-1,17
150 375 m 128,-1,25
 150 391 150 391 159.5 395.5 c 128,-1,26
 169 400 169 400 200 400 c 128,-1,27
 231 400 231 400 240.5 395.5 c 128,-1,28
 250 391 250 391 250 375 c 128,-1,29
 250 359 250 359 240.5 354.5 c 128,-1,30
 231 350 231 350 200 350 c 128,-1,31
 169 350 169 350 159.5 354.5 c 128,-1,24
 150 359 150 359 150 375 c 128,-1,25
200 475 m 128,-1,33
 200 491 200 491 209.5 495.5 c 128,-1,34
 219 500 219 500 250 500 c 128,-1,35
 281 500 281 500 290.5 495.5 c 128,-1,36
 300 491 300 491 300 475 c 128,-1,37
 300 459 300 459 290.5 454.5 c 128,-1,38
 281 450 281 450 250 450 c 128,-1,39
 219 450 219 450 209.5 454.5 c 128,-1,32
 200 459 200 459 200 475 c 128,-1,33
250 575 m 128,-1,41
 250 591 250 591 259.5 595.5 c 128,-1,42
 269 600 269 600 300 600 c 128,-1,43
 331 600 331 600 340.5 595.5 c 128,-1,44
 350 591 350 591 350 575 c 128,-1,45
 350 559 350 559 340.5 554.5 c 128,-1,46
 331 550 331 550 300 550 c 128,-1,47
 269 550 269 550 259.5 554.5 c 128,-1,40
 250 559 250 559 250 575 c 128,-1,41
300 675 m 128,-1,49
 300 691 300 691 309.5 695.5 c 128,-1,50
 319 700 319 700 350 700 c 128,-1,51
 381 700 381 700 390.5 695.5 c 128,-1,52
 400 691 400 691 400 675 c 128,-1,53
 400 659 400 659 390.5 654.5 c 128,-1,54
 381 650 381 650 350 650 c 128,-1,55
 319 650 319 650 309.5 654.5 c 128,-1,48
 300 659 300 659 300 675 c 128,-1,49
EndSplineSet
Validated: 1
EndChar

StartChar: zero
Encoding: 48 48 49
Width: 500
Flags: W
LayerCount: 2
Fore
SplineSet
100 75 m 128,-1,1
 100 92 100 92 116 96 c 128,-1,2
 132 100 132 100 200 100 c 128,-1,3
 268 100 268 100 284 96 c 128,-1,4
 300 92 300 92 300 75 c 128,-1,5
 300 58 300 58 284 54 c 128,-1,6
 268 50 268 50 200 50 c 128,-1,7
 132 50 132 50 116 54 c 128,-1,0
 100 58 100 58 100 75 c 128,-1,1
250 175 m 128,-1,9
 250 191 250 191 259.5 195.5 c 128,-1,10
 269 200 269 200 300 200 c 128,-1,11
 331 200 331 200 340.5 195.5 c 128,-1,12
 350 191 350 191 350 175 c 128,-1,13
 350 159 350 159 340.5 154.5 c 128,-1,14
 331 150 331 150 300 150 c 128,-1,15
 269 150 269 150 259.5 154.5 c 128,-1,8
 250 159 250 159 250 175 c 128,-1,9
50 175 m 128,-1,17
 50 191 50 191 59.5 195.5 c 128,-1,18
 69 200 69 200 100 200 c 128,-1,19
 131 200 131 200 140.5 195.5 c 128,-1,20
 150 191 150 191 150 175 c 128,-1,21
 150 159 150 159 140.5 154.5 c 128,-1,22
 131 150 131 150 100 150 c 128,-1,23
 69 150 69 150 59.5 154.5 c 128,-1,16
 50 159 50 159 50 175 c 128,-1,17
300 275 m 128,-1,25
 300 291 300 291 309.5 295.5 c 128,-1,26
 319 300 319 300 350 300 c 128,-1,27
 381 300 381 300 390.5 295.5 c 128,-1,28
 400 291 400 291 400 275 c 128,-1,29
 400 259 400 259 390.5 254.5 c 128,-1,30
 381 250 381 250 350 250 c 128,-1,31
 319 250 319 250 309.5 254.5 c 128,-1,24
 300 259 300 259 300 275 c 128,-1,25
0 275 m 128,-1,33
 0 291 0 291 9.5 295.5 c 128,-1,34
 19 300 19 300 50 300 c 128,-1,35
 81 300 81 300 90.5 295.5 c 128,-1,36
 100 291 100 291 100 275 c 128,-1,37
 100 259 100 259 90.5 254.5 c 128,-1,38
 81 250 81 250 50 250 c 128,-1,39
 19 250 19 250 9.5 254.5 c 128,-1,32
 0 259 0 259 0 275 c 128,-1,33
300 375 m 128,-1,41
 300 391 300 391 309.5 395.5 c 128,-1,42
 319 400 319 400 350 400 c 128,-1,43
 381 400 381 400 390.5 395.5 c 128,-1,44
 400 391 400 391 400 375 c 128,-1,45
 400 359 400 359 390.5 354.5 c 128,-1,46
 381 350 381 350 350 350 c 128,-1,47
 319 350 319 350 309.5 354.5 c 128,-1,40
 300 359 300 359 300 375 c 128,-1,41
0 375 m 128,-1,49
 0 391 0 391 9.5 395.5 c 128,-1,50
 19 400 19 400 50 400 c 128,-1,51
 81 400 81 400 90.5 395.5 c 128,-1,52
 100 391 100 391 100 375 c 128,-1,53
 100 359 100 359 90.5 354.5 c 128,-1,54
 81 350 81 350 50 350 c 128,-1,55
 19 350 19 350 9.5 354.5 c 128,-1,48
 0 359 0 359 0 375 c 128,-1,49
300 475 m 128,-1,57
 300 491 300 491 309.5 495.5 c 128,-1,58
 319 500 319 500 350 500 c 128,-1,59
 381 500 381 500 390.5 495.5 c 128,-1,60
 400 491 400 491 400 475 c 128,-1,61
 400 459 400 459 390.5 454.5 c 128,-1,62
 381 450 381 450 350 450 c 128,-1,63
 319 450 319 450 309.5 454.5 c 128,-1,56
 300 459 300 459 300 475 c 128,-1,57
0 475 m 128,-1,65
 0 491 0 491 9.5 495.5 c 128,-1,66
 19 500 19 500 50 500 c 128,-1,67
 81 500 81 500 90.5 495.5 c 128,-1,68
 100 491 100 491 100 475 c 128,-1,69
 100 459 100 459 90.5 454.5 c 128,-1,70
 81 450 81 450 50 450 c 128,-1,71
 19 450 19 450 9.5 454.5 c 128,-1,64
 0 459 0 459 0 475 c 128,-1,65
250 575 m 128,-1,73
 250 591 250 591 259.5 595.5 c 128,-1,74
 269 600 269 600 300 600 c 128,-1,75
 331 600 331 600 340.5 595.5 c 128,-1,76
 350 591 350 591 350 575 c 128,-1,77
 350 559 350 559 340.5 554.5 c 128,-1,78
 331 550 331 550 300 550 c 128,-1,79
 269 550 269 550 259.5 554.5 c 128,-1,72
 250 559 250 559 250 575 c 128,-1,73
50 575 m 128,-1,81
 50 591 50 591 59.5 595.5 c 128,-1,82
 69 600 69 600 100 600 c 128,-1,83
 131 600 131 600 140.5 595.5 c 128,-1,84
 150 591 150 591 150 575 c 128,-1,85
 150 559 150 559 140.5 554.5 c 128,-1,86
 131 550 131 550 100 550 c 128,-1,87
 69 550 69 550 59.5 554.5 c 128,-1,80
 50 559 50 559 50 575 c 128,-1,81
100 675 m 128,-1,89
 100 692 100 692 116 696 c 128,-1,90
 132 700 132 700 200 700 c 128,-1,91
 268 700 268 700 284 696 c 128,-1,92
 300 692 300 692 300 675 c 128,-1,93
 300 658 300 658 284 654 c 128,-1,94
 268 650 268 650 200 650 c 128,-1,95
 132 650 132 650 116 654 c 128,-1,88
 100 658 100 658 100 675 c 128,-1,89
EndSplineSet
Validated: 1
EndChar

StartChar: one
Encoding: 49 49 50
Width: 500
Flags: W
LayerCount: 2
Fore
SplineSet
50 75 m 0,0,1
 50 91 50 91 65 95 c 0,2,3
 84 100 84 100 200 100 c 0,4,5
 329 100 329 100 343 91 c 0,6,7
 350 87 350 87 350 75 c 0,8,9
 350 59 350 59 335 55 c 0,10,11
 316 50 316 50 200 50 c 0,12,13
 71 50 71 50 57 59 c 0,14,15
 50 63 50 63 50 75 c 0,0,1
150 175 m 128,-1,17
 150 191 150 191 159.5 195.5 c 128,-1,18
 169 200 169 200 200 200 c 128,-1,19
 231 200 231 200 240.5 195.5 c 128,-1,20
 250 191 250 191 250 175 c 128,-1,21
 250 159 250 159 240.5 154.5 c 128,-1,22
 231 150 231 150 200 150 c 128,-1,23
 169 150 169 150 159.5 154.5 c 128,-1,16
 150 159 150 159 150 175 c 128,-1,17
150 275 m 128,-1,25
 150 291 150 291 159.5 295.5 c 128,-1,26
 169 300 169 300 200 300 c 128,-1,27
 231 300 231 300 240.5 295.5 c 128,-1,28
 250 291 250 291 250 275 c 128,-1,29
 250 259 250 259 240.5 254.5 c 128,-1,30
 231 250 231 250 200 250 c 128,-1,31
 169 250 169 250 159.5 254.5 c 128,-1,24
 150 259 150 259 150 275 c 128,-1,25
150 375 m 128,-1,33
 150 391 150 391 159.5 395.5 c 128,-1,34
 169 400 169 400 200 400 c 128,-1,35
 231 400 231 400 240.5 395.5 c 128,-1,36
 250 391 250 391 250 375 c 128,-1,37
 250 359 250 359 240.5 354.5 c 128,-1,38
 231 350 231 350 200 350 c 128,-1,39
 169 350 169 350 159.5 354.5 c 128,-1,32
 150 359 150 359 150 375 c 128,-1,33
50 475 m 128,-1,41
 50 492 50 492 66 496 c 128,-1,42
 82 500 82 500 150 500 c 128,-1,43
 218 500 218 500 234 496 c 128,-1,44
 250 492 250 492 250 475 c 128,-1,45
 250 458 250 458 234 454 c 128,-1,46
 218 450 218 450 150 450 c 128,-1,47
 82 450 82 450 66 454 c 128,-1,40
 50 458 50 458 50 475 c 128,-1,41
100 575 m 128,-1,49
 100 592 100 592 113 596 c 128,-1,50
 126 600 126 600 175 600 c 128,-1,51
 224 600 224 600 237 596 c 128,-1,52
 250 592 250 592 250 575 c 128,-1,53
 250 558 250 558 237 554 c 128,-1,54
 224 550 224 550 175 550 c 128,-1,55
 126 550 126 550 113 554 c 128,-1,48
 100 558 100 558 100 575 c 128,-1,49
150 675 m 128,-1,57
 150 691 150 691 159.5 695.5 c 128,-1,58
 169 700 169 700 200 700 c 128,-1,59
 231 700 231 700 240.5 695.5 c 128,-1,60
 250 691 250 691 250 675 c 128,-1,61
 250 659 250 659 240.5 654.5 c 128,-1,62
 231 650 231 650 200 650 c 128,-1,63
 169 650 169 650 159.5 654.5 c 128,-1,56
 150 659 150 659 150 675 c 128,-1,57
EndSplineSet
Validated: 1
EndChar

StartChar: two
Encoding: 50 50 51
Width: 500
Flags: W
LayerCount: 2
Fore
SplineSet
0 75 m 0,0,1
 0 90 0 90 15 94 c 0,2,3
 39 100 39 100 200 100 c 0,4,5
 373 100 373 100 391 91 c 0,6,7
 400 87 400 87 400 75 c 0,8,9
 400 60 400 60 385 56 c 0,10,11
 361 50 361 50 200 50 c 0,12,13
 27 50 27 50 9 59 c 0,14,15
 0 63 0 63 0 75 c 0,0,1
0 175 m 128,-1,17
 0 191 0 191 9.5 195.5 c 128,-1,18
 19 200 19 200 50 200 c 128,-1,19
 81 200 81 200 90.5 195.5 c 128,-1,20
 100 191 100 191 100 175 c 128,-1,21
 100 159 100 159 90.5 154.5 c 128,-1,22
 81 150 81 150 50 150 c 128,-1,23
 19 150 19 150 9.5 154.5 c 128,-1,16
 0 159 0 159 0 175 c 128,-1,17
50 275 m 128,-1,25
 50 292 50 292 63 296 c 128,-1,26
 76 300 76 300 125 300 c 128,-1,27
 174 300 174 300 187 296 c 128,-1,28
 200 292 200 292 200 275 c 128,-1,29
 200 258 200 258 187 254 c 128,-1,30
 174 250 174 250 125 250 c 128,-1,31
 76 250 76 250 63 254 c 128,-1,24
 50 258 50 258 50 275 c 128,-1,25
150 375 m 128,-1,33
 150 392 150 392 166 396 c 128,-1,34
 182 400 182 400 250 400 c 128,-1,35
 318 400 318 400 334 396 c 128,-1,36
 350 392 350 392 350 375 c 128,-1,37
 350 358 350 358 334 354 c 128,-1,38
 318 350 318 350 250 350 c 128,-1,39
 182 350 182 350 166 354 c 128,-1,32
 150 358 150 358 150 375 c 128,-1,33
300 475 m 128,-1,41
 300 491 300 491 309.5 495.5 c 128,-1,42
 319 500 319 500 350 500 c 128,-1,43
 381 500 381 500 390.5 495.5 c 128,-1,44
 400 491 400 491 400 475 c 128,-1,45
 400 459 400 459 390.5 454.5 c 128,-1,46
 381 450 381 450 350 450 c 128,-1,47
 319 450 319 450 309.5 454.5 c 128,-1,40
 300 459 300 459 300 475 c 128,-1,41
300 575 m 128,-1,49
 300 591 300 591 309.5 595.5 c 128,-1,50
 319 600 319 600 350 600 c 128,-1,51
 381 600 381 600 390.5 595.5 c 128,-1,52
 400 591 400 591 400 575 c 128,-1,53
 400 559 400 559 390.5 554.5 c 128,-1,54
 381 550 381 550 350 550 c 128,-1,55
 319 550 319 550 309.5 554.5 c 128,-1,48
 300 559 300 559 300 575 c 128,-1,49
0 575 m 128,-1,57
 0 591 0 591 9.5 595.5 c 128,-1,58
 19 600 19 600 50 600 c 128,-1,59
 81 600 81 600 90.5 595.5 c 128,-1,60
 100 591 100 591 100 575 c 128,-1,61
 100 559 100 559 90.5 554.5 c 128,-1,62
 81 550 81 550 50 550 c 128,-1,63
 19 550 19 550 9.5 554.5 c 128,-1,56
 0 559 0 559 0 575 c 128,-1,57
50 675 m 0,64,65
 50 691 50 691 65 695 c 0,66,67
 84 700 84 700 200 700 c 0,68,69
 329 700 329 700 343 691 c 0,70,71
 350 687 350 687 350 675 c 0,72,73
 350 659 350 659 335 655 c 0,74,75
 316 650 316 650 200 650 c 0,76,77
 71 650 71 650 57 659 c 0,78,79
 50 663 50 663 50 675 c 0,64,65
EndSplineSet
Validated: 1
EndChar

StartChar: three
Encoding: 51 51 52
Width: 500
Flags: W
LayerCount: 2
Fore
SplineSet
50 75 m 0,0,1
 50 91 50 91 65 95 c 0,2,3
 84 100 84 100 200 100 c 0,4,5
 329 100 329 100 343 91 c 0,6,7
 350 87 350 87 350 75 c 0,8,9
 350 59 350 59 335 55 c 0,10,11
 316 50 316 50 200 50 c 0,12,13
 71 50 71 50 57 59 c 0,14,15
 50 63 50 63 50 75 c 0,0,1
300 175 m 128,-1,17
 300 191 300 191 309.5 195.5 c 128,-1,18
 319 200 319 200 350 200 c 128,-1,19
 381 200 381 200 390.5 195.5 c 128,-1,20
 400 191 400 191 400 175 c 128,-1,21
 400 159 400 159 390.5 154.5 c 128,-1,22
 381 150 381 150 350 150 c 128,-1,23
 319 150 319 150 309.5 154.5 c 128,-1,16
 300 159 300 159 300 175 c 128,-1,17
0 175 m 128,-1,25
 0 191 0 191 9.5 195.5 c 128,-1,26
 19 200 19 200 50 200 c 128,-1,27
 81 200 81 200 90.5 195.5 c 128,-1,28
 100 191 100 191 100 175 c 128,-1,29
 100 159 100 159 90.5 154.5 c 128,-1,30
 81 150 81 150 50 150 c 128,-1,31
 19 150 19 150 9.5 154.5 c 128,-1,24
 0 159 0 159 0 175 c 128,-1,25
300 275 m 128,-1,33
 300 291 300 291 309.5 295.5 c 128,-1,34
 319 300 319 300 350 300 c 128,-1,35
 381 300 381 300 390.5 295.5 c 128,-1,36
 400 291 400 291 400 275 c 128,-1,37
 400 259 400 259 390.5 254.5 c 128,-1,38
 381 250 381 250 350 250 c 128,-1,39
 319 250 319 250 309.5 254.5 c 128,-1,32
 300 259 300 259 300 275 c 128,-1,33
150 375 m 128,-1,41
 150 392 150 392 166 396 c 128,-1,42
 182 400 182 400 250 400 c 128,-1,43
 318 400 318 400 334 396 c 128,-1,44
 350 392 350 392 350 375 c 128,-1,45
 350 358 350 358 334 354 c 128,-1,46
 318 350 318 350 250 350 c 128,-1,47
 182 350 182 350 166 354 c 128,-1,40
 150 358 150 358 150 375 c 128,-1,41
200 475 m 128,-1,49
 200 491 200 491 209.5 495.5 c 128,-1,50
 219 500 219 500 250 500 c 128,-1,51
 281 500 281 500 290.5 495.5 c 128,-1,52
 300 491 300 491 300 475 c 128,-1,53
 300 459 300 459 290.5 454.5 c 128,-1,54
 281 450 281 450 250 450 c 128,-1,55
 219 450 219 450 209.5 454.5 c 128,-1,48
 200 459 200 459 200 475 c 128,-1,49
250 575 m 128,-1,57
 250 591 250 591 259.5 595.5 c 128,-1,58
 269 600 269 600 300 600 c 128,-1,59
 331 600 331 600 340.5 595.5 c 128,-1,60
 350 591 350 591 350 575 c 128,-1,61
 350 559 350 559 340.5 554.5 c 128,-1,62
 331 550 331 550 300 550 c 128,-1,63
 269 550 269 550 259.5 554.5 c 128,-1,56
 250 559 250 559 250 575 c 128,-1,57
0 675 m 0,64,65
 0 690 0 690 15 694 c 0,66,67
 39 700 39 700 200 700 c 0,68,69
 373 700 373 700 391 691 c 0,70,71
 400 687 400 687 400 675 c 0,72,73
 400 660 400 660 385 656 c 0,74,75
 361 650 361 650 200 650 c 0,76,77
 27 650 27 650 9 659 c 0,78,79
 0 663 0 663 0 675 c 0,64,65
EndSplineSet
Validated: 1
EndChar

StartChar: four
Encoding: 52 52 53
Width: 500
Flags: W
LayerCount: 2
Fore
SplineSet
200 75 m 128,-1,1
 200 91 200 91 209.5 95.5 c 128,-1,2
 219 100 219 100 250 100 c 128,-1,3
 281 100 281 100 290.5 95.5 c 128,-1,4
 300 91 300 91 300 75 c 128,-1,5
 300 59 300 59 290.5 54.5 c 128,-1,6
 281 50 281 50 250 50 c 128,-1,7
 219 50 219 50 209.5 54.5 c 128,-1,0
 200 59 200 59 200 75 c 128,-1,1
200 175 m 128,-1,9
 200 191 200 191 209.5 195.5 c 128,-1,10
 219 200 219 200 250 200 c 128,-1,11
 281 200 281 200 290.5 195.5 c 128,-1,12
 300 191 300 191 300 175 c 128,-1,13
 300 159 300 159 290.5 154.5 c 128,-1,14
 281 150 281 150 250 150 c 128,-1,15
 219 150 219 150 209.5 154.5 c 128,-1,8
 200 159 200 159 200 175 c 128,-1,9
0 275 m 0,16,17
 0 290 0 290 15 294 c 0,18,19
 39 300 39 300 200 300 c 0,20,21
 373 300 373 300 391 291 c 0,22,23
 400 287 400 287 400 275 c 0,24,25
 400 260 400 260 385 256 c 0,26,27
 361 250 361 250 200 250 c 0,28,29
 27 250 27 250 9 259 c 0,30,31
 0 263 0 263 0 275 c 0,16,17
200 375 m 128,-1,33
 200 391 200 391 209.5 395.5 c 128,-1,34
 219 400 219 400 250 400 c 128,-1,35
 281 400 281 400 290.5 395.5 c 128,-1,36
 300 391 300 391 300 375 c 128,-1,37
 300 359 300 359 290.5 354.5 c 128,-1,38
 281 350 281 350 250 350 c 128,-1,39
 219 350 219 350 209.5 354.5 c 128,-1,32
 200 359 200 359 200 375 c 128,-1,33
50 375 m 128,-1,41
 50 391 50 391 59.5 395.5 c 128,-1,42
 69 400 69 400 100 400 c 128,-1,43
 131 400 131 400 140.5 395.5 c 128,-1,44
 150 391 150 391 150 375 c 128,-1,45
 150 359 150 359 140.5 354.5 c 128,-1,46
 131 350 131 350 100 350 c 128,-1,47
 69 350 69 350 59.5 354.5 c 128,-1,40
 50 359 50 359 50 375 c 128,-1,41
100 475 m 128,-1,49
 100 492 100 492 116 496 c 128,-1,50
 132 500 132 500 200 500 c 128,-1,51
 268 500 268 500 284 496 c 128,-1,52
 300 492 300 492 300 475 c 128,-1,53
 300 458 300 458 284 454 c 128,-1,54
 268 450 268 450 200 450 c 128,-1,55
 132 450 132 450 116 454 c 128,-1,48
 100 458 100 458 100 475 c 128,-1,49
150 575 m 128,-1,57
 150 592 150 592 163 596 c 128,-1,58
 176 600 176 600 225 600 c 128,-1,59
 274 600 274 600 287 596 c 128,-1,60
 300 592 300 592 300 575 c 128,-1,61
 300 558 300 558 287 554 c 128,-1,62
 274 550 274 550 225 550 c 128,-1,63
 176 550 176 550 163 554 c 128,-1,56
 150 558 150 558 150 575 c 128,-1,57
200 675 m 128,-1,65
 200 691 200 691 209.5 695.5 c 128,-1,66
 219 700 219 700 250 700 c 128,-1,67
 281 700 281 700 290.5 695.5 c 128,-1,68
 300 691 300 691 300 675 c 128,-1,69
 300 659 300 659 290.5 654.5 c 128,-1,70
 281 650 281 650 250 650 c 128,-1,71
 219 650 219 650 209.5 654.5 c 128,-1,64
 200 659 200 659 200 675 c 128,-1,65
EndSplineSet
Validated: 1
EndChar

StartChar: five
Encoding: 53 53 54
Width: 500
Flags: W
LayerCount: 2
Fore
SplineSet
50 75 m 0,0,1
 50 91 50 91 65 95 c 0,2,3
 84 100 84 100 200 100 c 0,4,5
 329 100 329 100 343 91 c 0,6,7
 350 87 350 87 350 75 c 0,8,9
 350 59 350 59 335 55 c 0,10,11
 316 50 316 50 200 50 c 0,12,13
 71 50 71 50 57 59 c 0,14,15
 50 63 50 63 50 75 c 0,0,1
300 175 m 128,-1,17
 300 191 300 191 309.5 195.5 c 128,-1,18
 319 200 319 200 350 200 c 128,-1,19
 381 200 381 200 390.5 195.5 c 128,-1,20
 400 191 400 191 400 175 c 128,-1,21
 400 159 400 159 390.5 154.5 c 128,-1,22
 381 150 381 150 350 150 c 128,-1,23
 319 150 319 150 309.5 154.5 c 128,-1,16
 300 159 300 159 300 175 c 128,-1,17
0 175 m 128,-1,25
 0 191 0 191 9.5 195.5 c 128,-1,26
 19 200 19 200 50 200 c 128,-1,27
 81 200 81 200 90.5 195.5 c 128,-1,28
 100 191 100 191 100 175 c 128,-1,29
 100 159 100 159 90.5 154.5 c 128,-1,30
 81 150 81 150 50 150 c 128,-1,31
 19 150 19 150 9.5 154.5 c 128,-1,24
 0 159 0 159 0 175 c 128,-1,25
300 275 m 128,-1,33
 300 291 300 291 309.5 295.5 c 128,-1,34
 319 300 319 300 350 300 c 128,-1,35
 381 300 381 300 390.5 295.5 c 128,-1,36
 400 291 400 291 400 275 c 128,-1,37
 400 259 400 259 390.5 254.5 c 128,-1,38
 381 250 381 250 350 250 c 128,-1,39
 319 250 319 250 309.5 254.5 c 128,-1,32
 300 259 300 259 300 275 c 128,-1,33
300 375 m 128,-1,41
 300 391 300 391 309.5 395.5 c 128,-1,42
 319 400 319 400 350 400 c 128,-1,43
 381 400 381 400 390.5 395.5 c 128,-1,44
 400 391 400 391 400 375 c 128,-1,45
 400 359 400 359 390.5 354.5 c 128,-1,46
 381 350 381 350 350 350 c 128,-1,47
 319 350 319 350 309.5 354.5 c 128,-1,40
 300 359 300 359 300 375 c 128,-1,41
0 375 m 128,-1,49
 0 392 0 392 13 396 c 128,-1,50
 26 400 26 400 75 400 c 128,-1,51
 124 400 124 400 137 396 c 128,-1,52
 150 392 150 392 150 375 c 128,-1,53
 150 358 150 358 137 354 c 128,-1,54
 124 350 124 350 75 350 c 128,-1,55
 26 350 26 350 13 354 c 128,-1,48
 0 358 0 358 0 375 c 128,-1,49
0 475 m 0,56,57
 0 490 0 490 15 494 c 0,58,59
 37 500 37 500 175 500 c 0,60,61
 326 500 326 500 342 491 c 0,62,63
 350 487 350 487 350 475 c 0,64,65
 350 460 350 460 335 456 c 0,66,67
 313 450 313 450 175 450 c 0,68,69
 24 450 24 450 8 459 c 0,70,71
 0 463 0 463 0 475 c 0,56,57
0 575 m 128,-1,73
 0 591 0 591 9.5 595.5 c 128,-1,74
 19 600 19 600 50 600 c 128,-1,75
 81 600 81 600 90.5 595.5 c 128,-1,76
 100 591 100 591 100 575 c 128,-1,77
 100 559 100 559 90.5 554.5 c 128,-1,78
 81 550 81 550 50 550 c 128,-1,79
 19 550 19 550 9.5 554.5 c 128,-1,72
 0 559 0 559 0 575 c 128,-1,73
0 675 m 0,80,81
 0 690 0 690 15 694 c 0,82,83
 39 700 39 700 200 700 c 0,84,85
 373 700 373 700 391 691 c 0,86,87
 400 687 400 687 400 675 c 0,88,89
 400 660 400 660 385 656 c 0,90,91
 361 650 361 650 200 650 c 0,92,93
 27 650 27 650 9 659 c 0,94,95
 0 663 0 663 0 675 c 0,80,81
EndSplineSet
Validated: 1
EndChar

StartChar: six
Encoding: 54 54 55
Width: 500
Flags: W
LayerCount: 2
Fore
SplineSet
50 75 m 0,0,1
 50 91 50 91 65 95 c 0,2,3
 84 100 84 100 200 100 c 0,4,5
 329 100 329 100 343 91 c 0,6,7
 350 87 350 87 350 75 c 0,8,9
 350 59 350 59 335 55 c 0,10,11
 316 50 316 50 200 50 c 0,12,13
 71 50 71 50 57 59 c 0,14,15
 50 63 50 63 50 75 c 0,0,1
300 175 m 128,-1,17
 300 191 300 191 309.5 195.5 c 128,-1,18
 319 200 319 200 350 200 c 128,-1,19
 381 200 381 200 390.5 195.5 c 128,-1,20
 400 191 400 191 400 175 c 128,-1,21
 400 159 400 159 390.5 154.5 c 128,-1,22
 381 150 381 150 350 150 c 128,-1,23
 319 150 319 150 309.5 154.5 c 128,-1,16
 300 159 300 159 300 175 c 128,-1,17
0 175 m 128,-1,25
 0 191 0 191 9.5 195.5 c 128,-1,26
 19 200 19 200 50 200 c 128,-1,27
 81 200 81 200 90.5 195.5 c 128,-1,28
 100 191 100 191 100 175 c 128,-1,29
 100 159 100 159 90.5 154.5 c 128,-1,30
 81 150 81 150 50 150 c 128,-1,31
 19 150 19 150 9.5 154.5 c 128,-1,24
 0 159 0 159 0 175 c 128,-1,25
300 275 m 128,-1,33
 300 291 300 291 309.5 295.5 c 128,-1,34
 319 300 319 300 350 300 c 128,-1,35
 381 300 381 300 390.5 295.5 c 128,-1,36
 400 291 400 291 400 275 c 128,-1,37
 400 259 400 259 390.5 254.5 c 128,-1,38
 381 250 381 250 350 250 c 128,-1,39
 319 250 319 250 309.5 254.5 c 128,-1,32
 300 259 300 259 300 275 c 128,-1,33
0 275 m 128,-1,41
 0 292 0 292 13 296 c 128,-1,42
 26 300 26 300 75 300 c 128,-1,43
 124 300 124 300 137 296 c 128,-1,44
 150 292 150 292 150 275 c 128,-1,45
 150 258 150 258 137 254 c 128,-1,46
 124 250 124 250 75 250 c 128,-1,47
 26 250 26 250 13 254 c 128,-1,40
 0 258 0 258 0 275 c 128,-1,41
0 375 m 0,48,49
 0 390 0 390 15 394 c 0,50,51
 37 400 37 400 175 400 c 0,52,53
 326 400 326 400 342 391 c 0,54,55
 350 387 350 387 350 375 c 0,56,57
 350 360 350 360 335 356 c 0,58,59
 313 350 313 350 175 350 c 0,60,61
 24 350 24 350 8 359 c 0,62,63
 0 363 0 363 0 375 c 0,48,49
0 475 m 128,-1,65
 0 491 0 491 9.5 495.5 c 128,-1,66
 19 500 19 500 50 500 c 128,-1,67
 81 500 81 500 90.5 495.5 c 128,-1,68
 100 491 100 491 100 475 c 128,-1,69
 100 459 100 459 90.5 454.5 c 128,-1,70
 81 450 81 450 50 450 c 128,-1,71
 19 450 19 450 9.5 454.5 c 128,-1,64
 0 459 0 459 0 475 c 128,-1,65
50 575 m 128,-1,73
 50 591 50 591 59.5 595.5 c 128,-1,74
 69 600 69 600 100 600 c 128,-1,75
 131 600 131 600 140.5 595.5 c 128,-1,76
 150 591 150 591 150 575 c 128,-1,77
 150 559 150 559 140.5 554.5 c 128,-1,78
 131 550 131 550 100 550 c 128,-1,79
 69 550 69 550 59.5 554.5 c 128,-1,72
 50 559 50 559 50 575 c 128,-1,73
100 675 m 128,-1,81
 100 684 100 684 102.5 688.5 c 128,-1,82
 105 693 105 693 119.5 696 c 128,-1,83
 134 699 134 699 156 699.5 c 128,-1,84
 178 700 178 700 225 700 c 128,-1,85
 272 700 272 700 294 699.5 c 128,-1,86
 316 699 316 699 330.5 696 c 128,-1,87
 345 693 345 693 347.5 688.5 c 128,-1,88
 350 684 350 684 350 675 c 128,-1,89
 350 666 350 666 347.5 661.5 c 128,-1,90
 345 657 345 657 330.5 654 c 128,-1,91
 316 651 316 651 294 650.5 c 128,-1,92
 272 650 272 650 225 650 c 128,-1,93
 178 650 178 650 156 650.5 c 128,-1,94
 134 651 134 651 119.5 654 c 128,-1,95
 105 657 105 657 102.5 661.5 c 128,-1,80
 100 666 100 666 100 675 c 128,-1,81
EndSplineSet
Validated: 1
EndChar

StartChar: seven
Encoding: 55 55 56
Width: 500
Flags: W
LayerCount: 2
Fore
SplineSet
100 75 m 128,-1,1
 100 91 100 91 109.5 95.5 c 128,-1,2
 119 100 119 100 150 100 c 128,-1,3
 181 100 181 100 190.5 95.5 c 128,-1,4
 200 91 200 91 200 75 c 128,-1,5
 200 59 200 59 190.5 54.5 c 128,-1,6
 181 50 181 50 150 50 c 128,-1,7
 119 50 119 50 109.5 54.5 c 128,-1,0
 100 59 100 59 100 75 c 128,-1,1
100 175 m 128,-1,9
 100 191 100 191 109.5 195.5 c 128,-1,10
 119 200 119 200 150 200 c 128,-1,11
 181 200 181 200 190.5 195.5 c 128,-1,12
 200 191 200 191 200 175 c 128,-1,13
 200 159 200 159 190.5 154.5 c 128,-1,14
 181 150 181 150 150 150 c 128,-1,15
 119 150 119 150 109.5 154.5 c 128,-1,8
 100 159 100 159 100 175 c 128,-1,9
150 275 m 128,-1,17
 150 291 150 291 159.5 295.5 c 128,-1,18
 169 300 169 300 200 300 c 128,-1,19
 231 300 231 300 240.5 295.5 c 128,-1,20
 250 291 250 291 250 275 c 128,-1,21
 250 259 250 259 240.5 254.5 c 128,-1,22
 231 250 231 250 200 250 c 128,-1,23
 169 250 169 250 159.5 254.5 c 128,-1,16
 150 259 150 259 150 275 c 128,-1,17
200 375 m 128,-1,25
 200 391 200 391 209.5 395.5 c 128,-1,26
 219 400 219 400 250 400 c 128,-1,27
 281 400 281 400 290.5 395.5 c 128,-1,28
 300 391 300 391 300 375 c 128,-1,29
 300 359 300 359 290.5 354.5 c 128,-1,30
 281 350 281 350 250 350 c 128,-1,31
 219 350 219 350 209.5 354.5 c 128,-1,24
 200 359 200 359 200 375 c 128,-1,25
250 475 m 128,-1,33
 250 491 250 491 259.5 495.5 c 128,-1,34
 269 500 269 500 300 500 c 128,-1,35
 331 500 331 500 340.5 495.5 c 128,-1,36
 350 491 350 491 350 475 c 128,-1,37
 350 459 350 459 340.5 454.5 c 128,-1,38
 331 450 331 450 300 450 c 128,-1,39
 269 450 269 450 259.5 454.5 c 128,-1,32
 250 459 250 459 250 475 c 128,-1,33
300 575 m 128,-1,41
 300 591 300 591 309.5 595.5 c 128,-1,42
 319 600 319 600 350 600 c 128,-1,43
 381 600 381 600 390.5 595.5 c 128,-1,44
 400 591 400 591 400 575 c 128,-1,45
 400 559 400 559 390.5 554.5 c 128,-1,46
 381 550 381 550 350 550 c 128,-1,47
 319 550 319 550 309.5 554.5 c 128,-1,40
 300 559 300 559 300 575 c 128,-1,41
0 675 m 0,48,49
 0 690 0 690 15 694 c 0,50,51
 39 700 39 700 200 700 c 0,52,53
 373 700 373 700 391 691 c 0,54,55
 400 687 400 687 400 675 c 0,56,57
 400 660 400 660 385 656 c 0,58,59
 361 650 361 650 200 650 c 0,60,61
 27 650 27 650 9 659 c 0,62,63
 0 663 0 663 0 675 c 0,48,49
EndSplineSet
Validated: 1
EndChar

StartChar: eight
Encoding: 56 56 57
Width: 500
Flags: W
LayerCount: 2
Fore
SplineSet
50 75 m 0,0,1
 50 91 50 91 65 95 c 0,2,3
 84 100 84 100 200 100 c 0,4,5
 329 100 329 100 343 91 c 0,6,7
 350 87 350 87 350 75 c 0,8,9
 350 59 350 59 335 55 c 0,10,11
 316 50 316 50 200 50 c 0,12,13
 71 50 71 50 57 59 c 0,14,15
 50 63 50 63 50 75 c 0,0,1
300 175 m 128,-1,17
 300 191 300 191 309.5 195.5 c 128,-1,18
 319 200 319 200 350 200 c 128,-1,19
 381 200 381 200 390.5 195.5 c 128,-1,20
 400 191 400 191 400 175 c 128,-1,21
 400 159 400 159 390.5 154.5 c 128,-1,22
 381 150 381 150 350 150 c 128,-1,23
 319 150 319 150 309.5 154.5 c 128,-1,16
 300 159 300 159 300 175 c 128,-1,17
0 175 m 128,-1,25
 0 191 0 191 9.5 195.5 c 128,-1,26
 19 200 19 200 50 200 c 128,-1,27
 81 200 81 200 90.5 195.5 c 128,-1,28
 100 191 100 191 100 175 c 128,-1,29
 100 159 100 159 90.5 154.5 c 128,-1,30
 81 150 81 150 50 150 c 128,-1,31
 19 150 19 150 9.5 154.5 c 128,-1,24
 0 159 0 159 0 175 c 128,-1,25
300 275 m 128,-1,33
 300 291 300 291 309.5 295.5 c 128,-1,34
 319 300 319 300 350 300 c 128,-1,35
 381 300 381 300 390.5 295.5 c 128,-1,36
 400 291 400 291 400 275 c 128,-1,37
 400 259 400 259 390.5 254.5 c 128,-1,38
 381 250 381 250 350 250 c 128,-1,39
 319 250 319 250 309.5 254.5 c 128,-1,32
 300 259 300 259 300 275 c 128,-1,33
0 275 m 128,-1,41
 0 291 0 291 9.5 295.5 c 128,-1,42
 19 300 19 300 50 300 c 128,-1,43
 81 300 81 300 90.5 295.5 c 128,-1,44
 100 291 100 291 100 275 c 128,-1,45
 100 259 100 259 90.5 254.5 c 128,-1,46
 81 250 81 250 50 250 c 128,-1,47
 19 250 19 250 9.5 254.5 c 128,-1,40
 0 259 0 259 0 275 c 128,-1,41
50 375 m 0,48,49
 50 391 50 391 65 395 c 0,50,51
 84 400 84 400 200 400 c 0,52,53
 329 400 329 400 343 391 c 0,54,55
 350 387 350 387 350 375 c 0,56,57
 350 359 350 359 335 355 c 0,58,59
 316 350 316 350 200 350 c 0,60,61
 71 350 71 350 57 359 c 0,62,63
 50 363 50 363 50 375 c 0,48,49
300 475 m 128,-1,65
 300 491 300 491 309.5 495.5 c 128,-1,66
 319 500 319 500 350 500 c 128,-1,67
 381 500 381 500 390.5 495.5 c 128,-1,68
 400 491 400 491 400 475 c 128,-1,69
 400 459 400 459 390.5 454.5 c 128,-1,70
 381 450 381 450 350 450 c 128,-1,71
 319 450 319 450 309.5 454.5 c 128,-1,64
 300 459 300 459 300 475 c 128,-1,65
0 475 m 128,-1,73
 0 491 0 491 9.5 495.5 c 128,-1,74
 19 500 19 500 50 500 c 128,-1,75
 81 500 81 500 90.5 495.5 c 128,-1,76
 100 491 100 491 100 475 c 128,-1,77
 100 459 100 459 90.5 454.5 c 128,-1,78
 81 450 81 450 50 450 c 128,-1,79
 19 450 19 450 9.5 454.5 c 128,-1,72
 0 459 0 459 0 475 c 128,-1,73
300 575 m 128,-1,81
 300 591 300 591 309.5 595.5 c 128,-1,82
 319 600 319 600 350 600 c 128,-1,83
 381 600 381 600 390.5 595.5 c 128,-1,84
 400 591 400 591 400 575 c 128,-1,85
 400 559 400 559 390.5 554.5 c 128,-1,86
 381 550 381 550 350 550 c 128,-1,87
 319 550 319 550 309.5 554.5 c 128,-1,80
 300 559 300 559 300 575 c 128,-1,81
0 575 m 128,-1,89
 0 591 0 591 9.5 595.5 c 128,-1,90
 19 600 19 600 50 600 c 128,-1,91
 81 600 81 600 90.5 595.5 c 128,-1,92
 100 591 100 591 100 575 c 128,-1,93
 100 559 100 559 90.5 554.5 c 128,-1,94
 81 550 81 550 50 550 c 128,-1,95
 19 550 19 550 9.5 554.5 c 128,-1,88
 0 559 0 559 0 575 c 128,-1,89
50 675 m 0,96,97
 50 691 50 691 65 695 c 0,98,99
 84 700 84 700 200 700 c 0,100,101
 329 700 329 700 343 691 c 0,102,103
 350 687 350 687 350 675 c 0,104,105
 350 659 350 659 335 655 c 0,106,107
 316 650 316 650 200 650 c 0,108,109
 71 650 71 650 57 659 c 0,110,111
 50 663 50 663 50 675 c 0,96,97
EndSplineSet
Validated: 1
EndChar

StartChar: nine
Encoding: 57 57 58
Width: 500
Flags: W
LayerCount: 2
Fore
SplineSet
50 75 m 128,-1,1
 50 84 50 84 52.5 88.5 c 128,-1,2
 55 93 55 93 69.5 96 c 128,-1,3
 84 99 84 99 106 99.5 c 128,-1,4
 128 100 128 100 175 100 c 128,-1,5
 222 100 222 100 244 99.5 c 128,-1,6
 266 99 266 99 280.5 96 c 128,-1,7
 295 93 295 93 297.5 88.5 c 128,-1,8
 300 84 300 84 300 75 c 128,-1,9
 300 66 300 66 297.5 61.5 c 128,-1,10
 295 57 295 57 280.5 54 c 128,-1,11
 266 51 266 51 244 50.5 c 128,-1,12
 222 50 222 50 175 50 c 128,-1,13
 128 50 128 50 106 50.5 c 128,-1,14
 84 51 84 51 69.5 54 c 128,-1,15
 55 57 55 57 52.5 61.5 c 128,-1,0
 50 66 50 66 50 75 c 128,-1,1
250 175 m 128,-1,17
 250 191 250 191 259.5 195.5 c 128,-1,18
 269 200 269 200 300 200 c 128,-1,19
 331 200 331 200 340.5 195.5 c 128,-1,20
 350 191 350 191 350 175 c 128,-1,21
 350 159 350 159 340.5 154.5 c 128,-1,22
 331 150 331 150 300 150 c 128,-1,23
 269 150 269 150 259.5 154.5 c 128,-1,16
 250 159 250 159 250 175 c 128,-1,17
300 275 m 128,-1,25
 300 291 300 291 309.5 295.5 c 128,-1,26
 319 300 319 300 350 300 c 128,-1,27
 381 300 381 300 390.5 295.5 c 128,-1,28
 400 291 400 291 400 275 c 128,-1,29
 400 259 400 259 390.5 254.5 c 128,-1,30
 381 250 381 250 350 250 c 128,-1,31
 319 250 319 250 309.5 254.5 c 128,-1,24
 300 259 300 259 300 275 c 128,-1,25
50 375 m 0,32,33
 50 390 50 390 65 394 c 0,34,35
 87 400 87 400 225 400 c 0,36,37
 376 400 376 400 392 391 c 0,38,39
 400 387 400 387 400 375 c 0,40,41
 400 360 400 360 385 356 c 0,42,43
 363 350 363 350 225 350 c 0,44,45
 74 350 74 350 58 359 c 0,46,47
 50 363 50 363 50 375 c 0,32,33
250 475 m 128,-1,49
 250 492 250 492 263 496 c 128,-1,50
 276 500 276 500 325 500 c 0,51,52
 375 500 375 500 387.5 496 c 128,-1,53
 400 492 400 492 400 475 c 128,-1,54
 400 458 400 458 387.5 454 c 128,-1,55
 375 450 375 450 325 450 c 0,56,57
 276 450 276 450 263 454 c 128,-1,48
 250 458 250 458 250 475 c 128,-1,49
0 475 m 128,-1,59
 0 491 0 491 9.5 495.5 c 128,-1,60
 19 500 19 500 50 500 c 128,-1,61
 81 500 81 500 90.5 495.5 c 128,-1,62
 100 491 100 491 100 475 c 128,-1,63
 100 459 100 459 90.5 454.5 c 128,-1,64
 81 450 81 450 50 450 c 128,-1,65
 19 450 19 450 9.5 454.5 c 128,-1,58
 0 459 0 459 0 475 c 128,-1,59
300 575 m 128,-1,67
 300 591 300 591 309.5 595.5 c 128,-1,68
 319 600 319 600 350 600 c 128,-1,69
 381 600 381 600 390.5 595.5 c 128,-1,70
 400 591 400 591 400 575 c 128,-1,71
 400 559 400 559 390.5 554.5 c 128,-1,72
 381 550 381 550 350 550 c 128,-1,73
 319 550 319 550 309.5 554.5 c 128,-1,66
 300 559 300 559 300 575 c 128,-1,67
0 575 m 128,-1,75
 0 591 0 591 9.5 595.5 c 128,-1,76
 19 600 19 600 50 600 c 128,-1,77
 81 600 81 600 90.5 595.5 c 128,-1,78
 100 591 100 591 100 575 c 128,-1,79
 100 559 100 559 90.5 554.5 c 128,-1,80
 81 550 81 550 50 550 c 128,-1,81
 19 550 19 550 9.5 554.5 c 128,-1,74
 0 559 0 559 0 575 c 128,-1,75
50 675 m 0,82,83
 50 691 50 691 65 695 c 0,84,85
 84 700 84 700 200 700 c 0,86,87
 329 700 329 700 343 691 c 0,88,89
 350 687 350 687 350 675 c 0,90,91
 350 659 350 659 335 655 c 0,92,93
 316 650 316 650 200 650 c 0,94,95
 71 650 71 650 57 659 c 0,96,97
 50 663 50 663 50 675 c 0,82,83
EndSplineSet
Validated: 1
EndChar

StartChar: colon
Encoding: 58 58 59
Width: 500
Flags: W
LayerCount: 2
Fore
SplineSet
100 75 m 128,-1,1
 100 92 100 92 113 96 c 128,-1,2
 126 100 126 100 175 100 c 128,-1,3
 224 100 224 100 237 96 c 128,-1,4
 250 92 250 92 250 75 c 128,-1,5
 250 58 250 58 237 54 c 128,-1,6
 224 50 224 50 175 50 c 128,-1,7
 126 50 126 50 113 54 c 128,-1,0
 100 58 100 58 100 75 c 128,-1,1
100 175 m 128,-1,9
 100 192 100 192 113 196 c 128,-1,10
 126 200 126 200 175 200 c 128,-1,11
 224 200 224 200 237 196 c 128,-1,12
 250 192 250 192 250 175 c 128,-1,13
 250 158 250 158 237 154 c 128,-1,14
 224 150 224 150 175 150 c 128,-1,15
 126 150 126 150 113 154 c 128,-1,8
 100 158 100 158 100 175 c 128,-1,9
100 475 m 128,-1,17
 100 492 100 492 113 496 c 128,-1,18
 126 500 126 500 175 500 c 128,-1,19
 224 500 224 500 237 496 c 128,-1,20
 250 492 250 492 250 475 c 128,-1,21
 250 458 250 458 237 454 c 128,-1,22
 224 450 224 450 175 450 c 128,-1,23
 126 450 126 450 113 454 c 128,-1,16
 100 458 100 458 100 475 c 128,-1,17
100 575 m 128,-1,25
 100 592 100 592 113 596 c 128,-1,26
 126 600 126 600 175 600 c 128,-1,27
 224 600 224 600 237 596 c 128,-1,28
 250 592 250 592 250 575 c 128,-1,29
 250 558 250 558 237 554 c 128,-1,30
 224 550 224 550 175 550 c 128,-1,31
 126 550 126 550 113 554 c 128,-1,24
 100 558 100 558 100 575 c 128,-1,25
EndSplineSet
Validated: 1
EndChar

StartChar: semicolon
Encoding: 59 59 60
Width: 500
Flags: W
LayerCount: 2
Fore
SplineSet
50 -25 m 128,-1,1
 50 -9 50 -9 59.5 -4.5 c 128,-1,2
 69 0 69 0 100 0 c 128,-1,3
 131 0 131 0 140.5 -4.5 c 128,-1,4
 150 -9 150 -9 150 -25 c 128,-1,5
 150 -41 150 -41 140.5 -45.5 c 128,-1,6
 131 -50 131 -50 100 -50 c 128,-1,7
 69 -50 69 -50 59.5 -45.5 c 128,-1,0
 50 -41 50 -41 50 -25 c 128,-1,1
100 75 m 128,-1,9
 100 91 100 91 109.5 95.5 c 128,-1,10
 119 100 119 100 150 100 c 128,-1,11
 181 100 181 100 190.5 95.5 c 128,-1,12
 200 91 200 91 200 75 c 128,-1,13
 200 59 200 59 190.5 54.5 c 128,-1,14
 181 50 181 50 150 50 c 128,-1,15
 119 50 119 50 109.5 54.5 c 128,-1,8
 100 59 100 59 100 75 c 128,-1,9
100 175 m 128,-1,17
 100 192 100 192 113 196 c 128,-1,18
 126 200 126 200 175 200 c 128,-1,19
 224 200 224 200 237 196 c 128,-1,20
 250 192 250 192 250 175 c 128,-1,21
 250 158 250 158 237 154 c 128,-1,22
 224 150 224 150 175 150 c 128,-1,23
 126 150 126 150 113 154 c 128,-1,16
 100 158 100 158 100 175 c 128,-1,17
100 475 m 128,-1,25
 100 492 100 492 113 496 c 128,-1,26
 126 500 126 500 175 500 c 128,-1,27
 224 500 224 500 237 496 c 128,-1,28
 250 492 250 492 250 475 c 128,-1,29
 250 458 250 458 237 454 c 128,-1,30
 224 450 224 450 175 450 c 128,-1,31
 126 450 126 450 113 454 c 128,-1,24
 100 458 100 458 100 475 c 128,-1,25
100 575 m 128,-1,33
 100 592 100 592 113 596 c 128,-1,34
 126 600 126 600 175 600 c 128,-1,35
 224 600 224 600 237 596 c 128,-1,36
 250 592 250 592 250 575 c 128,-1,37
 250 558 250 558 237 554 c 128,-1,38
 224 550 224 550 175 550 c 128,-1,39
 126 550 126 550 113 554 c 128,-1,32
 100 558 100 558 100 575 c 128,-1,33
EndSplineSet
Validated: 1
EndChar

StartChar: less
Encoding: 60 60 61
Width: 500
Flags: W
LayerCount: 2
Fore
SplineSet
300 75 m 128,-1,1
 300 91 300 91 309.5 95.5 c 128,-1,2
 319 100 319 100 350 100 c 128,-1,3
 381 100 381 100 390.5 95.5 c 128,-1,4
 400 91 400 91 400 75 c 128,-1,5
 400 59 400 59 390.5 54.5 c 128,-1,6
 381 50 381 50 350 50 c 128,-1,7
 319 50 319 50 309.5 54.5 c 128,-1,0
 300 59 300 59 300 75 c 128,-1,1
200 175 m 128,-1,9
 200 191 200 191 209.5 195.5 c 128,-1,10
 219 200 219 200 250 200 c 128,-1,11
 281 200 281 200 290.5 195.5 c 128,-1,12
 300 191 300 191 300 175 c 128,-1,13
 300 159 300 159 290.5 154.5 c 128,-1,14
 281 150 281 150 250 150 c 128,-1,15
 219 150 219 150 209.5 154.5 c 128,-1,8
 200 159 200 159 200 175 c 128,-1,9
100 275 m 128,-1,17
 100 291 100 291 109.5 295.5 c 128,-1,18
 119 300 119 300 150 300 c 128,-1,19
 181 300 181 300 190.5 295.5 c 128,-1,20
 200 291 200 291 200 275 c 128,-1,21
 200 259 200 259 190.5 254.5 c 128,-1,22
 181 250 181 250 150 250 c 128,-1,23
 119 250 119 250 109.5 254.5 c 128,-1,16
 100 259 100 259 100 275 c 128,-1,17
0 375 m 128,-1,25
 0 391 0 391 9.5 395.5 c 128,-1,26
 19 400 19 400 50 400 c 128,-1,27
 81 400 81 400 90.5 395.5 c 128,-1,28
 100 391 100 391 100 375 c 128,-1,29
 100 359 100 359 90.5 354.5 c 128,-1,30
 81 350 81 350 50 350 c 128,-1,31
 19 350 19 350 9.5 354.5 c 128,-1,24
 0 359 0 359 0 375 c 128,-1,25
100 475 m 128,-1,33
 100 491 100 491 109.5 495.5 c 128,-1,34
 119 500 119 500 150 500 c 128,-1,35
 181 500 181 500 190.5 495.5 c 128,-1,36
 200 491 200 491 200 475 c 128,-1,37
 200 459 200 459 190.5 454.5 c 128,-1,38
 181 450 181 450 150 450 c 128,-1,39
 119 450 119 450 109.5 454.5 c 128,-1,32
 100 459 100 459 100 475 c 128,-1,33
200 575 m 128,-1,41
 200 591 200 591 209.5 595.5 c 128,-1,42
 219 600 219 600 250 600 c 128,-1,43
 281 600 281 600 290.5 595.5 c 128,-1,44
 300 591 300 591 300 575 c 128,-1,45
 300 559 300 559 290.5 554.5 c 128,-1,46
 281 550 281 550 250 550 c 128,-1,47
 219 550 219 550 209.5 554.5 c 128,-1,40
 200 559 200 559 200 575 c 128,-1,41
300 675 m 128,-1,49
 300 691 300 691 309.5 695.5 c 128,-1,50
 319 700 319 700 350 700 c 128,-1,51
 381 700 381 700 390.5 695.5 c 128,-1,52
 400 691 400 691 400 675 c 128,-1,53
 400 659 400 659 390.5 654.5 c 128,-1,54
 381 650 381 650 350 650 c 128,-1,55
 319 650 319 650 309.5 654.5 c 128,-1,48
 300 659 300 659 300 675 c 128,-1,49
EndSplineSet
Validated: 1
EndChar

StartChar: equal
Encoding: 61 61 62
Width: 500
Flags: W
LayerCount: 2
Fore
SplineSet
0 275 m 0,0,1
 0 290 0 290 15 294 c 0,2,3
 39 300 39 300 200 300 c 0,4,5
 373 300 373 300 391 291 c 0,6,7
 400 287 400 287 400 275 c 0,8,9
 400 260 400 260 385 256 c 0,10,11
 361 250 361 250 200 250 c 0,12,13
 27 250 27 250 9 259 c 0,14,15
 0 263 0 263 0 275 c 0,0,1
0 475 m 0,16,17
 0 490 0 490 15 494 c 0,18,19
 39 500 39 500 200 500 c 0,20,21
 373 500 373 500 391 491 c 0,22,23
 400 487 400 487 400 475 c 0,24,25
 400 460 400 460 385 456 c 0,26,27
 361 450 361 450 200 450 c 0,28,29
 27 450 27 450 9 459 c 0,30,31
 0 463 0 463 0 475 c 0,16,17
EndSplineSet
Validated: 1
EndChar

StartChar: greater
Encoding: 62 62 63
Width: 500
Flags: W
LayerCount: 2
Fore
SplineSet
0 75 m 128,-1,1
 0 91 0 91 9.5 95.5 c 128,-1,2
 19 100 19 100 50 100 c 128,-1,3
 81 100 81 100 90.5 95.5 c 128,-1,4
 100 91 100 91 100 75 c 128,-1,5
 100 59 100 59 90.5 54.5 c 128,-1,6
 81 50 81 50 50 50 c 128,-1,7
 19 50 19 50 9.5 54.5 c 128,-1,0
 0 59 0 59 0 75 c 128,-1,1
100 175 m 128,-1,9
 100 191 100 191 109.5 195.5 c 128,-1,10
 119 200 119 200 150 200 c 128,-1,11
 181 200 181 200 190.5 195.5 c 128,-1,12
 200 191 200 191 200 175 c 128,-1,13
 200 159 200 159 190.5 154.5 c 128,-1,14
 181 150 181 150 150 150 c 128,-1,15
 119 150 119 150 109.5 154.5 c 128,-1,8
 100 159 100 159 100 175 c 128,-1,9
200 275 m 128,-1,17
 200 291 200 291 209.5 295.5 c 128,-1,18
 219 300 219 300 250 300 c 128,-1,19
 281 300 281 300 290.5 295.5 c 128,-1,20
 300 291 300 291 300 275 c 128,-1,21
 300 259 300 259 290.5 254.5 c 128,-1,22
 281 250 281 250 250 250 c 128,-1,23
 219 250 219 250 209.5 254.5 c 128,-1,16
 200 259 200 259 200 275 c 128,-1,17
300 375 m 128,-1,25
 300 391 300 391 309.5 395.5 c 128,-1,26
 319 400 319 400 350 400 c 128,-1,27
 381 400 381 400 390.5 395.5 c 128,-1,28
 400 391 400 391 400 375 c 128,-1,29
 400 359 400 359 390.5 354.5 c 128,-1,30
 381 350 381 350 350 350 c 128,-1,31
 319 350 319 350 309.5 354.5 c 128,-1,24
 300 359 300 359 300 375 c 128,-1,25
200 475 m 128,-1,33
 200 491 200 491 209.5 495.5 c 128,-1,34
 219 500 219 500 250 500 c 128,-1,35
 281 500 281 500 290.5 495.5 c 128,-1,36
 300 491 300 491 300 475 c 128,-1,37
 300 459 300 459 290.5 454.5 c 128,-1,38
 281 450 281 450 250 450 c 128,-1,39
 219 450 219 450 209.5 454.5 c 128,-1,32
 200 459 200 459 200 475 c 128,-1,33
100 575 m 128,-1,41
 100 591 100 591 109.5 595.5 c 128,-1,42
 119 600 119 600 150 600 c 128,-1,43
 181 600 181 600 190.5 595.5 c 128,-1,44
 200 591 200 591 200 575 c 128,-1,45
 200 559 200 559 190.5 554.5 c 128,-1,46
 181 550 181 550 150 550 c 128,-1,47
 119 550 119 550 109.5 554.5 c 128,-1,40
 100 559 100 559 100 575 c 128,-1,41
0 675 m 128,-1,49
 0 691 0 691 9.5 695.5 c 128,-1,50
 19 700 19 700 50 700 c 128,-1,51
 81 700 81 700 90.5 695.5 c 128,-1,52
 100 691 100 691 100 675 c 128,-1,53
 100 659 100 659 90.5 654.5 c 128,-1,54
 81 650 81 650 50 650 c 128,-1,55
 19 650 19 650 9.5 654.5 c 128,-1,48
 0 659 0 659 0 675 c 128,-1,49
EndSplineSet
Validated: 1
EndChar

StartChar: question
Encoding: 63 63 64
Width: 500
Flags: W
LayerCount: 2
Fore
SplineSet
150 75 m 128,-1,1
 150 91 150 91 159.5 95.5 c 128,-1,2
 169 100 169 100 200 100 c 128,-1,3
 231 100 231 100 240.5 95.5 c 128,-1,4
 250 91 250 91 250 75 c 128,-1,5
 250 59 250 59 240.5 54.5 c 128,-1,6
 231 50 231 50 200 50 c 128,-1,7
 169 50 169 50 159.5 54.5 c 128,-1,0
 150 59 150 59 150 75 c 128,-1,1
150 275 m 128,-1,9
 150 291 150 291 159.5 295.5 c 128,-1,10
 169 300 169 300 200 300 c 128,-1,11
 231 300 231 300 240.5 295.5 c 128,-1,12
 250 291 250 291 250 275 c 128,-1,13
 250 259 250 259 240.5 254.5 c 128,-1,14
 231 250 231 250 200 250 c 128,-1,15
 169 250 169 250 159.5 254.5 c 128,-1,8
 150 259 150 259 150 275 c 128,-1,9
150 375 m 128,-1,17
 150 391 150 391 159.5 395.5 c 128,-1,18
 169 400 169 400 200 400 c 128,-1,19
 231 400 231 400 240.5 395.5 c 128,-1,20
 250 391 250 391 250 375 c 128,-1,21
 250 359 250 359 240.5 354.5 c 128,-1,22
 231 350 231 350 200 350 c 128,-1,23
 169 350 169 350 159.5 354.5 c 128,-1,16
 150 359 150 359 150 375 c 128,-1,17
200 475 m 128,-1,25
 200 492 200 492 213 496 c 128,-1,26
 226 500 226 500 275 500 c 128,-1,27
 324 500 324 500 337 496 c 128,-1,28
 350 492 350 492 350 475 c 128,-1,29
 350 458 350 458 337 454 c 128,-1,30
 324 450 324 450 275 450 c 128,-1,31
 226 450 226 450 213 454 c 128,-1,24
 200 458 200 458 200 475 c 128,-1,25
300 575 m 128,-1,33
 300 591 300 591 309.5 595.5 c 128,-1,34
 319 600 319 600 350 600 c 128,-1,35
 381 600 381 600 390.5 595.5 c 128,-1,36
 400 591 400 591 400 575 c 128,-1,37
 400 559 400 559 390.5 554.5 c 128,-1,38
 381 550 381 550 350 550 c 128,-1,39
 319 550 319 550 309.5 554.5 c 128,-1,32
 300 559 300 559 300 575 c 128,-1,33
0 575 m 128,-1,41
 0 591 0 591 9.5 595.5 c 128,-1,42
 19 600 19 600 50 600 c 128,-1,43
 81 600 81 600 90.5 595.5 c 128,-1,44
 100 591 100 591 100 575 c 128,-1,45
 100 559 100 559 90.5 554.5 c 128,-1,46
 81 550 81 550 50 550 c 128,-1,47
 19 550 19 550 9.5 554.5 c 128,-1,40
 0 559 0 559 0 575 c 128,-1,41
50 675 m 0,48,49
 50 691 50 691 65 695 c 0,50,51
 84 700 84 700 200 700 c 0,52,53
 329 700 329 700 343 691 c 0,54,55
 350 687 350 687 350 675 c 0,56,57
 350 659 350 659 335 655 c 0,58,59
 316 650 316 650 200 650 c 0,60,61
 71 650 71 650 57 659 c 0,62,63
 50 663 50 663 50 675 c 0,48,49
EndSplineSet
Validated: 1
EndChar

StartChar: at
Encoding: 64 64 65
Width: 500
Flags: W
LayerCount: 2
Fore
SplineSet
50 75 m 0,0,1
 50 91 50 91 65 95 c 0,2,3
 84 100 84 100 200 100 c 0,4,5
 329 100 329 100 343 91 c 0,6,7
 350 87 350 87 350 75 c 0,8,9
 350 59 350 59 335 55 c 0,10,11
 316 50 316 50 200 50 c 0,12,13
 71 50 71 50 57 59 c 0,14,15
 50 63 50 63 50 75 c 0,0,1
0 175 m 128,-1,17
 0 191 0 191 9.5 195.5 c 128,-1,18
 19 200 19 200 50 200 c 128,-1,19
 81 200 81 200 90.5 195.5 c 128,-1,20
 100 191 100 191 100 175 c 128,-1,21
 100 159 100 159 90.5 154.5 c 128,-1,22
 81 150 81 150 50 150 c 128,-1,23
 19 150 19 150 9.5 154.5 c 128,-1,16
 0 159 0 159 0 175 c 128,-1,17
150 275 m 128,-1,25
 150 284 150 284 152.5 288.5 c 128,-1,26
 155 293 155 293 169.5 296 c 128,-1,27
 184 299 184 299 206 299.5 c 128,-1,28
 228 300 228 300 275 300 c 128,-1,29
 322 300 322 300 344 299.5 c 128,-1,30
 366 299 366 299 380.5 296 c 128,-1,31
 395 293 395 293 397.5 288.5 c 128,-1,32
 400 284 400 284 400 275 c 128,-1,33
 400 266 400 266 397.5 261.5 c 128,-1,34
 395 257 395 257 380.5 254 c 128,-1,35
 366 251 366 251 344 250.5 c 128,-1,36
 322 250 322 250 275 250 c 128,-1,37
 228 250 228 250 206 250.5 c 128,-1,38
 184 251 184 251 169.5 254 c 128,-1,39
 155 257 155 257 152.5 261.5 c 128,-1,24
 150 266 150 266 150 275 c 128,-1,25
0 275 m 128,-1,41
 0 291 0 291 9.5 295.5 c 128,-1,42
 19 300 19 300 50 300 c 128,-1,43
 81 300 81 300 90.5 295.5 c 128,-1,44
 100 291 100 291 100 275 c 128,-1,45
 100 259 100 259 90.5 254.5 c 128,-1,46
 81 250 81 250 50 250 c 128,-1,47
 19 250 19 250 9.5 254.5 c 128,-1,40
 0 259 0 259 0 275 c 128,-1,41
250 375 m 128,-1,49
 250 392 250 392 263 396 c 128,-1,50
 276 400 276 400 325 400 c 0,51,52
 375 400 375 400 387.5 396 c 128,-1,53
 400 392 400 392 400 375 c 128,-1,54
 400 358 400 358 387.5 354 c 128,-1,55
 375 350 375 350 325 350 c 0,56,57
 276 350 276 350 263 354 c 128,-1,48
 250 358 250 358 250 375 c 128,-1,49
0 375 m 128,-1,59
 0 392 0 392 16 396 c 128,-1,60
 32 400 32 400 100 400 c 128,-1,61
 168 400 168 400 184 396 c 128,-1,62
 200 392 200 392 200 375 c 128,-1,63
 200 358 200 358 184 354 c 128,-1,64
 168 350 168 350 100 350 c 128,-1,65
 32 350 32 350 16 354 c 128,-1,58
 0 358 0 358 0 375 c 128,-1,59
150 475 m 128,-1,67
 150 484 150 484 152.5 488.5 c 128,-1,68
 155 493 155 493 169.5 496 c 128,-1,69
 184 499 184 499 206 499.5 c 128,-1,70
 228 500 228 500 275 500 c 128,-1,71
 322 500 322 500 344 499.5 c 128,-1,72
 366 499 366 499 380.5 496 c 128,-1,73
 395 493 395 493 397.5 488.5 c 128,-1,74
 400 484 400 484 400 475 c 128,-1,75
 400 466 400 466 397.5 461.5 c 128,-1,76
 395 457 395 457 380.5 454 c 128,-1,77
 366 451 366 451 344 450.5 c 128,-1,78
 322 450 322 450 275 450 c 128,-1,79
 228 450 228 450 206 450.5 c 128,-1,80
 184 451 184 451 169.5 454 c 128,-1,81
 155 457 155 457 152.5 461.5 c 128,-1,66
 150 466 150 466 150 475 c 128,-1,67
0 475 m 128,-1,83
 0 491 0 491 9.5 495.5 c 128,-1,84
 19 500 19 500 50 500 c 128,-1,85
 81 500 81 500 90.5 495.5 c 128,-1,86
 100 491 100 491 100 475 c 128,-1,87
 100 459 100 459 90.5 454.5 c 128,-1,88
 81 450 81 450 50 450 c 128,-1,89
 19 450 19 450 9.5 454.5 c 128,-1,82
 0 459 0 459 0 475 c 128,-1,83
300 575 m 128,-1,91
 300 591 300 591 309.5 595.5 c 128,-1,92
 319 600 319 600 350 600 c 128,-1,93
 381 600 381 600 390.5 595.5 c 128,-1,94
 400 591 400 591 400 575 c 128,-1,95
 400 559 400 559 390.5 554.5 c 128,-1,96
 381 550 381 550 350 550 c 128,-1,97
 319 550 319 550 309.5 554.5 c 128,-1,90
 300 559 300 559 300 575 c 128,-1,91
0 575 m 128,-1,99
 0 591 0 591 9.5 595.5 c 128,-1,100
 19 600 19 600 50 600 c 128,-1,101
 81 600 81 600 90.5 595.5 c 128,-1,102
 100 591 100 591 100 575 c 128,-1,103
 100 559 100 559 90.5 554.5 c 128,-1,104
 81 550 81 550 50 550 c 128,-1,105
 19 550 19 550 9.5 554.5 c 128,-1,98
 0 559 0 559 0 575 c 128,-1,99
50 675 m 0,106,107
 50 691 50 691 65 695 c 0,108,109
 84 700 84 700 200 700 c 0,110,111
 329 700 329 700 343 691 c 0,112,113
 350 687 350 687 350 675 c 0,114,115
 350 659 350 659 335 655 c 0,116,117
 316 650 316 650 200 650 c 0,118,119
 71 650 71 650 57 659 c 0,120,121
 50 663 50 663 50 675 c 0,106,107
EndSplineSet
Validated: 1
EndChar

StartChar: A
Encoding: 65 65 66
Width: 500
Flags: W
LayerCount: 2
Fore
SplineSet
300 75 m 128,-1,1
 300 91 300 91 309.5 95.5 c 128,-1,2
 319 100 319 100 350 100 c 128,-1,3
 381 100 381 100 390.5 95.5 c 128,-1,4
 400 91 400 91 400 75 c 128,-1,5
 400 59 400 59 390.5 54.5 c 128,-1,6
 381 50 381 50 350 50 c 128,-1,7
 319 50 319 50 309.5 54.5 c 128,-1,0
 300 59 300 59 300 75 c 128,-1,1
0 75 m 128,-1,9
 0 91 0 91 9.5 95.5 c 128,-1,10
 19 100 19 100 50 100 c 128,-1,11
 81 100 81 100 90.5 95.5 c 128,-1,12
 100 91 100 91 100 75 c 128,-1,13
 100 59 100 59 90.5 54.5 c 128,-1,14
 81 50 81 50 50 50 c 128,-1,15
 19 50 19 50 9.5 54.5 c 128,-1,8
 0 59 0 59 0 75 c 128,-1,9
300 175 m 128,-1,17
 300 191 300 191 309.5 195.5 c 128,-1,18
 319 200 319 200 350 200 c 128,-1,19
 381 200 381 200 390.5 195.5 c 128,-1,20
 400 191 400 191 400 175 c 128,-1,21
 400 159 400 159 390.5 154.5 c 128,-1,22
 381 150 381 150 350 150 c 128,-1,23
 319 150 319 150 309.5 154.5 c 128,-1,16
 300 159 300 159 300 175 c 128,-1,17
0 175 m 128,-1,25
 0 191 0 191 9.5 195.5 c 128,-1,26
 19 200 19 200 50 200 c 128,-1,27
 81 200 81 200 90.5 195.5 c 128,-1,28
 100 191 100 191 100 175 c 128,-1,29
 100 159 100 159 90.5 154.5 c 128,-1,30
 81 150 81 150 50 150 c 128,-1,31
 19 150 19 150 9.5 154.5 c 128,-1,24
 0 159 0 159 0 175 c 128,-1,25
0 275 m 0,32,33
 0 290 0 290 15 294 c 0,34,35
 39 300 39 300 200 300 c 0,36,37
 373 300 373 300 391 291 c 0,38,39
 400 287 400 287 400 275 c 0,40,41
 400 260 400 260 385 256 c 0,42,43
 361 250 361 250 200 250 c 0,44,45
 27 250 27 250 9 259 c 0,46,47
 0 263 0 263 0 275 c 0,32,33
300 375 m 128,-1,49
 300 391 300 391 309.5 395.5 c 128,-1,50
 319 400 319 400 350 400 c 128,-1,51
 381 400 381 400 390.5 395.5 c 128,-1,52
 400 391 400 391 400 375 c 128,-1,53
 400 359 400 359 390.5 354.5 c 128,-1,54
 381 350 381 350 350 350 c 128,-1,55
 319 350 319 350 309.5 354.5 c 128,-1,48
 300 359 300 359 300 375 c 128,-1,49
0 375 m 128,-1,57
 0 391 0 391 9.5 395.5 c 128,-1,58
 19 400 19 400 50 400 c 128,-1,59
 81 400 81 400 90.5 395.5 c 128,-1,60
 100 391 100 391 100 375 c 128,-1,61
 100 359 100 359 90.5 354.5 c 128,-1,62
 81 350 81 350 50 350 c 128,-1,63
 19 350 19 350 9.5 354.5 c 128,-1,56
 0 359 0 359 0 375 c 128,-1,57
250 475 m 128,-1,65
 250 491 250 491 259.5 495.5 c 128,-1,66
 269 500 269 500 300 500 c 128,-1,67
 331 500 331 500 340.5 495.5 c 128,-1,68
 350 491 350 491 350 475 c 128,-1,69
 350 459 350 459 340.5 454.5 c 128,-1,70
 331 450 331 450 300 450 c 128,-1,71
 269 450 269 450 259.5 454.5 c 128,-1,64
 250 459 250 459 250 475 c 128,-1,65
50 475 m 128,-1,73
 50 491 50 491 59.5 495.5 c 128,-1,74
 69 500 69 500 100 500 c 128,-1,75
 131 500 131 500 140.5 495.5 c 128,-1,76
 150 491 150 491 150 475 c 128,-1,77
 150 459 150 459 140.5 454.5 c 128,-1,78
 131 450 131 450 100 450 c 128,-1,79
 69 450 69 450 59.5 454.5 c 128,-1,72
 50 459 50 459 50 475 c 128,-1,73
100 575 m 128,-1,81
 100 592 100 592 116 596 c 128,-1,82
 132 600 132 600 200 600 c 128,-1,83
 268 600 268 600 284 596 c 128,-1,84
 300 592 300 592 300 575 c 128,-1,85
 300 558 300 558 284 554 c 128,-1,86
 268 550 268 550 200 550 c 128,-1,87
 132 550 132 550 116 554 c 128,-1,80
 100 558 100 558 100 575 c 128,-1,81
150 675 m 132,-1,89
 150 691 150 691 159.5 695.5 c 132,-1,90
 169 700 169 700 200 700 c 132,-1,91
 231 700 231 700 240.5 695.5 c 132,-1,92
 250 691 250 691 250 675 c 132,-1,93
 250 659 250 659 240.5 654.5 c 132,-1,94
 231 650 231 650 200 650 c 132,-1,95
 169 650 169 650 159.5 654.5 c 132,-1,88
 150 659 150 659 150 675 c 132,-1,89
EndSplineSet
Validated: 1
EndChar

StartChar: B
Encoding: 66 66 67
Width: 500
Flags: W
LayerCount: 2
Fore
SplineSet
0 75 m 0,0,1
 0 90 0 90 15 94 c 0,2,3
 37 100 37 100 175 100 c 0,4,5
 326 100 326 100 342 91 c 0,6,7
 350 87 350 87 350 75 c 0,8,9
 350 60 350 60 335 56 c 0,10,11
 313 50 313 50 175 50 c 0,12,13
 24 50 24 50 8 59 c 0,14,15
 0 63 0 63 0 75 c 0,0,1
300 175 m 128,-1,17
 300 191 300 191 309.5 195.5 c 128,-1,18
 319 200 319 200 350 200 c 128,-1,19
 381 200 381 200 390.5 195.5 c 128,-1,20
 400 191 400 191 400 175 c 128,-1,21
 400 159 400 159 390.5 154.5 c 128,-1,22
 381 150 381 150 350 150 c 128,-1,23
 319 150 319 150 309.5 154.5 c 128,-1,16
 300 159 300 159 300 175 c 128,-1,17
50 175 m 128,-1,25
 50 191 50 191 59.5 195.5 c 128,-1,26
 69 200 69 200 100 200 c 128,-1,27
 131 200 131 200 140.5 195.5 c 128,-1,28
 150 191 150 191 150 175 c 128,-1,29
 150 159 150 159 140.5 154.5 c 128,-1,30
 131 150 131 150 100 150 c 128,-1,31
 69 150 69 150 59.5 154.5 c 128,-1,24
 50 159 50 159 50 175 c 128,-1,25
300 275 m 128,-1,33
 300 291 300 291 309.5 295.5 c 128,-1,34
 319 300 319 300 350 300 c 128,-1,35
 381 300 381 300 390.5 295.5 c 128,-1,36
 400 291 400 291 400 275 c 128,-1,37
 400 259 400 259 390.5 254.5 c 128,-1,38
 381 250 381 250 350 250 c 128,-1,39
 319 250 319 250 309.5 254.5 c 128,-1,32
 300 259 300 259 300 275 c 128,-1,33
50 275 m 128,-1,41
 50 291 50 291 59.5 295.5 c 128,-1,42
 69 300 69 300 100 300 c 128,-1,43
 131 300 131 300 140.5 295.5 c 128,-1,44
 150 291 150 291 150 275 c 128,-1,45
 150 259 150 259 140.5 254.5 c 128,-1,46
 131 250 131 250 100 250 c 128,-1,47
 69 250 69 250 59.5 254.5 c 128,-1,40
 50 259 50 259 50 275 c 128,-1,41
50 375 m 0,48,49
 50 391 50 391 65 395 c 0,50,51
 84 400 84 400 200 400 c 0,52,53
 329 400 329 400 343 391 c 0,54,55
 350 387 350 387 350 375 c 0,56,57
 350 359 350 359 335 355 c 0,58,59
 316 350 316 350 200 350 c 0,60,61
 71 350 71 350 57 359 c 0,62,63
 50 363 50 363 50 375 c 0,48,49
300 475 m 128,-1,65
 300 491 300 491 309.5 495.5 c 128,-1,66
 319 500 319 500 350 500 c 128,-1,67
 381 500 381 500 390.5 495.5 c 128,-1,68
 400 491 400 491 400 475 c 128,-1,69
 400 459 400 459 390.5 454.5 c 128,-1,70
 381 450 381 450 350 450 c 128,-1,71
 319 450 319 450 309.5 454.5 c 128,-1,64
 300 459 300 459 300 475 c 128,-1,65
50 475 m 128,-1,73
 50 491 50 491 59.5 495.5 c 128,-1,74
 69 500 69 500 100 500 c 128,-1,75
 131 500 131 500 140.5 495.5 c 128,-1,76
 150 491 150 491 150 475 c 128,-1,77
 150 459 150 459 140.5 454.5 c 128,-1,78
 131 450 131 450 100 450 c 128,-1,79
 69 450 69 450 59.5 454.5 c 128,-1,72
 50 459 50 459 50 475 c 128,-1,73
300 575 m 128,-1,81
 300 591 300 591 309.5 595.5 c 128,-1,82
 319 600 319 600 350 600 c 128,-1,83
 381 600 381 600 390.5 595.5 c 128,-1,84
 400 591 400 591 400 575 c 128,-1,85
 400 559 400 559 390.5 554.5 c 128,-1,86
 381 550 381 550 350 550 c 128,-1,87
 319 550 319 550 309.5 554.5 c 128,-1,80
 300 559 300 559 300 575 c 128,-1,81
50 575 m 128,-1,89
 50 591 50 591 59.5 595.5 c 128,-1,90
 69 600 69 600 100 600 c 128,-1,91
 131 600 131 600 140.5 595.5 c 128,-1,92
 150 591 150 591 150 575 c 128,-1,93
 150 559 150 559 140.5 554.5 c 128,-1,94
 131 550 131 550 100 550 c 128,-1,95
 69 550 69 550 59.5 554.5 c 128,-1,88
 50 559 50 559 50 575 c 128,-1,89
0 675 m 0,96,97
 0 690 0 690 15 694 c 0,98,99
 37 700 37 700 175 700 c 0,100,101
 326 700 326 700 342 691 c 0,102,103
 350 687 350 687 350 675 c 0,104,105
 350 660 350 660 335 656 c 0,106,107
 313 650 313 650 175 650 c 0,108,109
 24 650 24 650 8 659 c 0,110,111
 0 663 0 663 0 675 c 0,96,97
EndSplineSet
Validated: 1
EndChar

StartChar: C
Encoding: 67 67 68
Width: 500
Flags: W
LayerCount: 2
Fore
SplineSet
100 75 m 128,-1,1
 100 84 100 84 102.5 88.5 c 128,-1,2
 105 93 105 93 119.5 96 c 128,-1,3
 134 99 134 99 156 99.5 c 128,-1,4
 178 100 178 100 225 100 c 128,-1,5
 272 100 272 100 294 99.5 c 128,-1,6
 316 99 316 99 330.5 96 c 128,-1,7
 345 93 345 93 347.5 88.5 c 128,-1,8
 350 84 350 84 350 75 c 128,-1,9
 350 66 350 66 347.5 61.5 c 128,-1,10
 345 57 345 57 330.5 54 c 128,-1,11
 316 51 316 51 294 50.5 c 128,-1,12
 272 50 272 50 225 50 c 128,-1,13
 178 50 178 50 156 50.5 c 128,-1,14
 134 51 134 51 119.5 54 c 128,-1,15
 105 57 105 57 102.5 61.5 c 128,-1,0
 100 66 100 66 100 75 c 128,-1,1
300 175 m 128,-1,17
 300 191 300 191 309.5 195.5 c 128,-1,18
 319 200 319 200 350 200 c 128,-1,19
 381 200 381 200 390.5 195.5 c 128,-1,20
 400 191 400 191 400 175 c 128,-1,21
 400 159 400 159 390.5 154.5 c 128,-1,22
 381 150 381 150 350 150 c 128,-1,23
 319 150 319 150 309.5 154.5 c 128,-1,16
 300 159 300 159 300 175 c 128,-1,17
50 175 m 128,-1,25
 50 191 50 191 59.5 195.5 c 128,-1,26
 69 200 69 200 100 200 c 128,-1,27
 131 200 131 200 140.5 195.5 c 128,-1,28
 150 191 150 191 150 175 c 128,-1,29
 150 159 150 159 140.5 154.5 c 128,-1,30
 131 150 131 150 100 150 c 128,-1,31
 69 150 69 150 59.5 154.5 c 128,-1,24
 50 159 50 159 50 175 c 128,-1,25
0 275 m 128,-1,33
 0 291 0 291 9.5 295.5 c 128,-1,34
 19 300 19 300 50 300 c 128,-1,35
 81 300 81 300 90.5 295.5 c 128,-1,36
 100 291 100 291 100 275 c 128,-1,37
 100 259 100 259 90.5 254.5 c 128,-1,38
 81 250 81 250 50 250 c 128,-1,39
 19 250 19 250 9.5 254.5 c 128,-1,32
 0 259 0 259 0 275 c 128,-1,33
0 375 m 128,-1,41
 0 391 0 391 9.5 395.5 c 128,-1,42
 19 400 19 400 50 400 c 128,-1,43
 81 400 81 400 90.5 395.5 c 128,-1,44
 100 391 100 391 100 375 c 128,-1,45
 100 359 100 359 90.5 354.5 c 128,-1,46
 81 350 81 350 50 350 c 128,-1,47
 19 350 19 350 9.5 354.5 c 128,-1,40
 0 359 0 359 0 375 c 128,-1,41
0 475 m 128,-1,49
 0 491 0 491 9.5 495.5 c 128,-1,50
 19 500 19 500 50 500 c 128,-1,51
 81 500 81 500 90.5 495.5 c 128,-1,52
 100 491 100 491 100 475 c 128,-1,53
 100 459 100 459 90.5 454.5 c 128,-1,54
 81 450 81 450 50 450 c 128,-1,55
 19 450 19 450 9.5 454.5 c 128,-1,48
 0 459 0 459 0 475 c 128,-1,49
300 575 m 128,-1,57
 300 591 300 591 309.5 595.5 c 128,-1,58
 319 600 319 600 350 600 c 128,-1,59
 381 600 381 600 390.5 595.5 c 128,-1,60
 400 591 400 591 400 575 c 128,-1,61
 400 559 400 559 390.5 554.5 c 128,-1,62
 381 550 381 550 350 550 c 128,-1,63
 319 550 319 550 309.5 554.5 c 128,-1,56
 300 559 300 559 300 575 c 128,-1,57
50 575 m 128,-1,65
 50 591 50 591 59.5 595.5 c 128,-1,66
 69 600 69 600 100 600 c 128,-1,67
 131 600 131 600 140.5 595.5 c 128,-1,68
 150 591 150 591 150 575 c 128,-1,69
 150 559 150 559 140.5 554.5 c 128,-1,70
 131 550 131 550 100 550 c 128,-1,71
 69 550 69 550 59.5 554.5 c 128,-1,64
 50 559 50 559 50 575 c 128,-1,65
100 675 m 128,-1,73
 100 684 100 684 102.5 688.5 c 128,-1,74
 105 693 105 693 119.5 696 c 128,-1,75
 134 699 134 699 156 699.5 c 128,-1,76
 178 700 178 700 225 700 c 128,-1,77
 272 700 272 700 294 699.5 c 128,-1,78
 316 699 316 699 330.5 696 c 128,-1,79
 345 693 345 693 347.5 688.5 c 128,-1,80
 350 684 350 684 350 675 c 128,-1,81
 350 666 350 666 347.5 661.5 c 128,-1,82
 345 657 345 657 330.5 654 c 128,-1,83
 316 651 316 651 294 650.5 c 128,-1,84
 272 650 272 650 225 650 c 128,-1,85
 178 650 178 650 156 650.5 c 128,-1,86
 134 651 134 651 119.5 654 c 128,-1,87
 105 657 105 657 102.5 661.5 c 128,-1,72
 100 666 100 666 100 675 c 128,-1,73
EndSplineSet
Validated: 1
EndChar

StartChar: D
Encoding: 68 68 69
Width: 500
Flags: W
LayerCount: 2
Fore
SplineSet
0 75 m 0,0,1
 0 91 0 91 15 95 c 0,2,3
 34 100 34 100 150 100 c 0,4,5
 279 100 279 100 293 91 c 0,6,7
 300 87 300 87 300 75 c 0,8,9
 300 59 300 59 285 55 c 0,10,11
 266 50 266 50 150 50 c 0,12,13
 21 50 21 50 7 59 c 0,14,15
 0 63 0 63 0 75 c 0,0,1
250 175 m 128,-1,17
 250 191 250 191 259.5 195.5 c 128,-1,18
 269 200 269 200 300 200 c 128,-1,19
 331 200 331 200 340.5 195.5 c 128,-1,20
 350 191 350 191 350 175 c 128,-1,21
 350 159 350 159 340.5 154.5 c 128,-1,22
 331 150 331 150 300 150 c 128,-1,23
 269 150 269 150 259.5 154.5 c 128,-1,16
 250 159 250 159 250 175 c 128,-1,17
50 175 m 128,-1,25
 50 191 50 191 59.5 195.5 c 128,-1,26
 69 200 69 200 100 200 c 128,-1,27
 131 200 131 200 140.5 195.5 c 128,-1,28
 150 191 150 191 150 175 c 128,-1,29
 150 159 150 159 140.5 154.5 c 128,-1,30
 131 150 131 150 100 150 c 128,-1,31
 69 150 69 150 59.5 154.5 c 128,-1,24
 50 159 50 159 50 175 c 128,-1,25
300 275 m 128,-1,33
 300 291 300 291 309.5 295.5 c 128,-1,34
 319 300 319 300 350 300 c 128,-1,35
 381 300 381 300 390.5 295.5 c 128,-1,36
 400 291 400 291 400 275 c 128,-1,37
 400 259 400 259 390.5 254.5 c 128,-1,38
 381 250 381 250 350 250 c 128,-1,39
 319 250 319 250 309.5 254.5 c 128,-1,32
 300 259 300 259 300 275 c 128,-1,33
50 275 m 128,-1,41
 50 291 50 291 59.5 295.5 c 128,-1,42
 69 300 69 300 100 300 c 128,-1,43
 131 300 131 300 140.5 295.5 c 128,-1,44
 150 291 150 291 150 275 c 128,-1,45
 150 259 150 259 140.5 254.5 c 128,-1,46
 131 250 131 250 100 250 c 128,-1,47
 69 250 69 250 59.5 254.5 c 128,-1,40
 50 259 50 259 50 275 c 128,-1,41
300 375 m 128,-1,49
 300 391 300 391 309.5 395.5 c 128,-1,50
 319 400 319 400 350 400 c 128,-1,51
 381 400 381 400 390.5 395.5 c 128,-1,52
 400 391 400 391 400 375 c 128,-1,53
 400 359 400 359 390.5 354.5 c 128,-1,54
 381 350 381 350 350 350 c 128,-1,55
 319 350 319 350 309.5 354.5 c 128,-1,48
 300 359 300 359 300 375 c 128,-1,49
50 375 m 128,-1,57
 50 391 50 391 59.5 395.5 c 128,-1,58
 69 400 69 400 100 400 c 128,-1,59
 131 400 131 400 140.5 395.5 c 128,-1,60
 150 391 150 391 150 375 c 128,-1,61
 150 359 150 359 140.5 354.5 c 128,-1,62
 131 350 131 350 100 350 c 128,-1,63
 69 350 69 350 59.5 354.5 c 128,-1,56
 50 359 50 359 50 375 c 128,-1,57
300 475 m 128,-1,65
 300 491 300 491 309.5 495.5 c 128,-1,66
 319 500 319 500 350 500 c 128,-1,67
 381 500 381 500 390.5 495.5 c 128,-1,68
 400 491 400 491 400 475 c 128,-1,69
 400 459 400 459 390.5 454.5 c 128,-1,70
 381 450 381 450 350 450 c 128,-1,71
 319 450 319 450 309.5 454.5 c 128,-1,64
 300 459 300 459 300 475 c 128,-1,65
50 475 m 128,-1,73
 50 491 50 491 59.5 495.5 c 128,-1,74
 69 500 69 500 100 500 c 128,-1,75
 131 500 131 500 140.5 495.5 c 128,-1,76
 150 491 150 491 150 475 c 128,-1,77
 150 459 150 459 140.5 454.5 c 128,-1,78
 131 450 131 450 100 450 c 128,-1,79
 69 450 69 450 59.5 454.5 c 128,-1,72
 50 459 50 459 50 475 c 128,-1,73
250 575 m 128,-1,81
 250 591 250 591 259.5 595.5 c 128,-1,82
 269 600 269 600 300 600 c 128,-1,83
 331 600 331 600 340.5 595.5 c 128,-1,84
 350 591 350 591 350 575 c 128,-1,85
 350 559 350 559 340.5 554.5 c 128,-1,86
 331 550 331 550 300 550 c 128,-1,87
 269 550 269 550 259.5 554.5 c 128,-1,80
 250 559 250 559 250 575 c 128,-1,81
50 575 m 128,-1,89
 50 591 50 591 59.5 595.5 c 128,-1,90
 69 600 69 600 100 600 c 128,-1,91
 131 600 131 600 140.5 595.5 c 128,-1,92
 150 591 150 591 150 575 c 128,-1,93
 150 559 150 559 140.5 554.5 c 128,-1,94
 131 550 131 550 100 550 c 128,-1,95
 69 550 69 550 59.5 554.5 c 128,-1,88
 50 559 50 559 50 575 c 128,-1,89
0 675 m 0,96,97
 0 691 0 691 15 695 c 0,98,99
 34 700 34 700 150 700 c 0,100,101
 279 700 279 700 293 691 c 0,102,103
 300 687 300 687 300 675 c 0,104,105
 300 659 300 659 285 655 c 0,106,107
 266 650 266 650 150 650 c 0,108,109
 21 650 21 650 7 659 c 0,110,111
 0 663 0 663 0 675 c 0,96,97
EndSplineSet
Validated: 1
EndChar

StartChar: E
Encoding: 69 69 70
Width: 500
Flags: W
LayerCount: 2
Fore
SplineSet
0 75 m 0,0,1
 0 90 0 90 15 94 c 0,2,3
 39 100 39 100 200 100 c 0,4,5
 373 100 373 100 391 91 c 0,6,7
 400 87 400 87 400 75 c 0,8,9
 400 60 400 60 385 56 c 0,10,11
 361 50 361 50 200 50 c 0,12,13
 27 50 27 50 9 59 c 0,14,15
 0 63 0 63 0 75 c 0,0,1
0 175 m 128,-1,17
 0 191 0 191 9.5 195.5 c 128,-1,18
 19 200 19 200 50 200 c 128,-1,19
 81 200 81 200 90.5 195.5 c 128,-1,20
 100 191 100 191 100 175 c 128,-1,21
 100 159 100 159 90.5 154.5 c 128,-1,22
 81 150 81 150 50 150 c 128,-1,23
 19 150 19 150 9.5 154.5 c 128,-1,16
 0 159 0 159 0 175 c 128,-1,17
0 275 m 128,-1,25
 0 291 0 291 9.5 295.5 c 128,-1,26
 19 300 19 300 50 300 c 128,-1,27
 81 300 81 300 90.5 295.5 c 128,-1,28
 100 291 100 291 100 275 c 128,-1,29
 100 259 100 259 90.5 254.5 c 128,-1,30
 81 250 81 250 50 250 c 128,-1,31
 19 250 19 250 9.5 254.5 c 128,-1,24
 0 259 0 259 0 275 c 128,-1,25
0 375 m 0,32,33
 0 391 0 391 15 395 c 0,34,35
 34 400 34 400 150 400 c 0,36,37
 279 400 279 400 293 391 c 0,38,39
 300 387 300 387 300 375 c 0,40,41
 300 359 300 359 285 355 c 0,42,43
 266 350 266 350 150 350 c 0,44,45
 21 350 21 350 7 359 c 0,46,47
 0 363 0 363 0 375 c 0,32,33
0 475 m 128,-1,49
 0 491 0 491 9.5 495.5 c 128,-1,50
 19 500 19 500 50 500 c 128,-1,51
 81 500 81 500 90.5 495.5 c 128,-1,52
 100 491 100 491 100 475 c 128,-1,53
 100 459 100 459 90.5 454.5 c 128,-1,54
 81 450 81 450 50 450 c 128,-1,55
 19 450 19 450 9.5 454.5 c 128,-1,48
 0 459 0 459 0 475 c 128,-1,49
0 575 m 128,-1,57
 0 591 0 591 9.5 595.5 c 128,-1,58
 19 600 19 600 50 600 c 128,-1,59
 81 600 81 600 90.5 595.5 c 128,-1,60
 100 591 100 591 100 575 c 128,-1,61
 100 559 100 559 90.5 554.5 c 128,-1,62
 81 550 81 550 50 550 c 128,-1,63
 19 550 19 550 9.5 554.5 c 128,-1,56
 0 559 0 559 0 575 c 128,-1,57
0 675 m 0,64,65
 0 690 0 690 15 694 c 0,66,67
 39 700 39 700 200 700 c 0,68,69
 373 700 373 700 391 691 c 0,70,71
 400 687 400 687 400 675 c 0,72,73
 400 660 400 660 385 656 c 0,74,75
 361 650 361 650 200 650 c 0,76,77
 27 650 27 650 9 659 c 0,78,79
 0 663 0 663 0 675 c 0,64,65
EndSplineSet
Validated: 1
EndChar

StartChar: F
Encoding: 70 70 71
Width: 500
Flags: W
LayerCount: 2
Fore
SplineSet
0 75 m 128,-1,1
 0 91 0 91 9.5 95.5 c 128,-1,2
 19 100 19 100 50 100 c 128,-1,3
 81 100 81 100 90.5 95.5 c 128,-1,4
 100 91 100 91 100 75 c 128,-1,5
 100 59 100 59 90.5 54.5 c 128,-1,6
 81 50 81 50 50 50 c 128,-1,7
 19 50 19 50 9.5 54.5 c 128,-1,0
 0 59 0 59 0 75 c 128,-1,1
0 175 m 128,-1,9
 0 191 0 191 9.5 195.5 c 128,-1,10
 19 200 19 200 50 200 c 128,-1,11
 81 200 81 200 90.5 195.5 c 128,-1,12
 100 191 100 191 100 175 c 128,-1,13
 100 159 100 159 90.5 154.5 c 128,-1,14
 81 150 81 150 50 150 c 128,-1,15
 19 150 19 150 9.5 154.5 c 128,-1,8
 0 159 0 159 0 175 c 128,-1,9
0 275 m 128,-1,17
 0 291 0 291 9.5 295.5 c 128,-1,18
 19 300 19 300 50 300 c 128,-1,19
 81 300 81 300 90.5 295.5 c 128,-1,20
 100 291 100 291 100 275 c 128,-1,21
 100 259 100 259 90.5 254.5 c 128,-1,22
 81 250 81 250 50 250 c 128,-1,23
 19 250 19 250 9.5 254.5 c 128,-1,16
 0 259 0 259 0 275 c 128,-1,17
0 375 m 0,24,25
 0 391 0 391 15 395 c 0,26,27
 34 400 34 400 150 400 c 0,28,29
 279 400 279 400 293 391 c 0,30,31
 300 387 300 387 300 375 c 0,32,33
 300 359 300 359 285 355 c 0,34,35
 266 350 266 350 150 350 c 0,36,37
 21 350 21 350 7 359 c 0,38,39
 0 363 0 363 0 375 c 0,24,25
0 475 m 128,-1,41
 0 491 0 491 9.5 495.5 c 128,-1,42
 19 500 19 500 50 500 c 128,-1,43
 81 500 81 500 90.5 495.5 c 128,-1,44
 100 491 100 491 100 475 c 128,-1,45
 100 459 100 459 90.5 454.5 c 128,-1,46
 81 450 81 450 50 450 c 128,-1,47
 19 450 19 450 9.5 454.5 c 128,-1,40
 0 459 0 459 0 475 c 128,-1,41
0 575 m 128,-1,49
 0 591 0 591 9.5 595.5 c 128,-1,50
 19 600 19 600 50 600 c 128,-1,51
 81 600 81 600 90.5 595.5 c 128,-1,52
 100 591 100 591 100 575 c 128,-1,53
 100 559 100 559 90.5 554.5 c 128,-1,54
 81 550 81 550 50 550 c 128,-1,55
 19 550 19 550 9.5 554.5 c 128,-1,48
 0 559 0 559 0 575 c 128,-1,49
0 675 m 0,56,57
 0 690 0 690 15 694 c 0,58,59
 39 700 39 700 200 700 c 0,60,61
 373 700 373 700 391 691 c 0,62,63
 400 687 400 687 400 675 c 0,64,65
 400 660 400 660 385 656 c 0,66,67
 361 650 361 650 200 650 c 0,68,69
 27 650 27 650 9 659 c 0,70,71
 0 663 0 663 0 675 c 0,56,57
EndSplineSet
Validated: 1
EndChar

StartChar: G
Encoding: 71 71 72
Width: 500
Flags: W
LayerCount: 2
Fore
SplineSet
100 75 m 128,-1,1
 100 84 100 84 102.5 88.5 c 128,-1,2
 105 93 105 93 119.5 96 c 128,-1,3
 134 99 134 99 156 99.5 c 128,-1,4
 178 100 178 100 225 100 c 128,-1,5
 272 100 272 100 294 99.5 c 128,-1,6
 316 99 316 99 330.5 96 c 128,-1,7
 345 93 345 93 347.5 88.5 c 128,-1,8
 350 84 350 84 350 75 c 128,-1,9
 350 66 350 66 347.5 61.5 c 128,-1,10
 345 57 345 57 330.5 54 c 128,-1,11
 316 51 316 51 294 50.5 c 128,-1,12
 272 50 272 50 225 50 c 128,-1,13
 178 50 178 50 156 50.5 c 128,-1,14
 134 51 134 51 119.5 54 c 128,-1,15
 105 57 105 57 102.5 61.5 c 128,-1,0
 100 66 100 66 100 75 c 128,-1,1
300 175 m 128,-1,17
 300 191 300 191 309.5 195.5 c 128,-1,18
 319 200 319 200 350 200 c 128,-1,19
 381 200 381 200 390.5 195.5 c 128,-1,20
 400 191 400 191 400 175 c 128,-1,21
 400 159 400 159 390.5 154.5 c 128,-1,22
 381 150 381 150 350 150 c 128,-1,23
 319 150 319 150 309.5 154.5 c 128,-1,16
 300 159 300 159 300 175 c 128,-1,17
50 175 m 128,-1,25
 50 191 50 191 59.5 195.5 c 128,-1,26
 69 200 69 200 100 200 c 128,-1,27
 131 200 131 200 140.5 195.5 c 128,-1,28
 150 191 150 191 150 175 c 128,-1,29
 150 159 150 159 140.5 154.5 c 128,-1,30
 131 150 131 150 100 150 c 128,-1,31
 69 150 69 150 59.5 154.5 c 128,-1,24
 50 159 50 159 50 175 c 128,-1,25
200 275 m 128,-1,33
 200 292 200 292 216 296 c 128,-1,34
 232 300 232 300 300 300 c 128,-1,35
 368 300 368 300 384 296 c 128,-1,36
 400 292 400 292 400 275 c 128,-1,37
 400 258 400 258 384 254 c 128,-1,38
 368 250 368 250 300 250 c 128,-1,39
 232 250 232 250 216 254 c 128,-1,32
 200 258 200 258 200 275 c 128,-1,33
0 275 m 128,-1,41
 0 291 0 291 9.5 295.5 c 128,-1,42
 19 300 19 300 50 300 c 128,-1,43
 81 300 81 300 90.5 295.5 c 128,-1,44
 100 291 100 291 100 275 c 128,-1,45
 100 259 100 259 90.5 254.5 c 128,-1,46
 81 250 81 250 50 250 c 128,-1,47
 19 250 19 250 9.5 254.5 c 128,-1,40
 0 259 0 259 0 275 c 128,-1,41
0 375 m 128,-1,49
 0 391 0 391 9.5 395.5 c 128,-1,50
 19 400 19 400 50 400 c 128,-1,51
 81 400 81 400 90.5 395.5 c 128,-1,52
 100 391 100 391 100 375 c 128,-1,53
 100 359 100 359 90.5 354.5 c 128,-1,54
 81 350 81 350 50 350 c 128,-1,55
 19 350 19 350 9.5 354.5 c 128,-1,48
 0 359 0 359 0 375 c 128,-1,49
0 475 m 128,-1,57
 0 491 0 491 9.5 495.5 c 128,-1,58
 19 500 19 500 50 500 c 128,-1,59
 81 500 81 500 90.5 495.5 c 128,-1,60
 100 491 100 491 100 475 c 128,-1,61
 100 459 100 459 90.5 454.5 c 128,-1,62
 81 450 81 450 50 450 c 128,-1,63
 19 450 19 450 9.5 454.5 c 128,-1,56
 0 459 0 459 0 475 c 128,-1,57
300 575 m 128,-1,65
 300 591 300 591 309.5 595.5 c 128,-1,66
 319 600 319 600 350 600 c 128,-1,67
 381 600 381 600 390.5 595.5 c 128,-1,68
 400 591 400 591 400 575 c 128,-1,69
 400 559 400 559 390.5 554.5 c 128,-1,70
 381 550 381 550 350 550 c 128,-1,71
 319 550 319 550 309.5 554.5 c 128,-1,64
 300 559 300 559 300 575 c 128,-1,65
50 575 m 128,-1,73
 50 591 50 591 59.5 595.5 c 128,-1,74
 69 600 69 600 100 600 c 128,-1,75
 131 600 131 600 140.5 595.5 c 128,-1,76
 150 591 150 591 150 575 c 128,-1,77
 150 559 150 559 140.5 554.5 c 128,-1,78
 131 550 131 550 100 550 c 128,-1,79
 69 550 69 550 59.5 554.5 c 128,-1,72
 50 559 50 559 50 575 c 128,-1,73
100 675 m 128,-1,81
 100 684 100 684 102.5 688.5 c 128,-1,82
 105 693 105 693 119.5 696 c 128,-1,83
 134 699 134 699 156 699.5 c 128,-1,84
 178 700 178 700 225 700 c 128,-1,85
 272 700 272 700 294 699.5 c 128,-1,86
 316 699 316 699 330.5 696 c 128,-1,87
 345 693 345 693 347.5 688.5 c 128,-1,88
 350 684 350 684 350 675 c 128,-1,89
 350 666 350 666 347.5 661.5 c 128,-1,90
 345 657 345 657 330.5 654 c 128,-1,91
 316 651 316 651 294 650.5 c 128,-1,92
 272 650 272 650 225 650 c 128,-1,93
 178 650 178 650 156 650.5 c 128,-1,94
 134 651 134 651 119.5 654 c 128,-1,95
 105 657 105 657 102.5 661.5 c 128,-1,80
 100 666 100 666 100 675 c 128,-1,81
EndSplineSet
Validated: 1
EndChar

StartChar: H
Encoding: 72 72 73
Width: 500
Flags: W
LayerCount: 2
Fore
SplineSet
300 75 m 128,-1,1
 300 91 300 91 309.5 95.5 c 128,-1,2
 319 100 319 100 350 100 c 128,-1,3
 381 100 381 100 390.5 95.5 c 128,-1,4
 400 91 400 91 400 75 c 128,-1,5
 400 59 400 59 390.5 54.5 c 128,-1,6
 381 50 381 50 350 50 c 128,-1,7
 319 50 319 50 309.5 54.5 c 128,-1,0
 300 59 300 59 300 75 c 128,-1,1
0 75 m 128,-1,9
 0 91 0 91 9.5 95.5 c 128,-1,10
 19 100 19 100 50 100 c 128,-1,11
 81 100 81 100 90.5 95.5 c 128,-1,12
 100 91 100 91 100 75 c 128,-1,13
 100 59 100 59 90.5 54.5 c 128,-1,14
 81 50 81 50 50 50 c 128,-1,15
 19 50 19 50 9.5 54.5 c 128,-1,8
 0 59 0 59 0 75 c 128,-1,9
300 175 m 128,-1,17
 300 191 300 191 309.5 195.5 c 128,-1,18
 319 200 319 200 350 200 c 128,-1,19
 381 200 381 200 390.5 195.5 c 128,-1,20
 400 191 400 191 400 175 c 128,-1,21
 400 159 400 159 390.5 154.5 c 128,-1,22
 381 150 381 150 350 150 c 128,-1,23
 319 150 319 150 309.5 154.5 c 128,-1,16
 300 159 300 159 300 175 c 128,-1,17
0 175 m 128,-1,25
 0 191 0 191 9.5 195.5 c 128,-1,26
 19 200 19 200 50 200 c 128,-1,27
 81 200 81 200 90.5 195.5 c 128,-1,28
 100 191 100 191 100 175 c 128,-1,29
 100 159 100 159 90.5 154.5 c 128,-1,30
 81 150 81 150 50 150 c 128,-1,31
 19 150 19 150 9.5 154.5 c 128,-1,24
 0 159 0 159 0 175 c 128,-1,25
300 275 m 128,-1,33
 300 291 300 291 309.5 295.5 c 128,-1,34
 319 300 319 300 350 300 c 128,-1,35
 381 300 381 300 390.5 295.5 c 128,-1,36
 400 291 400 291 400 275 c 128,-1,37
 400 259 400 259 390.5 254.5 c 128,-1,38
 381 250 381 250 350 250 c 128,-1,39
 319 250 319 250 309.5 254.5 c 128,-1,32
 300 259 300 259 300 275 c 128,-1,33
0 275 m 128,-1,41
 0 291 0 291 9.5 295.5 c 128,-1,42
 19 300 19 300 50 300 c 128,-1,43
 81 300 81 300 90.5 295.5 c 128,-1,44
 100 291 100 291 100 275 c 128,-1,45
 100 259 100 259 90.5 254.5 c 128,-1,46
 81 250 81 250 50 250 c 128,-1,47
 19 250 19 250 9.5 254.5 c 128,-1,40
 0 259 0 259 0 275 c 128,-1,41
0 375 m 0,48,49
 0 390 0 390 15 394 c 0,50,51
 39 400 39 400 200 400 c 0,52,53
 373 400 373 400 391 391 c 0,54,55
 400 387 400 387 400 375 c 0,56,57
 400 360 400 360 385 356 c 0,58,59
 361 350 361 350 200 350 c 0,60,61
 27 350 27 350 9 359 c 0,62,63
 0 363 0 363 0 375 c 0,48,49
300 475 m 128,-1,65
 300 491 300 491 309.5 495.5 c 128,-1,66
 319 500 319 500 350 500 c 128,-1,67
 381 500 381 500 390.5 495.5 c 128,-1,68
 400 491 400 491 400 475 c 128,-1,69
 400 459 400 459 390.5 454.5 c 128,-1,70
 381 450 381 450 350 450 c 128,-1,71
 319 450 319 450 309.5 454.5 c 128,-1,64
 300 459 300 459 300 475 c 128,-1,65
0 475 m 128,-1,73
 0 491 0 491 9.5 495.5 c 128,-1,74
 19 500 19 500 50 500 c 128,-1,75
 81 500 81 500 90.5 495.5 c 128,-1,76
 100 491 100 491 100 475 c 128,-1,77
 100 459 100 459 90.5 454.5 c 128,-1,78
 81 450 81 450 50 450 c 128,-1,79
 19 450 19 450 9.5 454.5 c 128,-1,72
 0 459 0 459 0 475 c 128,-1,73
300 575 m 128,-1,81
 300 591 300 591 309.5 595.5 c 128,-1,82
 319 600 319 600 350 600 c 128,-1,83
 381 600 381 600 390.5 595.5 c 128,-1,84
 400 591 400 591 400 575 c 128,-1,85
 400 559 400 559 390.5 554.5 c 128,-1,86
 381 550 381 550 350 550 c 128,-1,87
 319 550 319 550 309.5 554.5 c 128,-1,80
 300 559 300 559 300 575 c 128,-1,81
0 575 m 128,-1,89
 0 591 0 591 9.5 595.5 c 128,-1,90
 19 600 19 600 50 600 c 128,-1,91
 81 600 81 600 90.5 595.5 c 128,-1,92
 100 591 100 591 100 575 c 128,-1,93
 100 559 100 559 90.5 554.5 c 128,-1,94
 81 550 81 550 50 550 c 128,-1,95
 19 550 19 550 9.5 554.5 c 128,-1,88
 0 559 0 559 0 575 c 128,-1,89
300 675 m 128,-1,97
 300 691 300 691 309.5 695.5 c 128,-1,98
 319 700 319 700 350 700 c 128,-1,99
 381 700 381 700 390.5 695.5 c 128,-1,100
 400 691 400 691 400 675 c 128,-1,101
 400 659 400 659 390.5 654.5 c 128,-1,102
 381 650 381 650 350 650 c 128,-1,103
 319 650 319 650 309.5 654.5 c 128,-1,96
 300 659 300 659 300 675 c 128,-1,97
0 675 m 128,-1,105
 0 691 0 691 9.5 695.5 c 128,-1,106
 19 700 19 700 50 700 c 128,-1,107
 81 700 81 700 90.5 695.5 c 128,-1,108
 100 691 100 691 100 675 c 128,-1,109
 100 659 100 659 90.5 654.5 c 128,-1,110
 81 650 81 650 50 650 c 128,-1,111
 19 650 19 650 9.5 654.5 c 128,-1,104
 0 659 0 659 0 675 c 128,-1,105
EndSplineSet
Validated: 1
EndChar

StartChar: I
Encoding: 73 73 74
Width: 500
Flags: W
LayerCount: 2
Fore
SplineSet
50 75 m 0,0,1
 50 91 50 91 65 95 c 0,2,3
 84 100 84 100 200 100 c 0,4,5
 329 100 329 100 343 91 c 0,6,7
 350 87 350 87 350 75 c 0,8,9
 350 59 350 59 335 55 c 0,10,11
 316 50 316 50 200 50 c 0,12,13
 71 50 71 50 57 59 c 0,14,15
 50 63 50 63 50 75 c 0,0,1
150 175 m 128,-1,17
 150 191 150 191 159.5 195.5 c 128,-1,18
 169 200 169 200 200 200 c 128,-1,19
 231 200 231 200 240.5 195.5 c 128,-1,20
 250 191 250 191 250 175 c 128,-1,21
 250 159 250 159 240.5 154.5 c 128,-1,22
 231 150 231 150 200 150 c 128,-1,23
 169 150 169 150 159.5 154.5 c 128,-1,16
 150 159 150 159 150 175 c 128,-1,17
150 275 m 128,-1,25
 150 291 150 291 159.5 295.5 c 128,-1,26
 169 300 169 300 200 300 c 128,-1,27
 231 300 231 300 240.5 295.5 c 128,-1,28
 250 291 250 291 250 275 c 128,-1,29
 250 259 250 259 240.5 254.5 c 128,-1,30
 231 250 231 250 200 250 c 128,-1,31
 169 250 169 250 159.5 254.5 c 128,-1,24
 150 259 150 259 150 275 c 128,-1,25
150 375 m 128,-1,33
 150 391 150 391 159.5 395.5 c 128,-1,34
 169 400 169 400 200 400 c 128,-1,35
 231 400 231 400 240.5 395.5 c 128,-1,36
 250 391 250 391 250 375 c 128,-1,37
 250 359 250 359 240.5 354.5 c 128,-1,38
 231 350 231 350 200 350 c 128,-1,39
 169 350 169 350 159.5 354.5 c 128,-1,32
 150 359 150 359 150 375 c 128,-1,33
150 475 m 128,-1,41
 150 491 150 491 159.5 495.5 c 128,-1,42
 169 500 169 500 200 500 c 128,-1,43
 231 500 231 500 240.5 495.5 c 128,-1,44
 250 491 250 491 250 475 c 128,-1,45
 250 459 250 459 240.5 454.5 c 128,-1,46
 231 450 231 450 200 450 c 128,-1,47
 169 450 169 450 159.5 454.5 c 128,-1,40
 150 459 150 459 150 475 c 128,-1,41
150 575 m 128,-1,49
 150 591 150 591 159.5 595.5 c 128,-1,50
 169 600 169 600 200 600 c 128,-1,51
 231 600 231 600 240.5 595.5 c 128,-1,52
 250 591 250 591 250 575 c 128,-1,53
 250 559 250 559 240.5 554.5 c 128,-1,54
 231 550 231 550 200 550 c 128,-1,55
 169 550 169 550 159.5 554.5 c 128,-1,48
 150 559 150 559 150 575 c 128,-1,49
50 675 m 0,56,57
 50 691 50 691 65 695 c 0,58,59
 84 700 84 700 200 700 c 0,60,61
 329 700 329 700 343 691 c 0,62,63
 350 687 350 687 350 675 c 0,64,65
 350 659 350 659 335 655 c 0,66,67
 316 650 316 650 200 650 c 0,68,69
 71 650 71 650 57 659 c 0,70,71
 50 663 50 663 50 675 c 0,56,57
EndSplineSet
Validated: 1
EndChar

StartChar: J
Encoding: 74 74 75
Width: 500
Flags: W
LayerCount: 2
Fore
SplineSet
50 75 m 128,-1,1
 50 84 50 84 52.5 88.5 c 128,-1,2
 55 93 55 93 69.5 96 c 128,-1,3
 84 99 84 99 106 99.5 c 128,-1,4
 128 100 128 100 175 100 c 128,-1,5
 222 100 222 100 244 99.5 c 128,-1,6
 266 99 266 99 280.5 96 c 128,-1,7
 295 93 295 93 297.5 88.5 c 128,-1,8
 300 84 300 84 300 75 c 128,-1,9
 300 66 300 66 297.5 61.5 c 128,-1,10
 295 57 295 57 280.5 54 c 128,-1,11
 266 51 266 51 244 50.5 c 128,-1,12
 222 50 222 50 175 50 c 128,-1,13
 128 50 128 50 106 50.5 c 128,-1,14
 84 51 84 51 69.5 54 c 128,-1,15
 55 57 55 57 52.5 61.5 c 128,-1,0
 50 66 50 66 50 75 c 128,-1,1
250 175 m 128,-1,17
 250 191 250 191 259.5 195.5 c 128,-1,18
 269 200 269 200 300 200 c 128,-1,19
 331 200 331 200 340.5 195.5 c 128,-1,20
 350 191 350 191 350 175 c 128,-1,21
 350 159 350 159 340.5 154.5 c 128,-1,22
 331 150 331 150 300 150 c 128,-1,23
 269 150 269 150 259.5 154.5 c 128,-1,16
 250 159 250 159 250 175 c 128,-1,17
0 175 m 128,-1,25
 0 191 0 191 9.5 195.5 c 128,-1,26
 19 200 19 200 50 200 c 128,-1,27
 81 200 81 200 90.5 195.5 c 128,-1,28
 100 191 100 191 100 175 c 128,-1,29
 100 159 100 159 90.5 154.5 c 128,-1,30
 81 150 81 150 50 150 c 128,-1,31
 19 150 19 150 9.5 154.5 c 128,-1,24
 0 159 0 159 0 175 c 128,-1,25
250 275 m 128,-1,33
 250 291 250 291 259.5 295.5 c 128,-1,34
 269 300 269 300 300 300 c 128,-1,35
 331 300 331 300 340.5 295.5 c 128,-1,36
 350 291 350 291 350 275 c 128,-1,37
 350 259 350 259 340.5 254.5 c 128,-1,38
 331 250 331 250 300 250 c 128,-1,39
 269 250 269 250 259.5 254.5 c 128,-1,32
 250 259 250 259 250 275 c 128,-1,33
250 375 m 128,-1,41
 250 391 250 391 259.5 395.5 c 128,-1,42
 269 400 269 400 300 400 c 128,-1,43
 331 400 331 400 340.5 395.5 c 128,-1,44
 350 391 350 391 350 375 c 128,-1,45
 350 359 350 359 340.5 354.5 c 128,-1,46
 331 350 331 350 300 350 c 128,-1,47
 269 350 269 350 259.5 354.5 c 128,-1,40
 250 359 250 359 250 375 c 128,-1,41
250 475 m 128,-1,49
 250 491 250 491 259.5 495.5 c 128,-1,50
 269 500 269 500 300 500 c 128,-1,51
 331 500 331 500 340.5 495.5 c 128,-1,52
 350 491 350 491 350 475 c 128,-1,53
 350 459 350 459 340.5 454.5 c 128,-1,54
 331 450 331 450 300 450 c 128,-1,55
 269 450 269 450 259.5 454.5 c 128,-1,48
 250 459 250 459 250 475 c 128,-1,49
250 575 m 128,-1,57
 250 591 250 591 259.5 595.5 c 128,-1,58
 269 600 269 600 300 600 c 128,-1,59
 331 600 331 600 340.5 595.5 c 128,-1,60
 350 591 350 591 350 575 c 128,-1,61
 350 559 350 559 340.5 554.5 c 128,-1,62
 331 550 331 550 300 550 c 128,-1,63
 269 550 269 550 259.5 554.5 c 128,-1,56
 250 559 250 559 250 575 c 128,-1,57
200 675 m 128,-1,65
 200 692 200 692 216 696 c 128,-1,66
 232 700 232 700 300 700 c 128,-1,67
 368 700 368 700 384 696 c 128,-1,68
 400 692 400 692 400 675 c 128,-1,69
 400 658 400 658 384 654 c 128,-1,70
 368 650 368 650 300 650 c 128,-1,71
 232 650 232 650 216 654 c 128,-1,64
 200 658 200 658 200 675 c 128,-1,65
EndSplineSet
Validated: 1
EndChar

StartChar: K
Encoding: 75 75 76
Width: 500
Flags: W
LayerCount: 2
Fore
SplineSet
300 75 m 128,-1,1
 300 91 300 91 309.5 95.5 c 128,-1,2
 319 100 319 100 350 100 c 128,-1,3
 381 100 381 100 390.5 95.5 c 128,-1,4
 400 91 400 91 400 75 c 128,-1,5
 400 59 400 59 390.5 54.5 c 128,-1,6
 381 50 381 50 350 50 c 128,-1,7
 319 50 319 50 309.5 54.5 c 128,-1,0
 300 59 300 59 300 75 c 128,-1,1
0 75 m 128,-1,9
 0 91 0 91 9.5 95.5 c 128,-1,10
 19 100 19 100 50 100 c 128,-1,11
 81 100 81 100 90.5 95.5 c 128,-1,12
 100 91 100 91 100 75 c 128,-1,13
 100 59 100 59 90.5 54.5 c 128,-1,14
 81 50 81 50 50 50 c 128,-1,15
 19 50 19 50 9.5 54.5 c 128,-1,8
 0 59 0 59 0 75 c 128,-1,9
200 175 m 128,-1,17
 200 192 200 192 213 196 c 128,-1,18
 226 200 226 200 275 200 c 128,-1,19
 324 200 324 200 337 196 c 128,-1,20
 350 192 350 192 350 175 c 128,-1,21
 350 158 350 158 337 154 c 128,-1,22
 324 150 324 150 275 150 c 128,-1,23
 226 150 226 150 213 154 c 128,-1,16
 200 158 200 158 200 175 c 128,-1,17
0 175 m 128,-1,25
 0 191 0 191 9.5 195.5 c 128,-1,26
 19 200 19 200 50 200 c 128,-1,27
 81 200 81 200 90.5 195.5 c 128,-1,28
 100 191 100 191 100 175 c 128,-1,29
 100 159 100 159 90.5 154.5 c 128,-1,30
 81 150 81 150 50 150 c 128,-1,31
 19 150 19 150 9.5 154.5 c 128,-1,24
 0 159 0 159 0 175 c 128,-1,25
0 275 m 128,-1,33
 0 284 0 284 2.5 288.5 c 128,-1,34
 5 293 5 293 19.5 296 c 128,-1,35
 34 299 34 299 56 299.5 c 128,-1,36
 78 300 78 300 125 300 c 128,-1,37
 172 300 172 300 194 299.5 c 128,-1,38
 216 299 216 299 230.5 296 c 128,-1,39
 245 293 245 293 247.5 288.5 c 128,-1,40
 250 284 250 284 250 275 c 128,-1,41
 250 266 250 266 247.5 261.5 c 128,-1,42
 245 257 245 257 230.5 254 c 128,-1,43
 216 251 216 251 194 250.5 c 128,-1,44
 172 250 172 250 125 250 c 128,-1,45
 78 250 78 250 56 250.5 c 128,-1,46
 34 251 34 251 19.5 254 c 128,-1,47
 5 257 5 257 2.5 261.5 c 128,-1,32
 0 266 0 266 0 275 c 128,-1,33
0 375 m 128,-1,49
 0 392 0 392 13 396 c 128,-1,50
 26 400 26 400 75 400 c 128,-1,51
 124 400 124 400 137 396 c 128,-1,52
 150 392 150 392 150 375 c 128,-1,53
 150 358 150 358 137 354 c 128,-1,54
 124 350 124 350 75 350 c 128,-1,55
 26 350 26 350 13 354 c 128,-1,48
 0 358 0 358 0 375 c 128,-1,49
0 475 m 128,-1,57
 0 484 0 484 2.5 488.5 c 128,-1,58
 5 493 5 493 19.5 496 c 128,-1,59
 34 499 34 499 56 499.5 c 128,-1,60
 78 500 78 500 125 500 c 128,-1,61
 172 500 172 500 194 499.5 c 128,-1,62
 216 499 216 499 230.5 496 c 128,-1,63
 245 493 245 493 247.5 488.5 c 128,-1,64
 250 484 250 484 250 475 c 128,-1,65
 250 466 250 466 247.5 461.5 c 128,-1,66
 245 457 245 457 230.5 454 c 128,-1,67
 216 451 216 451 194 450.5 c 128,-1,68
 172 450 172 450 125 450 c 128,-1,69
 78 450 78 450 56 450.5 c 128,-1,70
 34 451 34 451 19.5 454 c 128,-1,71
 5 457 5 457 2.5 461.5 c 128,-1,56
 0 466 0 466 0 475 c 128,-1,57
200 575 m 128,-1,73
 200 592 200 592 213 596 c 128,-1,74
 226 600 226 600 275 600 c 128,-1,75
 324 600 324 600 337 596 c 128,-1,76
 350 592 350 592 350 575 c 128,-1,77
 350 558 350 558 337 554 c 128,-1,78
 324 550 324 550 275 550 c 128,-1,79
 226 550 226 550 213 554 c 128,-1,72
 200 558 200 558 200 575 c 128,-1,73
0 575 m 128,-1,81
 0 591 0 591 9.5 595.5 c 128,-1,82
 19 600 19 600 50 600 c 128,-1,83
 81 600 81 600 90.5 595.5 c 128,-1,84
 100 591 100 591 100 575 c 128,-1,85
 100 559 100 559 90.5 554.5 c 128,-1,86
 81 550 81 550 50 550 c 128,-1,87
 19 550 19 550 9.5 554.5 c 128,-1,80
 0 559 0 559 0 575 c 128,-1,81
300 675 m 128,-1,89
 300 691 300 691 309.5 695.5 c 128,-1,90
 319 700 319 700 350 700 c 128,-1,91
 381 700 381 700 390.5 695.5 c 128,-1,92
 400 691 400 691 400 675 c 128,-1,93
 400 659 400 659 390.5 654.5 c 128,-1,94
 381 650 381 650 350 650 c 128,-1,95
 319 650 319 650 309.5 654.5 c 128,-1,88
 300 659 300 659 300 675 c 128,-1,89
0 675 m 128,-1,97
 0 691 0 691 9.5 695.5 c 128,-1,98
 19 700 19 700 50 700 c 128,-1,99
 81 700 81 700 90.5 695.5 c 128,-1,100
 100 691 100 691 100 675 c 128,-1,101
 100 659 100 659 90.5 654.5 c 128,-1,102
 81 650 81 650 50 650 c 128,-1,103
 19 650 19 650 9.5 654.5 c 128,-1,96
 0 659 0 659 0 675 c 128,-1,97
EndSplineSet
Validated: 1
EndChar

StartChar: L
Encoding: 76 76 77
Width: 500
Flags: W
LayerCount: 2
Fore
SplineSet
0 75 m 0,0,1
 0 90 0 90 15 94 c 0,2,3
 39 100 39 100 200 100 c 0,4,5
 373 100 373 100 391 91 c 0,6,7
 400 87 400 87 400 75 c 0,8,9
 400 60 400 60 385 56 c 0,10,11
 361 50 361 50 200 50 c 0,12,13
 27 50 27 50 9 59 c 0,14,15
 0 63 0 63 0 75 c 0,0,1
0 175 m 128,-1,17
 0 191 0 191 9.5 195.5 c 128,-1,18
 19 200 19 200 50 200 c 128,-1,19
 81 200 81 200 90.5 195.5 c 128,-1,20
 100 191 100 191 100 175 c 128,-1,21
 100 159 100 159 90.5 154.5 c 128,-1,22
 81 150 81 150 50 150 c 128,-1,23
 19 150 19 150 9.5 154.5 c 128,-1,16
 0 159 0 159 0 175 c 128,-1,17
0 275 m 128,-1,25
 0 291 0 291 9.5 295.5 c 128,-1,26
 19 300 19 300 50 300 c 128,-1,27
 81 300 81 300 90.5 295.5 c 128,-1,28
 100 291 100 291 100 275 c 128,-1,29
 100 259 100 259 90.5 254.5 c 128,-1,30
 81 250 81 250 50 250 c 128,-1,31
 19 250 19 250 9.5 254.5 c 128,-1,24
 0 259 0 259 0 275 c 128,-1,25
0 375 m 128,-1,33
 0 391 0 391 9.5 395.5 c 128,-1,34
 19 400 19 400 50 400 c 128,-1,35
 81 400 81 400 90.5 395.5 c 128,-1,36
 100 391 100 391 100 375 c 128,-1,37
 100 359 100 359 90.5 354.5 c 128,-1,38
 81 350 81 350 50 350 c 128,-1,39
 19 350 19 350 9.5 354.5 c 128,-1,32
 0 359 0 359 0 375 c 128,-1,33
0 475 m 128,-1,41
 0 491 0 491 9.5 495.5 c 128,-1,42
 19 500 19 500 50 500 c 128,-1,43
 81 500 81 500 90.5 495.5 c 128,-1,44
 100 491 100 491 100 475 c 128,-1,45
 100 459 100 459 90.5 454.5 c 128,-1,46
 81 450 81 450 50 450 c 128,-1,47
 19 450 19 450 9.5 454.5 c 128,-1,40
 0 459 0 459 0 475 c 128,-1,41
0 575 m 128,-1,49
 0 591 0 591 9.5 595.5 c 128,-1,50
 19 600 19 600 50 600 c 128,-1,51
 81 600 81 600 90.5 595.5 c 128,-1,52
 100 591 100 591 100 575 c 128,-1,53
 100 559 100 559 90.5 554.5 c 128,-1,54
 81 550 81 550 50 550 c 128,-1,55
 19 550 19 550 9.5 554.5 c 128,-1,48
 0 559 0 559 0 575 c 128,-1,49
0 675 m 128,-1,57
 0 691 0 691 9.5 695.5 c 128,-1,58
 19 700 19 700 50 700 c 128,-1,59
 81 700 81 700 90.5 695.5 c 128,-1,60
 100 691 100 691 100 675 c 128,-1,61
 100 659 100 659 90.5 654.5 c 128,-1,62
 81 650 81 650 50 650 c 128,-1,63
 19 650 19 650 9.5 654.5 c 128,-1,56
 0 659 0 659 0 675 c 128,-1,57
EndSplineSet
Validated: 1
EndChar

